%TF.GenerationSoftware,KiCad,Pcbnew,(5.99.0-12717-g57c7d663b0)*%
%TF.CreationDate,2021-10-22T19:22:42+02:00*%
%TF.ProjectId,video_converter,76696465-6f5f-4636-9f6e-766572746572,rev?*%
%TF.SameCoordinates,Original*%
%TF.FileFunction,Soldermask,Top*%
%TF.FilePolarity,Negative*%
%FSLAX46Y46*%
G04 Gerber Fmt 4.6, Leading zero omitted, Abs format (unit mm)*
G04 Created by KiCad (PCBNEW (5.99.0-12717-g57c7d663b0)) date 2021-10-22 19:22:42*
%MOMM*%
%LPD*%
G01*
G04 APERTURE LIST*
G04 Aperture macros list*
%AMRoundRect*
0 Rectangle with rounded corners*
0 $1 Rounding radius*
0 $2 $3 $4 $5 $6 $7 $8 $9 X,Y pos of 4 corners*
0 Add a 4 corners polygon primitive as box body*
4,1,4,$2,$3,$4,$5,$6,$7,$8,$9,$2,$3,0*
0 Add four circle primitives for the rounded corners*
1,1,$1+$1,$2,$3*
1,1,$1+$1,$4,$5*
1,1,$1+$1,$6,$7*
1,1,$1+$1,$8,$9*
0 Add four rect primitives between the rounded corners*
20,1,$1+$1,$2,$3,$4,$5,0*
20,1,$1+$1,$4,$5,$6,$7,0*
20,1,$1+$1,$6,$7,$8,$9,0*
20,1,$1+$1,$8,$9,$2,$3,0*%
G04 Aperture macros list end*
%ADD10R,2.000000X0.610000*%
%ADD11R,3.600000X2.680000*%
%ADD12RoundRect,0.250000X-0.450000X0.350000X-0.450000X-0.350000X0.450000X-0.350000X0.450000X0.350000X0*%
%ADD13RoundRect,0.250000X-0.350000X-0.450000X0.350000X-0.450000X0.350000X0.450000X-0.350000X0.450000X0*%
%ADD14RoundRect,0.237500X0.300000X0.237500X-0.300000X0.237500X-0.300000X-0.237500X0.300000X-0.237500X0*%
%ADD15RoundRect,0.237500X-0.300000X-0.237500X0.300000X-0.237500X0.300000X0.237500X-0.300000X0.237500X0*%
%ADD16RoundRect,0.250000X0.450000X-0.350000X0.450000X0.350000X-0.450000X0.350000X-0.450000X-0.350000X0*%
%ADD17R,1.700000X1.700000*%
%ADD18O,1.700000X1.700000*%
%ADD19RoundRect,0.237500X-0.237500X0.300000X-0.237500X-0.300000X0.237500X-0.300000X0.237500X0.300000X0*%
%ADD20R,1.600000X1.600000*%
%ADD21O,1.600000X1.600000*%
%ADD22R,0.800000X0.500000*%
%ADD23R,0.800000X0.400000*%
%ADD24RoundRect,0.250000X0.450000X-0.325000X0.450000X0.325000X-0.450000X0.325000X-0.450000X-0.325000X0*%
%ADD25R,1.400000X1.200000*%
%ADD26RoundRect,0.237500X0.237500X-0.300000X0.237500X0.300000X-0.237500X0.300000X-0.237500X-0.300000X0*%
%ADD27RoundRect,0.237500X0.237500X-0.250000X0.237500X0.250000X-0.237500X0.250000X-0.237500X-0.250000X0*%
%ADD28RoundRect,0.250000X0.350000X0.450000X-0.350000X0.450000X-0.350000X-0.450000X0.350000X-0.450000X0*%
%ADD29RoundRect,0.250000X-1.137500X-0.550000X1.137500X-0.550000X1.137500X0.550000X-1.137500X0.550000X0*%
%ADD30RoundRect,0.250000X0.475000X-0.337500X0.475000X0.337500X-0.475000X0.337500X-0.475000X-0.337500X0*%
%ADD31R,1.473200X0.279400*%
%ADD32R,0.279400X1.473200*%
%ADD33R,2.500000X0.700000*%
%ADD34R,1.900000X1.100000*%
%ADD35R,2.400000X2.400000*%
%ADD36C,2.400000*%
%ADD37R,1.100000X0.300000*%
%ADD38R,3.100000X2.300000*%
%ADD39R,1.500000X2.000000*%
%ADD40R,3.800000X2.000000*%
%ADD41RoundRect,0.250000X1.450000X-0.400000X1.450000X0.400000X-1.450000X0.400000X-1.450000X-0.400000X0*%
%ADD42RoundRect,0.250000X-0.550000X1.137500X-0.550000X-1.137500X0.550000X-1.137500X0.550000X1.137500X0*%
G04 APERTURE END LIST*
D10*
%TO.C,J2*%
X123150000Y-75500000D03*
X123150000Y-76500000D03*
X123150000Y-77500000D03*
X123150000Y-78500000D03*
X123150000Y-79500000D03*
X123150000Y-80500000D03*
X123150000Y-81500000D03*
X123150000Y-82500000D03*
X123150000Y-83500000D03*
D11*
X120350000Y-72510000D03*
X120350000Y-86490000D03*
%TD*%
D12*
%TO.C,R16*%
X153416000Y-114189000D03*
X153416000Y-116189000D03*
%TD*%
D13*
%TO.C,R20*%
X161280600Y-101320600D03*
X163280600Y-101320600D03*
%TD*%
%TO.C,R10*%
X131942500Y-85979000D03*
X133942500Y-85979000D03*
%TD*%
D14*
%TO.C,C4*%
X138149500Y-85979000D03*
X136424500Y-85979000D03*
%TD*%
D15*
%TO.C,C24*%
X131963500Y-77089000D03*
X133688500Y-77089000D03*
%TD*%
D16*
%TO.C,R6*%
X150368000Y-112760000D03*
X150368000Y-110760000D03*
%TD*%
D15*
%TO.C,C17*%
X155220500Y-87122000D03*
X156945500Y-87122000D03*
%TD*%
D17*
%TO.C,J3*%
X162244000Y-59690000D03*
D18*
X164784000Y-59690000D03*
X162244000Y-62230000D03*
X164784000Y-62230000D03*
X162244000Y-64770000D03*
X164784000Y-64770000D03*
X162244000Y-67310000D03*
X164784000Y-67310000D03*
X162244000Y-69850000D03*
X164784000Y-69850000D03*
X162244000Y-72390000D03*
X164784000Y-72390000D03*
%TD*%
D19*
%TO.C,C13*%
X141351000Y-75845500D03*
X141351000Y-77570500D03*
%TD*%
D20*
%TO.C,SW1*%
X140086000Y-108754500D03*
D21*
X137546000Y-108754500D03*
X137546000Y-116374500D03*
X140086000Y-116374500D03*
%TD*%
D22*
%TO.C,RN3*%
X156834000Y-71444000D03*
D23*
X156834000Y-72244000D03*
X156834000Y-73044000D03*
D22*
X156834000Y-73844000D03*
X158634000Y-73844000D03*
D23*
X158634000Y-73044000D03*
X158634000Y-72244000D03*
D22*
X158634000Y-71444000D03*
%TD*%
D24*
%TO.C,D4*%
X150368000Y-116586000D03*
X150368000Y-114536000D03*
%TD*%
D15*
%TO.C,C28*%
X131090500Y-69469000D03*
X132815500Y-69469000D03*
%TD*%
%TO.C,C23*%
X138440500Y-100965000D03*
X140165500Y-100965000D03*
%TD*%
%TO.C,C6*%
X151029500Y-77978000D03*
X152754500Y-77978000D03*
%TD*%
D19*
%TO.C,C10*%
X148082000Y-97308500D03*
X148082000Y-99033500D03*
%TD*%
D24*
%TO.C,D2*%
X146050000Y-116595000D03*
X146050000Y-114545000D03*
%TD*%
D15*
%TO.C,C19*%
X131953000Y-84201000D03*
X133678000Y-84201000D03*
%TD*%
D22*
%TO.C,RN5*%
X156580000Y-110433000D03*
D23*
X156580000Y-111233000D03*
X156580000Y-112033000D03*
D22*
X156580000Y-112833000D03*
X158380000Y-112833000D03*
D23*
X158380000Y-112033000D03*
X158380000Y-111233000D03*
D22*
X158380000Y-110433000D03*
%TD*%
D25*
%TO.C,Y1*%
X159174000Y-78574000D03*
X161374000Y-78574000D03*
X161374000Y-76874000D03*
X159174000Y-76874000D03*
%TD*%
D26*
%TO.C,C1*%
X157353000Y-78586500D03*
X157353000Y-76861500D03*
%TD*%
D27*
%TO.C,R19*%
X144780000Y-102766500D03*
X144780000Y-100941500D03*
%TD*%
D24*
%TO.C,D1*%
X143899000Y-116595000D03*
X143899000Y-114545000D03*
%TD*%
D14*
%TO.C,C8*%
X139546500Y-78613000D03*
X137821500Y-78613000D03*
%TD*%
D17*
%TO.C,J4*%
X162244000Y-82550000D03*
D18*
X164784000Y-82550000D03*
X162244000Y-85090000D03*
X164784000Y-85090000D03*
X162244000Y-87630000D03*
X164784000Y-87630000D03*
X162244000Y-90170000D03*
X164784000Y-90170000D03*
X162244000Y-92710000D03*
X164784000Y-92710000D03*
X162244000Y-95250000D03*
X164784000Y-95250000D03*
%TD*%
D24*
%TO.C,D3*%
X148209000Y-116595000D03*
X148209000Y-114545000D03*
%TD*%
D15*
%TO.C,C9*%
X151029500Y-79502000D03*
X152754500Y-79502000D03*
%TD*%
D28*
%TO.C,R17*%
X155305000Y-118110000D03*
X153305000Y-118110000D03*
%TD*%
D29*
%TO.C,C30*%
X131414500Y-64135000D03*
X135539500Y-64135000D03*
%TD*%
D12*
%TO.C,R3*%
X143891000Y-110760000D03*
X143891000Y-112760000D03*
%TD*%
D30*
%TO.C,C34*%
X158242000Y-107336500D03*
X158242000Y-105261500D03*
%TD*%
D26*
%TO.C,C32*%
X155194000Y-65124500D03*
X155194000Y-63399500D03*
%TD*%
D16*
%TO.C,R2*%
X143129000Y-77454000D03*
X143129000Y-75454000D03*
%TD*%
D13*
%TO.C,R15*%
X131953000Y-78867000D03*
X133953000Y-78867000D03*
%TD*%
D12*
%TO.C,R4*%
X146050000Y-110760000D03*
X146050000Y-112760000D03*
%TD*%
D14*
%TO.C,C12*%
X143102500Y-79121000D03*
X141377500Y-79121000D03*
%TD*%
D15*
%TO.C,C22*%
X134519500Y-96647000D03*
X136244500Y-96647000D03*
%TD*%
D22*
%TO.C,RN4*%
X156834000Y-94304000D03*
D23*
X156834000Y-95104000D03*
X156834000Y-95904000D03*
D22*
X156834000Y-96704000D03*
X158634000Y-96704000D03*
D23*
X158634000Y-95904000D03*
X158634000Y-95104000D03*
D22*
X158634000Y-94304000D03*
%TD*%
D13*
%TO.C,R11*%
X134487200Y-91335200D03*
X136487200Y-91335200D03*
%TD*%
D16*
%TO.C,R1*%
X147193000Y-78724000D03*
X147193000Y-76724000D03*
%TD*%
D26*
%TO.C,C29*%
X153640000Y-65124500D03*
X153640000Y-63399500D03*
%TD*%
D14*
%TO.C,C7*%
X138149500Y-87630000D03*
X136424500Y-87630000D03*
%TD*%
D13*
%TO.C,R14*%
X138430000Y-102743000D03*
X140430000Y-102743000D03*
%TD*%
D31*
%TO.C,U1*%
X151765000Y-90627200D03*
X151765000Y-90119200D03*
X151765000Y-89611200D03*
X151765000Y-89128600D03*
X151765000Y-88620600D03*
X151765000Y-88112600D03*
X151765000Y-87630000D03*
X151765000Y-87122000D03*
X151765000Y-86614000D03*
X151765000Y-86106000D03*
X151765000Y-85623400D03*
X151765000Y-85115400D03*
X151765000Y-84607400D03*
X151765000Y-84124800D03*
X151765000Y-83616800D03*
X151765000Y-83108800D03*
D32*
X149809200Y-81153000D03*
X149301200Y-81153000D03*
X148793200Y-81153000D03*
X148310600Y-81153000D03*
X147802600Y-81153000D03*
X147294600Y-81153000D03*
X146812000Y-81153000D03*
X146304000Y-81153000D03*
X145796000Y-81153000D03*
X145288000Y-81153000D03*
X144805400Y-81153000D03*
X144297400Y-81153000D03*
X143789400Y-81153000D03*
X143306800Y-81153000D03*
X142798800Y-81153000D03*
X142290800Y-81153000D03*
D31*
X140335000Y-83108800D03*
X140335000Y-83616800D03*
X140335000Y-84124800D03*
X140335000Y-84607400D03*
X140335000Y-85115400D03*
X140335000Y-85623400D03*
X140335000Y-86106000D03*
X140335000Y-86614000D03*
X140335000Y-87122000D03*
X140335000Y-87630000D03*
X140335000Y-88112600D03*
X140335000Y-88620600D03*
X140335000Y-89128600D03*
X140335000Y-89611200D03*
X140335000Y-90119200D03*
X140335000Y-90627200D03*
D32*
X142290800Y-92583000D03*
X142798800Y-92583000D03*
X143306800Y-92583000D03*
X143789400Y-92583000D03*
X144297400Y-92583000D03*
X144805400Y-92583000D03*
X145288000Y-92583000D03*
X145796000Y-92583000D03*
X146304000Y-92583000D03*
X146812000Y-92583000D03*
X147294600Y-92583000D03*
X147802600Y-92583000D03*
X148310600Y-92583000D03*
X148793200Y-92583000D03*
X149301200Y-92583000D03*
X149809200Y-92583000D03*
%TD*%
D15*
%TO.C,C15*%
X152934500Y-93853000D03*
X154659500Y-93853000D03*
%TD*%
%TO.C,C14*%
X152934500Y-92329000D03*
X154659500Y-92329000D03*
%TD*%
D13*
%TO.C,R13*%
X134509000Y-98425000D03*
X136509000Y-98425000D03*
%TD*%
D14*
%TO.C,C5*%
X139546500Y-80137000D03*
X137821500Y-80137000D03*
%TD*%
D12*
%TO.C,R7*%
X133731000Y-114570000D03*
X133731000Y-116570000D03*
%TD*%
D13*
%TO.C,R8*%
X131985000Y-82423000D03*
X133985000Y-82423000D03*
%TD*%
D33*
%TO.C,J1*%
X122312500Y-62250000D03*
X122312500Y-63750000D03*
X122312500Y-65250000D03*
X122312500Y-66750000D03*
D34*
X118712500Y-60300000D03*
X118712500Y-68700000D03*
%TD*%
D35*
%TO.C,J7*%
X146276000Y-66232000D03*
D36*
X142776000Y-66232000D03*
%TD*%
D12*
%TO.C,R9*%
X131699000Y-114570000D03*
X131699000Y-116570000D03*
%TD*%
D17*
%TO.C,J5*%
X162244000Y-105410000D03*
D18*
X164784000Y-105410000D03*
X162244000Y-107950000D03*
X164784000Y-107950000D03*
X162244000Y-110490000D03*
X164784000Y-110490000D03*
X162244000Y-113030000D03*
X164784000Y-113030000D03*
X162244000Y-115570000D03*
X164784000Y-115570000D03*
X162244000Y-118110000D03*
X164784000Y-118110000D03*
%TD*%
D30*
%TO.C,C33*%
X148844000Y-105812500D03*
X148844000Y-103737500D03*
%TD*%
D22*
%TO.C,RN2*%
X156834000Y-89097000D03*
D23*
X156834000Y-89897000D03*
X156834000Y-90697000D03*
D22*
X156834000Y-91497000D03*
X158634000Y-91497000D03*
D23*
X158634000Y-90697000D03*
X158634000Y-89897000D03*
D22*
X158634000Y-89097000D03*
%TD*%
D13*
%TO.C,R21*%
X161280600Y-99339400D03*
X163280600Y-99339400D03*
%TD*%
%TO.C,R12*%
X134509000Y-94869000D03*
X136509000Y-94869000D03*
%TD*%
D16*
%TO.C,R5*%
X148209000Y-112776000D03*
X148209000Y-110776000D03*
%TD*%
D37*
%TO.C,J6*%
X121219500Y-102962000D03*
X121219500Y-103462000D03*
X121219500Y-103962000D03*
X121219500Y-104462000D03*
X121219500Y-104962000D03*
X121219500Y-105462000D03*
X121219500Y-105962000D03*
X121219500Y-106462000D03*
X121219500Y-106962000D03*
X121219500Y-107462000D03*
X121219500Y-107962000D03*
X121219500Y-108462000D03*
X121219500Y-108962000D03*
X121219500Y-109462000D03*
X121219500Y-109962000D03*
X121219500Y-110462000D03*
X121219500Y-110962000D03*
X121219500Y-111462000D03*
X121219500Y-111962000D03*
X121219500Y-112462000D03*
X121219500Y-112962000D03*
X121219500Y-113462000D03*
X121219500Y-113962000D03*
X121219500Y-114462000D03*
D38*
X119519500Y-101292000D03*
X119519500Y-116132000D03*
%TD*%
D39*
%TO.C,U2*%
X151243000Y-106909000D03*
X153543000Y-106909000D03*
D40*
X153543000Y-100609000D03*
D39*
X155843000Y-106909000D03*
%TD*%
D15*
%TO.C,C26*%
X131090500Y-67945000D03*
X132815500Y-67945000D03*
%TD*%
D22*
%TO.C,RN1*%
X156834000Y-66237000D03*
D23*
X156834000Y-67037000D03*
X156834000Y-67837000D03*
D22*
X156834000Y-68637000D03*
X158634000Y-68637000D03*
D23*
X158634000Y-67837000D03*
X158634000Y-67037000D03*
D22*
X158634000Y-66237000D03*
%TD*%
D15*
%TO.C,C21*%
X134519500Y-93091000D03*
X136244500Y-93091000D03*
%TD*%
D41*
%TO.C,F1*%
X150904000Y-65090000D03*
X150904000Y-60640000D03*
%TD*%
D15*
%TO.C,C20*%
X134519500Y-89535000D03*
X136244500Y-89535000D03*
%TD*%
%TO.C,C18*%
X131995500Y-80645000D03*
X133720500Y-80645000D03*
%TD*%
D27*
%TO.C,R18*%
X146431000Y-102766500D03*
X146431000Y-100941500D03*
%TD*%
D42*
%TO.C,C31*%
X131318000Y-103347500D03*
X131318000Y-107472500D03*
%TD*%
D15*
%TO.C,C16*%
X155220500Y-85598000D03*
X156945500Y-85598000D03*
%TD*%
D19*
%TO.C,C2*%
X163195000Y-76861500D03*
X163195000Y-78586500D03*
%TD*%
D15*
%TO.C,C27*%
X135154500Y-106299000D03*
X136879500Y-106299000D03*
%TD*%
D19*
%TO.C,C11*%
X146558000Y-97308500D03*
X146558000Y-99033500D03*
%TD*%
D15*
%TO.C,C25*%
X135154500Y-104775000D03*
X136879500Y-104775000D03*
%TD*%
%TO.C,C3*%
X137821500Y-81661000D03*
X139546500Y-81661000D03*
%TD*%
M02*
