M48
; DRILL file {KiCad (5.99.0-12717-g57c7d663b0)} date Fri Oct 22 19:22:46 2021
; FORMAT={-:-/ absolute / inch / decimal}
; #@! TF.CreationDate,2021-10-22T19:22:46+02:00
; #@! TF.GenerationSoftware,Kicad,Pcbnew,(5.99.0-12717-g57c7d663b0)
; #@! TF.FileFunction,Plated,1,4,PTH
FMAT,2
INCH
; #@! TA.AperFunction,Plated,PTH,ViaDrill
T1C0.0157
; #@! TA.AperFunction,Plated,PTH,ComponentDrill
T2C0.0315
; #@! TA.AperFunction,Plated,PTH,ComponentDrill
T3C0.0394
; #@! TA.AperFunction,Plated,PTH,ComponentDrill
T4C0.0472
%
G90
G05
T1
X4.5472Y-2.3327
X4.5472Y-2.7264
X4.5472Y-4.4488
X4.6063Y-4.5768
X4.6166Y-3.0812
X4.63Y-4.665
X4.665Y-2.76
X4.685Y-2.9724
X4.685Y-4.0846
X4.7047Y-3.2874
X4.7047Y-3.5039
X4.7047Y-3.8976
X4.705Y-4.19
X4.705Y-4.23
X4.705Y-4.27
X4.705Y-4.31
X4.705Y-4.345
X4.705Y-4.385
X4.705Y-4.425
X4.705Y-4.5
X4.7244Y-2.5098
X4.7244Y-2.628
X4.7638Y-3.0906
X4.775Y-4.665
X4.84Y-4.29
X4.845Y-4.455
X4.845Y-4.5
X4.885Y-3.405
X4.91Y-4.33
X4.9213Y-3.1693
X4.9311Y-3.0512
X4.9508Y-2.4213
X4.975Y-4.25
X5.0394Y-3.4154
X5.0394Y-3.7402
X5.04Y-4.21
X5.0492Y-2.5295
X5.05Y-3.92
X5.0787Y-4.7047
X5.0886Y-2.5295
X5.0886Y-4.3307
X5.0886Y-4.4783
X5.0984Y-3.5925
X5.11Y-2.97
X5.128Y-3.1299
X5.1378Y-3.245
X5.1378Y-3.3169
X5.2256Y-4.5894
X5.235Y-3.735
X5.235Y-3.875
X5.3Y-2.955
X5.32Y-4.23
X5.32Y-4.275
X5.325Y-3.035
X5.325Y-3.385
X5.326Y-3.331
X5.3535Y-3.1
X5.3552Y-3.2848
X5.371Y-3.416
X5.4073Y-3.5573
X5.4165Y-3.735
X5.425Y-3.875
X5.426Y-3.124
X5.439Y-3.421
X5.44Y-3.01
X5.4441Y-3.2717
X5.451Y-4.126
X5.452Y-4.185
X5.494Y-3.126
X5.505Y-2.625
X5.505Y-2.8
X5.505Y-3.9
X5.53Y-3.71
X5.5345Y-3.0845
X5.555Y-3.165
X5.575Y-4.045
X5.59Y-3.47
X5.6315Y-3.58
X5.6348Y-3.745
X5.67Y-4.31
X5.685Y-3.13
X5.7096Y-4.5904
X5.7295Y-3.78
X5.73Y-3.73
X5.735Y-3.28
X5.75Y-4.31
X5.7686Y-3.1426
X5.7697Y-3.053
X5.78Y-3.58
X5.795Y-3.79
X5.7954Y-4.5904
X5.8Y-3.46
X5.801Y-3.899
X5.81Y-3.25
X5.83Y-4.31
X5.8796Y-4.5904
X5.886Y-3.877
X5.888Y-3.967
X5.888Y-4.036
X5.889Y-4.24
X5.89Y-3.33
X5.89Y-3.37
X5.9Y-2.6037
X5.9Y-2.645
X5.905Y-3.425
X5.905Y-3.51
X5.905Y-3.56
X5.926Y-4.191
X5.9265Y-2.985
X5.93Y-4.24
X5.97Y-4.3323
X5.985Y-3.7634
X5.9884Y-4.6492
X5.9941Y-4.4193
X6.01Y-3.925
X6.014Y-3.0964
X6.022Y-4.348
X6.032Y-3.886
X6.045Y-3.37
X6.045Y-4.052
X6.0505Y-4.379
X6.055Y-3.925
X6.0698Y-3.7598
X6.0729Y-3.5871
X6.079Y-2.496
X6.079Y-4.442
X6.089Y-3.664
X6.096Y-4.53
X6.109Y-4.41
X6.11Y-3.935
X6.11Y-3.99
X6.175Y-3.205
X6.175Y-3.925
X6.175Y-4.65
X6.178Y-3.993
X6.179Y-3.401
X6.205Y-3.655
X6.21Y-2.565
X6.21Y-2.75
X6.21Y-2.96
X6.21Y-3.86
X6.2205Y-4.5571
X6.2265Y-3.0265
X6.2265Y-3.0935
X6.23Y-4.65
X6.255Y-4.105
X6.296Y-3.911
X6.297Y-3.989
X6.3064Y-2.9827
X6.31Y-4.255
X6.469Y-3.094
X6.537Y-3.949
X6.5945Y-2.3524
X6.5945Y-2.8445
X6.5945Y-3.248
X6.5945Y-3.75
X6.5945Y-4.4488
X6.5945Y-4.6457
T2
X5.4152Y-4.2817
X5.4152Y-4.5817
X5.5152Y-4.2817
X5.5152Y-4.5817
T3
X6.3876Y-2.35
X6.3876Y-2.45
X6.3876Y-2.55
X6.3876Y-2.65
X6.3876Y-2.75
X6.3876Y-2.85
X6.3876Y-3.25
X6.3876Y-3.35
X6.3876Y-3.45
X6.3876Y-3.55
X6.3876Y-3.65
X6.3876Y-3.75
X6.3876Y-4.15
X6.3876Y-4.25
X6.3876Y-4.35
X6.3876Y-4.45
X6.3876Y-4.55
X6.3876Y-4.65
X6.4876Y-2.35
X6.4876Y-2.45
X6.4876Y-2.55
X6.4876Y-2.65
X6.4876Y-2.75
X6.4876Y-2.85
X6.4876Y-3.25
X6.4876Y-3.35
X6.4876Y-3.45
X6.4876Y-3.55
X6.4876Y-3.65
X6.4876Y-3.75
X6.4876Y-4.15
X6.4876Y-4.25
X6.4876Y-4.35
X6.4876Y-4.45
X6.4876Y-4.55
X6.4876Y-4.65
T4
X5.6211Y-2.6076
X5.7589Y-2.6076
T0
M30
