%TF.GenerationSoftware,KiCad,Pcbnew,(5.99.0-12717-g57c7d663b0)*%
%TF.CreationDate,2021-10-22T19:22:42+02:00*%
%TF.ProjectId,video_converter,76696465-6f5f-4636-9f6e-766572746572,rev?*%
%TF.SameCoordinates,Original*%
%TF.FileFunction,Soldermask,Bot*%
%TF.FilePolarity,Negative*%
%FSLAX46Y46*%
G04 Gerber Fmt 4.6, Leading zero omitted, Abs format (unit mm)*
G04 Created by KiCad (PCBNEW (5.99.0-12717-g57c7d663b0)) date 2021-10-22 19:22:42*
%MOMM*%
%LPD*%
G01*
G04 APERTURE LIST*
%ADD10R,1.700000X1.700000*%
%ADD11O,1.700000X1.700000*%
%ADD12R,1.600000X1.600000*%
%ADD13O,1.600000X1.600000*%
%ADD14R,2.400000X2.400000*%
%ADD15C,2.400000*%
G04 APERTURE END LIST*
D10*
%TO.C,J3*%
X162244000Y-59690000D03*
D11*
X164784000Y-59690000D03*
X162244000Y-62230000D03*
X164784000Y-62230000D03*
X162244000Y-64770000D03*
X164784000Y-64770000D03*
X162244000Y-67310000D03*
X164784000Y-67310000D03*
X162244000Y-69850000D03*
X164784000Y-69850000D03*
X162244000Y-72390000D03*
X164784000Y-72390000D03*
%TD*%
D12*
%TO.C,SW1*%
X140086000Y-108754500D03*
D13*
X137546000Y-108754500D03*
X137546000Y-116374500D03*
X140086000Y-116374500D03*
%TD*%
D10*
%TO.C,J4*%
X162244000Y-82550000D03*
D11*
X164784000Y-82550000D03*
X162244000Y-85090000D03*
X164784000Y-85090000D03*
X162244000Y-87630000D03*
X164784000Y-87630000D03*
X162244000Y-90170000D03*
X164784000Y-90170000D03*
X162244000Y-92710000D03*
X164784000Y-92710000D03*
X162244000Y-95250000D03*
X164784000Y-95250000D03*
%TD*%
D14*
%TO.C,J7*%
X146276000Y-66232000D03*
D15*
X142776000Y-66232000D03*
%TD*%
D10*
%TO.C,J5*%
X162244000Y-105410000D03*
D11*
X164784000Y-105410000D03*
X162244000Y-107950000D03*
X164784000Y-107950000D03*
X162244000Y-110490000D03*
X164784000Y-110490000D03*
X162244000Y-113030000D03*
X164784000Y-113030000D03*
X162244000Y-115570000D03*
X164784000Y-115570000D03*
X162244000Y-118110000D03*
X164784000Y-118110000D03*
%TD*%
M02*
