%TF.GenerationSoftware,KiCad,Pcbnew,(5.99.0-12717-g57c7d663b0)*%
%TF.CreationDate,2021-10-22T19:22:42+02:00*%
%TF.ProjectId,video_converter,76696465-6f5f-4636-9f6e-766572746572,rev?*%
%TF.SameCoordinates,Original*%
%TF.FileFunction,Legend,Top*%
%TF.FilePolarity,Positive*%
%FSLAX46Y46*%
G04 Gerber Fmt 4.6, Leading zero omitted, Abs format (unit mm)*
G04 Created by KiCad (PCBNEW (5.99.0-12717-g57c7d663b0)) date 2021-10-22 19:22:42*
%MOMM*%
%LPD*%
G01*
G04 APERTURE LIST*
%ADD10C,0.150000*%
%ADD11C,0.300000*%
%ADD12C,0.120000*%
%ADD13C,0.152400*%
%ADD14C,0.127000*%
%ADD15C,0.200000*%
G04 APERTURE END LIST*
D10*
X127635000Y-90297000D02*
X115062000Y-90297000D01*
X127635000Y-69977000D02*
X127635000Y-90297000D01*
X127635000Y-96520000D02*
X127635000Y-120142000D01*
X127635000Y-96520000D02*
X115062000Y-96520000D01*
X127635000Y-57785000D02*
X127635000Y-69977000D01*
D11*
X139291285Y-62405000D02*
X139219857Y-62333571D01*
X139148428Y-62119285D01*
X139148428Y-61976428D01*
X139219857Y-61762142D01*
X139362714Y-61619285D01*
X139505571Y-61547857D01*
X139791285Y-61476428D01*
X140005571Y-61476428D01*
X140291285Y-61547857D01*
X140434142Y-61619285D01*
X140577000Y-61762142D01*
X140648428Y-61976428D01*
X140648428Y-62119285D01*
X140577000Y-62333571D01*
X140505571Y-62405000D01*
X139148428Y-63690714D02*
X139934142Y-63690714D01*
X140077000Y-63619285D01*
X140148428Y-63476428D01*
X140148428Y-63190714D01*
X140077000Y-63047857D01*
X139219857Y-63690714D02*
X139148428Y-63547857D01*
X139148428Y-63190714D01*
X139219857Y-63047857D01*
X139362714Y-62976428D01*
X139505571Y-62976428D01*
X139648428Y-63047857D01*
X139719857Y-63190714D01*
X139719857Y-63547857D01*
X139791285Y-63690714D01*
X139148428Y-64405000D02*
X140148428Y-64405000D01*
X140005571Y-64405000D02*
X140077000Y-64476428D01*
X140148428Y-64619285D01*
X140148428Y-64833571D01*
X140077000Y-64976428D01*
X139934142Y-65047857D01*
X139148428Y-65047857D01*
X139934142Y-65047857D02*
X140077000Y-65119285D01*
X140148428Y-65262142D01*
X140148428Y-65476428D01*
X140077000Y-65619285D01*
X139934142Y-65690714D01*
X139148428Y-65690714D01*
X139219857Y-66976428D02*
X139148428Y-66833571D01*
X139148428Y-66547857D01*
X139219857Y-66405000D01*
X139362714Y-66333571D01*
X139934142Y-66333571D01*
X140077000Y-66405000D01*
X140148428Y-66547857D01*
X140148428Y-66833571D01*
X140077000Y-66976428D01*
X139934142Y-67047857D01*
X139791285Y-67047857D01*
X139648428Y-66333571D01*
X139148428Y-67690714D02*
X140148428Y-67690714D01*
X139862714Y-67690714D02*
X140005571Y-67762142D01*
X140077000Y-67833571D01*
X140148428Y-67976428D01*
X140148428Y-68119285D01*
X139148428Y-69262142D02*
X139934142Y-69262142D01*
X140077000Y-69190714D01*
X140148428Y-69047857D01*
X140148428Y-68762142D01*
X140077000Y-68619285D01*
X139219857Y-69262142D02*
X139148428Y-69119285D01*
X139148428Y-68762142D01*
X139219857Y-68619285D01*
X139362714Y-68547857D01*
X139505571Y-68547857D01*
X139648428Y-68619285D01*
X139719857Y-68762142D01*
X139719857Y-69119285D01*
X139791285Y-69262142D01*
X138743428Y-62762142D02*
X138743428Y-62476428D01*
X138672000Y-62333571D01*
X138600571Y-62262142D01*
X138386285Y-62119285D01*
X138100571Y-62047857D01*
X137529142Y-62047857D01*
X137386285Y-62119285D01*
X137314857Y-62190714D01*
X137243428Y-62333571D01*
X137243428Y-62619285D01*
X137314857Y-62762142D01*
X137386285Y-62833571D01*
X137529142Y-62905000D01*
X137886285Y-62905000D01*
X138029142Y-62833571D01*
X138100571Y-62762142D01*
X138172000Y-62619285D01*
X138172000Y-62333571D01*
X138100571Y-62190714D01*
X138029142Y-62119285D01*
X137886285Y-62047857D01*
X137814857Y-63547857D02*
X137814857Y-64690714D01*
X137243428Y-66190714D02*
X137243428Y-65333571D01*
X137243428Y-65762142D02*
X138743428Y-65762142D01*
X138529142Y-65619285D01*
X138386285Y-65476428D01*
X138314857Y-65333571D01*
X138600571Y-66762142D02*
X138672000Y-66833571D01*
X138743428Y-66976428D01*
X138743428Y-67333571D01*
X138672000Y-67476428D01*
X138600571Y-67547857D01*
X138457714Y-67619285D01*
X138314857Y-67619285D01*
X138100571Y-67547857D01*
X137243428Y-66690714D01*
X137243428Y-67619285D01*
X138243428Y-68119285D02*
X137243428Y-68476428D01*
X138243428Y-68833571D01*
X142010142Y-60305142D02*
X143153000Y-60305142D01*
X146153000Y-60305142D02*
X147295857Y-60305142D01*
X146724428Y-60876571D02*
X146724428Y-59733714D01*
D10*
X126214238Y-97624142D02*
X126166619Y-97528904D01*
X126166619Y-97338428D01*
X126214238Y-97243190D01*
X126261857Y-97195571D01*
X126357095Y-97147952D01*
X126642809Y-97147952D01*
X126738047Y-97195571D01*
X126785666Y-97243190D01*
X126833285Y-97338428D01*
X126833285Y-97528904D01*
X126785666Y-97624142D01*
X126166619Y-98195571D02*
X126214238Y-98100333D01*
X126261857Y-98052714D01*
X126357095Y-98005095D01*
X126642809Y-98005095D01*
X126738047Y-98052714D01*
X126785666Y-98100333D01*
X126833285Y-98195571D01*
X126833285Y-98338428D01*
X126785666Y-98433666D01*
X126738047Y-98481285D01*
X126642809Y-98528904D01*
X126357095Y-98528904D01*
X126261857Y-98481285D01*
X126214238Y-98433666D01*
X126166619Y-98338428D01*
X126166619Y-98195571D01*
X126166619Y-98957476D02*
X126833285Y-98957476D01*
X126738047Y-98957476D02*
X126785666Y-99005095D01*
X126833285Y-99100333D01*
X126833285Y-99243190D01*
X126785666Y-99338428D01*
X126690428Y-99386047D01*
X126166619Y-99386047D01*
X126690428Y-99386047D02*
X126785666Y-99433666D01*
X126833285Y-99528904D01*
X126833285Y-99671761D01*
X126785666Y-99767000D01*
X126690428Y-99814619D01*
X126166619Y-99814619D01*
X126833285Y-100290809D02*
X125833285Y-100290809D01*
X126785666Y-100290809D02*
X126833285Y-100386047D01*
X126833285Y-100576523D01*
X126785666Y-100671761D01*
X126738047Y-100719380D01*
X126642809Y-100767000D01*
X126357095Y-100767000D01*
X126261857Y-100719380D01*
X126214238Y-100671761D01*
X126166619Y-100576523D01*
X126166619Y-100386047D01*
X126214238Y-100290809D01*
X126166619Y-101338428D02*
X126214238Y-101243190D01*
X126261857Y-101195571D01*
X126357095Y-101147952D01*
X126642809Y-101147952D01*
X126738047Y-101195571D01*
X126785666Y-101243190D01*
X126833285Y-101338428D01*
X126833285Y-101481285D01*
X126785666Y-101576523D01*
X126738047Y-101624142D01*
X126642809Y-101671761D01*
X126357095Y-101671761D01*
X126261857Y-101624142D01*
X126214238Y-101576523D01*
X126166619Y-101481285D01*
X126166619Y-101338428D01*
X126833285Y-102100333D02*
X126166619Y-102100333D01*
X126738047Y-102100333D02*
X126785666Y-102147952D01*
X126833285Y-102243190D01*
X126833285Y-102386047D01*
X126785666Y-102481285D01*
X126690428Y-102528904D01*
X126166619Y-102528904D01*
X126214238Y-103386047D02*
X126166619Y-103290809D01*
X126166619Y-103100333D01*
X126214238Y-103005095D01*
X126309476Y-102957476D01*
X126690428Y-102957476D01*
X126785666Y-103005095D01*
X126833285Y-103100333D01*
X126833285Y-103290809D01*
X126785666Y-103386047D01*
X126690428Y-103433666D01*
X126595190Y-103433666D01*
X126499952Y-102957476D01*
X126833285Y-103862238D02*
X126166619Y-103862238D01*
X126738047Y-103862238D02*
X126785666Y-103909857D01*
X126833285Y-104005095D01*
X126833285Y-104147952D01*
X126785666Y-104243190D01*
X126690428Y-104290809D01*
X126166619Y-104290809D01*
X126833285Y-104624142D02*
X126833285Y-105005095D01*
X127166619Y-104767000D02*
X126309476Y-104767000D01*
X126214238Y-104814619D01*
X126166619Y-104909857D01*
X126166619Y-105005095D01*
X125785666Y-106386047D02*
X125833285Y-106338428D01*
X125976142Y-106243190D01*
X126071380Y-106195571D01*
X126214238Y-106147952D01*
X126452333Y-106100333D01*
X126642809Y-106100333D01*
X126880904Y-106147952D01*
X127023761Y-106195571D01*
X127119000Y-106243190D01*
X127261857Y-106338428D01*
X127309476Y-106386047D01*
X126642809Y-106957476D02*
X126166619Y-106957476D01*
X127166619Y-106624142D02*
X126642809Y-106957476D01*
X127166619Y-107290809D01*
X126261857Y-108195571D02*
X126214238Y-108147952D01*
X126166619Y-108005095D01*
X126166619Y-107909857D01*
X126214238Y-107767000D01*
X126309476Y-107671761D01*
X126404714Y-107624142D01*
X126595190Y-107576523D01*
X126738047Y-107576523D01*
X126928523Y-107624142D01*
X127023761Y-107671761D01*
X127119000Y-107767000D01*
X127166619Y-107909857D01*
X127166619Y-108005095D01*
X127119000Y-108147952D01*
X127071380Y-108195571D01*
X126166619Y-108624142D02*
X127166619Y-108624142D01*
X126785666Y-108624142D02*
X126833285Y-108719380D01*
X126833285Y-108909857D01*
X126785666Y-109005095D01*
X126738047Y-109052714D01*
X126642809Y-109100333D01*
X126357095Y-109100333D01*
X126261857Y-109052714D01*
X126214238Y-109005095D01*
X126166619Y-108909857D01*
X126166619Y-108719380D01*
X126214238Y-108624142D01*
X126261857Y-110100333D02*
X126214238Y-110052714D01*
X126166619Y-109909857D01*
X126166619Y-109814619D01*
X126214238Y-109671761D01*
X126309476Y-109576523D01*
X126404714Y-109528904D01*
X126595190Y-109481285D01*
X126738047Y-109481285D01*
X126928523Y-109528904D01*
X127023761Y-109576523D01*
X127119000Y-109671761D01*
X127166619Y-109814619D01*
X127166619Y-109909857D01*
X127119000Y-110052714D01*
X127071380Y-110100333D01*
X126166619Y-110528904D02*
X126833285Y-110528904D01*
X126642809Y-110528904D02*
X126738047Y-110576523D01*
X126785666Y-110624142D01*
X126833285Y-110719380D01*
X126833285Y-110814619D01*
X125785666Y-111052714D02*
X125833285Y-111100333D01*
X125976142Y-111195571D01*
X126071380Y-111243190D01*
X126214238Y-111290809D01*
X126452333Y-111338428D01*
X126642809Y-111338428D01*
X126880904Y-111290809D01*
X127023761Y-111243190D01*
X127119000Y-111195571D01*
X127261857Y-111100333D01*
X127309476Y-111052714D01*
X126341238Y-72152904D02*
X126293619Y-72057666D01*
X126293619Y-71867190D01*
X126341238Y-71771952D01*
X126388857Y-71724333D01*
X126484095Y-71676714D01*
X126769809Y-71676714D01*
X126865047Y-71724333D01*
X126912666Y-71771952D01*
X126960285Y-71867190D01*
X126960285Y-72057666D01*
X126912666Y-72152904D01*
X126293619Y-72724333D02*
X126341238Y-72629095D01*
X126388857Y-72581476D01*
X126484095Y-72533857D01*
X126769809Y-72533857D01*
X126865047Y-72581476D01*
X126912666Y-72629095D01*
X126960285Y-72724333D01*
X126960285Y-72867190D01*
X126912666Y-72962428D01*
X126865047Y-73010047D01*
X126769809Y-73057666D01*
X126484095Y-73057666D01*
X126388857Y-73010047D01*
X126341238Y-72962428D01*
X126293619Y-72867190D01*
X126293619Y-72724333D01*
X126293619Y-73486238D02*
X126960285Y-73486238D01*
X126865047Y-73486238D02*
X126912666Y-73533857D01*
X126960285Y-73629095D01*
X126960285Y-73771952D01*
X126912666Y-73867190D01*
X126817428Y-73914809D01*
X126293619Y-73914809D01*
X126817428Y-73914809D02*
X126912666Y-73962428D01*
X126960285Y-74057666D01*
X126960285Y-74200523D01*
X126912666Y-74295761D01*
X126817428Y-74343380D01*
X126293619Y-74343380D01*
X126960285Y-74819571D02*
X125960285Y-74819571D01*
X126912666Y-74819571D02*
X126960285Y-74914809D01*
X126960285Y-75105285D01*
X126912666Y-75200523D01*
X126865047Y-75248142D01*
X126769809Y-75295761D01*
X126484095Y-75295761D01*
X126388857Y-75248142D01*
X126341238Y-75200523D01*
X126293619Y-75105285D01*
X126293619Y-74914809D01*
X126341238Y-74819571D01*
X126293619Y-75867190D02*
X126341238Y-75771952D01*
X126388857Y-75724333D01*
X126484095Y-75676714D01*
X126769809Y-75676714D01*
X126865047Y-75724333D01*
X126912666Y-75771952D01*
X126960285Y-75867190D01*
X126960285Y-76010047D01*
X126912666Y-76105285D01*
X126865047Y-76152904D01*
X126769809Y-76200523D01*
X126484095Y-76200523D01*
X126388857Y-76152904D01*
X126341238Y-76105285D01*
X126293619Y-76010047D01*
X126293619Y-75867190D01*
X126341238Y-76581476D02*
X126293619Y-76676714D01*
X126293619Y-76867190D01*
X126341238Y-76962428D01*
X126436476Y-77010047D01*
X126484095Y-77010047D01*
X126579333Y-76962428D01*
X126626952Y-76867190D01*
X126626952Y-76724333D01*
X126674571Y-76629095D01*
X126769809Y-76581476D01*
X126817428Y-76581476D01*
X126912666Y-76629095D01*
X126960285Y-76724333D01*
X126960285Y-76867190D01*
X126912666Y-76962428D01*
X126293619Y-77438619D02*
X126960285Y-77438619D01*
X127293619Y-77438619D02*
X127246000Y-77391000D01*
X127198380Y-77438619D01*
X127246000Y-77486238D01*
X127293619Y-77438619D01*
X127198380Y-77438619D01*
X126960285Y-77771952D02*
X126960285Y-78152904D01*
X127293619Y-77914809D02*
X126436476Y-77914809D01*
X126341238Y-77962428D01*
X126293619Y-78057666D01*
X126293619Y-78152904D01*
X126341238Y-78867190D02*
X126293619Y-78771952D01*
X126293619Y-78581476D01*
X126341238Y-78486238D01*
X126436476Y-78438619D01*
X126817428Y-78438619D01*
X126912666Y-78486238D01*
X126960285Y-78581476D01*
X126960285Y-78771952D01*
X126912666Y-78867190D01*
X126817428Y-78914809D01*
X126722190Y-78914809D01*
X126626952Y-78438619D01*
X126293619Y-80533857D02*
X126817428Y-80533857D01*
X126912666Y-80486238D01*
X126960285Y-80391000D01*
X126960285Y-80200523D01*
X126912666Y-80105285D01*
X126341238Y-80533857D02*
X126293619Y-80438619D01*
X126293619Y-80200523D01*
X126341238Y-80105285D01*
X126436476Y-80057666D01*
X126531714Y-80057666D01*
X126626952Y-80105285D01*
X126674571Y-80200523D01*
X126674571Y-80438619D01*
X126722190Y-80533857D01*
X126960285Y-81010047D02*
X126293619Y-81010047D01*
X126865047Y-81010047D02*
X126912666Y-81057666D01*
X126960285Y-81152904D01*
X126960285Y-81295761D01*
X126912666Y-81391000D01*
X126817428Y-81438619D01*
X126293619Y-81438619D01*
X126293619Y-82343380D02*
X127293619Y-82343380D01*
X126341238Y-82343380D02*
X126293619Y-82248142D01*
X126293619Y-82057666D01*
X126341238Y-81962428D01*
X126388857Y-81914809D01*
X126484095Y-81867190D01*
X126769809Y-81867190D01*
X126865047Y-81914809D01*
X126912666Y-81962428D01*
X126960285Y-82057666D01*
X126960285Y-82248142D01*
X126912666Y-82343380D01*
X126341238Y-83533857D02*
X126293619Y-83629095D01*
X126293619Y-83819571D01*
X126341238Y-83914809D01*
X126436476Y-83962428D01*
X126484095Y-83962428D01*
X126579333Y-83914809D01*
X126626952Y-83819571D01*
X126626952Y-83676714D01*
X126674571Y-83581476D01*
X126769809Y-83533857D01*
X126817428Y-83533857D01*
X126912666Y-83581476D01*
X126960285Y-83676714D01*
X126960285Y-83819571D01*
X126912666Y-83914809D01*
X126674571Y-84391000D02*
X126674571Y-85152904D01*
X126960285Y-85533857D02*
X126293619Y-85771952D01*
X126960285Y-86010047D01*
X126293619Y-86391000D02*
X126960285Y-86391000D01*
X127293619Y-86391000D02*
X127246000Y-86343380D01*
X127198380Y-86391000D01*
X127246000Y-86438619D01*
X127293619Y-86391000D01*
X127198380Y-86391000D01*
X126293619Y-87295761D02*
X127293619Y-87295761D01*
X126341238Y-87295761D02*
X126293619Y-87200523D01*
X126293619Y-87010047D01*
X126341238Y-86914809D01*
X126388857Y-86867190D01*
X126484095Y-86819571D01*
X126769809Y-86819571D01*
X126865047Y-86867190D01*
X126912666Y-86914809D01*
X126960285Y-87010047D01*
X126960285Y-87200523D01*
X126912666Y-87295761D01*
X126341238Y-88152904D02*
X126293619Y-88057666D01*
X126293619Y-87867190D01*
X126341238Y-87771952D01*
X126436476Y-87724333D01*
X126817428Y-87724333D01*
X126912666Y-87771952D01*
X126960285Y-87867190D01*
X126960285Y-88057666D01*
X126912666Y-88152904D01*
X126817428Y-88200523D01*
X126722190Y-88200523D01*
X126626952Y-87724333D01*
X126293619Y-88771952D02*
X126341238Y-88676714D01*
X126388857Y-88629095D01*
X126484095Y-88581476D01*
X126769809Y-88581476D01*
X126865047Y-88629095D01*
X126912666Y-88676714D01*
X126960285Y-88771952D01*
X126960285Y-88914809D01*
X126912666Y-89010047D01*
X126865047Y-89057666D01*
X126769809Y-89105285D01*
X126484095Y-89105285D01*
X126388857Y-89057666D01*
X126341238Y-89010047D01*
X126293619Y-88914809D01*
X126293619Y-88771952D01*
%TO.C,J2*%
X118732880Y-79325333D02*
X119447166Y-79325333D01*
X119590023Y-79372952D01*
X119685261Y-79468190D01*
X119732880Y-79611047D01*
X119732880Y-79706285D01*
X118828119Y-78896761D02*
X118780500Y-78849142D01*
X118732880Y-78753904D01*
X118732880Y-78515809D01*
X118780500Y-78420571D01*
X118828119Y-78372952D01*
X118923357Y-78325333D01*
X119018595Y-78325333D01*
X119161452Y-78372952D01*
X119732880Y-78944380D01*
X119732880Y-78325333D01*
%TO.C,R16*%
X155468580Y-115196857D02*
X154992390Y-115530190D01*
X155468580Y-115768285D02*
X154468580Y-115768285D01*
X154468580Y-115387333D01*
X154516200Y-115292095D01*
X154563819Y-115244476D01*
X154659057Y-115196857D01*
X154801914Y-115196857D01*
X154897152Y-115244476D01*
X154944771Y-115292095D01*
X154992390Y-115387333D01*
X154992390Y-115768285D01*
X155468580Y-114244476D02*
X155468580Y-114815904D01*
X155468580Y-114530190D02*
X154468580Y-114530190D01*
X154611438Y-114625428D01*
X154706676Y-114720666D01*
X154754295Y-114815904D01*
X154468580Y-113387333D02*
X154468580Y-113577809D01*
X154516200Y-113673047D01*
X154563819Y-113720666D01*
X154706676Y-113815904D01*
X154897152Y-113863523D01*
X155278104Y-113863523D01*
X155373342Y-113815904D01*
X155420961Y-113768285D01*
X155468580Y-113673047D01*
X155468580Y-113482571D01*
X155420961Y-113387333D01*
X155373342Y-113339714D01*
X155278104Y-113292095D01*
X155040009Y-113292095D01*
X154944771Y-113339714D01*
X154897152Y-113387333D01*
X154849533Y-113482571D01*
X154849533Y-113673047D01*
X154897152Y-113768285D01*
X154944771Y-113815904D01*
X155040009Y-113863523D01*
%TO.C,R20*%
X164898342Y-101722180D02*
X164565009Y-101245990D01*
X164326914Y-101722180D02*
X164326914Y-100722180D01*
X164707866Y-100722180D01*
X164803104Y-100769800D01*
X164850723Y-100817419D01*
X164898342Y-100912657D01*
X164898342Y-101055514D01*
X164850723Y-101150752D01*
X164803104Y-101198371D01*
X164707866Y-101245990D01*
X164326914Y-101245990D01*
X165279295Y-100817419D02*
X165326914Y-100769800D01*
X165422152Y-100722180D01*
X165660247Y-100722180D01*
X165755485Y-100769800D01*
X165803104Y-100817419D01*
X165850723Y-100912657D01*
X165850723Y-101007895D01*
X165803104Y-101150752D01*
X165231676Y-101722180D01*
X165850723Y-101722180D01*
X166469771Y-100722180D02*
X166565009Y-100722180D01*
X166660247Y-100769800D01*
X166707866Y-100817419D01*
X166755485Y-100912657D01*
X166803104Y-101103133D01*
X166803104Y-101341228D01*
X166755485Y-101531704D01*
X166707866Y-101626942D01*
X166660247Y-101674561D01*
X166565009Y-101722180D01*
X166469771Y-101722180D01*
X166374533Y-101674561D01*
X166326914Y-101626942D01*
X166279295Y-101531704D01*
X166231676Y-101341228D01*
X166231676Y-101103133D01*
X166279295Y-100912657D01*
X166326914Y-100817419D01*
X166374533Y-100769800D01*
X166469771Y-100722180D01*
%TO.C,R10*%
X128997642Y-86431380D02*
X128664309Y-85955190D01*
X128426214Y-86431380D02*
X128426214Y-85431380D01*
X128807166Y-85431380D01*
X128902404Y-85479000D01*
X128950023Y-85526619D01*
X128997642Y-85621857D01*
X128997642Y-85764714D01*
X128950023Y-85859952D01*
X128902404Y-85907571D01*
X128807166Y-85955190D01*
X128426214Y-85955190D01*
X129950023Y-86431380D02*
X129378595Y-86431380D01*
X129664309Y-86431380D02*
X129664309Y-85431380D01*
X129569071Y-85574238D01*
X129473833Y-85669476D01*
X129378595Y-85717095D01*
X130569071Y-85431380D02*
X130664309Y-85431380D01*
X130759547Y-85479000D01*
X130807166Y-85526619D01*
X130854785Y-85621857D01*
X130902404Y-85812333D01*
X130902404Y-86050428D01*
X130854785Y-86240904D01*
X130807166Y-86336142D01*
X130759547Y-86383761D01*
X130664309Y-86431380D01*
X130569071Y-86431380D01*
X130473833Y-86383761D01*
X130426214Y-86336142D01*
X130378595Y-86240904D01*
X130330976Y-86050428D01*
X130330976Y-85812333D01*
X130378595Y-85621857D01*
X130426214Y-85526619D01*
X130473833Y-85479000D01*
X130569071Y-85431380D01*
%TO.C,C4*%
X136993333Y-85066142D02*
X136945714Y-85113761D01*
X136802857Y-85161380D01*
X136707619Y-85161380D01*
X136564761Y-85113761D01*
X136469523Y-85018523D01*
X136421904Y-84923285D01*
X136374285Y-84732809D01*
X136374285Y-84589952D01*
X136421904Y-84399476D01*
X136469523Y-84304238D01*
X136564761Y-84209000D01*
X136707619Y-84161380D01*
X136802857Y-84161380D01*
X136945714Y-84209000D01*
X136993333Y-84256619D01*
X137850476Y-84494714D02*
X137850476Y-85161380D01*
X137612380Y-84113761D02*
X137374285Y-84828047D01*
X137993333Y-84828047D01*
%TO.C,C24*%
X129105842Y-77476342D02*
X129058223Y-77523961D01*
X128915366Y-77571580D01*
X128820128Y-77571580D01*
X128677271Y-77523961D01*
X128582033Y-77428723D01*
X128534414Y-77333485D01*
X128486795Y-77143009D01*
X128486795Y-77000152D01*
X128534414Y-76809676D01*
X128582033Y-76714438D01*
X128677271Y-76619200D01*
X128820128Y-76571580D01*
X128915366Y-76571580D01*
X129058223Y-76619200D01*
X129105842Y-76666819D01*
X129486795Y-76666819D02*
X129534414Y-76619200D01*
X129629652Y-76571580D01*
X129867747Y-76571580D01*
X129962985Y-76619200D01*
X130010604Y-76666819D01*
X130058223Y-76762057D01*
X130058223Y-76857295D01*
X130010604Y-77000152D01*
X129439176Y-77571580D01*
X130058223Y-77571580D01*
X130915366Y-76904914D02*
X130915366Y-77571580D01*
X130677271Y-76523961D02*
X130439176Y-77238247D01*
X131058223Y-77238247D01*
%TO.C,R6*%
X150820380Y-109132666D02*
X150344190Y-109466000D01*
X150820380Y-109704095D02*
X149820380Y-109704095D01*
X149820380Y-109323142D01*
X149868000Y-109227904D01*
X149915619Y-109180285D01*
X150010857Y-109132666D01*
X150153714Y-109132666D01*
X150248952Y-109180285D01*
X150296571Y-109227904D01*
X150344190Y-109323142D01*
X150344190Y-109704095D01*
X149820380Y-108275523D02*
X149820380Y-108466000D01*
X149868000Y-108561238D01*
X149915619Y-108608857D01*
X150058476Y-108704095D01*
X150248952Y-108751714D01*
X150629904Y-108751714D01*
X150725142Y-108704095D01*
X150772761Y-108656476D01*
X150820380Y-108561238D01*
X150820380Y-108370761D01*
X150772761Y-108275523D01*
X150725142Y-108227904D01*
X150629904Y-108180285D01*
X150391809Y-108180285D01*
X150296571Y-108227904D01*
X150248952Y-108275523D01*
X150201333Y-108370761D01*
X150201333Y-108561238D01*
X150248952Y-108656476D01*
X150296571Y-108704095D01*
X150391809Y-108751714D01*
%TO.C,C17*%
X155440142Y-84558142D02*
X155392523Y-84605761D01*
X155249666Y-84653380D01*
X155154428Y-84653380D01*
X155011571Y-84605761D01*
X154916333Y-84510523D01*
X154868714Y-84415285D01*
X154821095Y-84224809D01*
X154821095Y-84081952D01*
X154868714Y-83891476D01*
X154916333Y-83796238D01*
X155011571Y-83701000D01*
X155154428Y-83653380D01*
X155249666Y-83653380D01*
X155392523Y-83701000D01*
X155440142Y-83748619D01*
X156392523Y-84653380D02*
X155821095Y-84653380D01*
X156106809Y-84653380D02*
X156106809Y-83653380D01*
X156011571Y-83796238D01*
X155916333Y-83891476D01*
X155821095Y-83939095D01*
X156725857Y-83653380D02*
X157392523Y-83653380D01*
X156963952Y-84653380D01*
%TO.C,J3*%
X159178666Y-59142380D02*
X159178666Y-59856666D01*
X159131047Y-59999523D01*
X159035809Y-60094761D01*
X158892952Y-60142380D01*
X158797714Y-60142380D01*
X159559619Y-59142380D02*
X160178666Y-59142380D01*
X159845333Y-59523333D01*
X159988190Y-59523333D01*
X160083428Y-59570952D01*
X160131047Y-59618571D01*
X160178666Y-59713809D01*
X160178666Y-59951904D01*
X160131047Y-60047142D01*
X160083428Y-60094761D01*
X159988190Y-60142380D01*
X159702476Y-60142380D01*
X159607238Y-60094761D01*
X159559619Y-60047142D01*
%TO.C,C13*%
X141708142Y-74302857D02*
X141755761Y-74350476D01*
X141803380Y-74493333D01*
X141803380Y-74588571D01*
X141755761Y-74731428D01*
X141660523Y-74826666D01*
X141565285Y-74874285D01*
X141374809Y-74921904D01*
X141231952Y-74921904D01*
X141041476Y-74874285D01*
X140946238Y-74826666D01*
X140851000Y-74731428D01*
X140803380Y-74588571D01*
X140803380Y-74493333D01*
X140851000Y-74350476D01*
X140898619Y-74302857D01*
X141803380Y-73350476D02*
X141803380Y-73921904D01*
X141803380Y-73636190D02*
X140803380Y-73636190D01*
X140946238Y-73731428D01*
X141041476Y-73826666D01*
X141089095Y-73921904D01*
X140803380Y-73017142D02*
X140803380Y-72398095D01*
X141184333Y-72731428D01*
X141184333Y-72588571D01*
X141231952Y-72493333D01*
X141279571Y-72445714D01*
X141374809Y-72398095D01*
X141612904Y-72398095D01*
X141708142Y-72445714D01*
X141755761Y-72493333D01*
X141803380Y-72588571D01*
X141803380Y-72874285D01*
X141755761Y-72969523D01*
X141708142Y-73017142D01*
%TO.C,SW1*%
X137604666Y-118768761D02*
X137747523Y-118816380D01*
X137985619Y-118816380D01*
X138080857Y-118768761D01*
X138128476Y-118721142D01*
X138176095Y-118625904D01*
X138176095Y-118530666D01*
X138128476Y-118435428D01*
X138080857Y-118387809D01*
X137985619Y-118340190D01*
X137795142Y-118292571D01*
X137699904Y-118244952D01*
X137652285Y-118197333D01*
X137604666Y-118102095D01*
X137604666Y-118006857D01*
X137652285Y-117911619D01*
X137699904Y-117864000D01*
X137795142Y-117816380D01*
X138033238Y-117816380D01*
X138176095Y-117864000D01*
X138509428Y-117816380D02*
X138747523Y-118816380D01*
X138938000Y-118102095D01*
X139128476Y-118816380D01*
X139366571Y-117816380D01*
X140271333Y-118816380D02*
X139699904Y-118816380D01*
X139985619Y-118816380D02*
X139985619Y-117816380D01*
X139890380Y-117959238D01*
X139795142Y-118054476D01*
X139699904Y-118102095D01*
%TO.C,RN3*%
X157043523Y-70296380D02*
X156710190Y-69820190D01*
X156472095Y-70296380D02*
X156472095Y-69296380D01*
X156853047Y-69296380D01*
X156948285Y-69344000D01*
X156995904Y-69391619D01*
X157043523Y-69486857D01*
X157043523Y-69629714D01*
X156995904Y-69724952D01*
X156948285Y-69772571D01*
X156853047Y-69820190D01*
X156472095Y-69820190D01*
X157472095Y-70296380D02*
X157472095Y-69296380D01*
X158043523Y-70296380D01*
X158043523Y-69296380D01*
X158424476Y-69296380D02*
X159043523Y-69296380D01*
X158710190Y-69677333D01*
X158853047Y-69677333D01*
X158948285Y-69724952D01*
X158995904Y-69772571D01*
X159043523Y-69867809D01*
X159043523Y-70105904D01*
X158995904Y-70201142D01*
X158948285Y-70248761D01*
X158853047Y-70296380D01*
X158567333Y-70296380D01*
X158472095Y-70248761D01*
X158424476Y-70201142D01*
%TO.C,D4*%
X150820380Y-119238095D02*
X149820380Y-119238095D01*
X149820380Y-119000000D01*
X149868000Y-118857142D01*
X149963238Y-118761904D01*
X150058476Y-118714285D01*
X150248952Y-118666666D01*
X150391809Y-118666666D01*
X150582285Y-118714285D01*
X150677523Y-118761904D01*
X150772761Y-118857142D01*
X150820380Y-119000000D01*
X150820380Y-119238095D01*
X150153714Y-117809523D02*
X150820380Y-117809523D01*
X149772761Y-118047619D02*
X150487047Y-118285714D01*
X150487047Y-117666666D01*
%TO.C,C28*%
X134342142Y-69856142D02*
X134294523Y-69903761D01*
X134151666Y-69951380D01*
X134056428Y-69951380D01*
X133913571Y-69903761D01*
X133818333Y-69808523D01*
X133770714Y-69713285D01*
X133723095Y-69522809D01*
X133723095Y-69379952D01*
X133770714Y-69189476D01*
X133818333Y-69094238D01*
X133913571Y-68999000D01*
X134056428Y-68951380D01*
X134151666Y-68951380D01*
X134294523Y-68999000D01*
X134342142Y-69046619D01*
X134723095Y-69046619D02*
X134770714Y-68999000D01*
X134865952Y-68951380D01*
X135104047Y-68951380D01*
X135199285Y-68999000D01*
X135246904Y-69046619D01*
X135294523Y-69141857D01*
X135294523Y-69237095D01*
X135246904Y-69379952D01*
X134675476Y-69951380D01*
X135294523Y-69951380D01*
X135865952Y-69379952D02*
X135770714Y-69332333D01*
X135723095Y-69284714D01*
X135675476Y-69189476D01*
X135675476Y-69141857D01*
X135723095Y-69046619D01*
X135770714Y-68999000D01*
X135865952Y-68951380D01*
X136056428Y-68951380D01*
X136151666Y-68999000D01*
X136199285Y-69046619D01*
X136246904Y-69141857D01*
X136246904Y-69189476D01*
X136199285Y-69284714D01*
X136151666Y-69332333D01*
X136056428Y-69379952D01*
X135865952Y-69379952D01*
X135770714Y-69427571D01*
X135723095Y-69475190D01*
X135675476Y-69570428D01*
X135675476Y-69760904D01*
X135723095Y-69856142D01*
X135770714Y-69903761D01*
X135865952Y-69951380D01*
X136056428Y-69951380D01*
X136151666Y-69903761D01*
X136199285Y-69856142D01*
X136246904Y-69760904D01*
X136246904Y-69570428D01*
X136199285Y-69475190D01*
X136151666Y-69427571D01*
X136056428Y-69379952D01*
%TO.C,C23*%
X135612142Y-101322142D02*
X135564523Y-101369761D01*
X135421666Y-101417380D01*
X135326428Y-101417380D01*
X135183571Y-101369761D01*
X135088333Y-101274523D01*
X135040714Y-101179285D01*
X134993095Y-100988809D01*
X134993095Y-100845952D01*
X135040714Y-100655476D01*
X135088333Y-100560238D01*
X135183571Y-100465000D01*
X135326428Y-100417380D01*
X135421666Y-100417380D01*
X135564523Y-100465000D01*
X135612142Y-100512619D01*
X135993095Y-100512619D02*
X136040714Y-100465000D01*
X136135952Y-100417380D01*
X136374047Y-100417380D01*
X136469285Y-100465000D01*
X136516904Y-100512619D01*
X136564523Y-100607857D01*
X136564523Y-100703095D01*
X136516904Y-100845952D01*
X135945476Y-101417380D01*
X136564523Y-101417380D01*
X136897857Y-100417380D02*
X137516904Y-100417380D01*
X137183571Y-100798333D01*
X137326428Y-100798333D01*
X137421666Y-100845952D01*
X137469285Y-100893571D01*
X137516904Y-100988809D01*
X137516904Y-101226904D01*
X137469285Y-101322142D01*
X137421666Y-101369761D01*
X137326428Y-101417380D01*
X137040714Y-101417380D01*
X136945476Y-101369761D01*
X136897857Y-101322142D01*
%TO.C,C6*%
X154265333Y-78335142D02*
X154217714Y-78382761D01*
X154074857Y-78430380D01*
X153979619Y-78430380D01*
X153836761Y-78382761D01*
X153741523Y-78287523D01*
X153693904Y-78192285D01*
X153646285Y-78001809D01*
X153646285Y-77858952D01*
X153693904Y-77668476D01*
X153741523Y-77573238D01*
X153836761Y-77478000D01*
X153979619Y-77430380D01*
X154074857Y-77430380D01*
X154217714Y-77478000D01*
X154265333Y-77525619D01*
X155122476Y-77430380D02*
X154932000Y-77430380D01*
X154836761Y-77478000D01*
X154789142Y-77525619D01*
X154693904Y-77668476D01*
X154646285Y-77858952D01*
X154646285Y-78239904D01*
X154693904Y-78335142D01*
X154741523Y-78382761D01*
X154836761Y-78430380D01*
X155027238Y-78430380D01*
X155122476Y-78382761D01*
X155170095Y-78335142D01*
X155217714Y-78239904D01*
X155217714Y-78001809D01*
X155170095Y-77906571D01*
X155122476Y-77858952D01*
X155027238Y-77811333D01*
X154836761Y-77811333D01*
X154741523Y-77858952D01*
X154693904Y-77906571D01*
X154646285Y-78001809D01*
%TO.C,C10*%
X148566142Y-95765857D02*
X148613761Y-95813476D01*
X148661380Y-95956333D01*
X148661380Y-96051571D01*
X148613761Y-96194428D01*
X148518523Y-96289666D01*
X148423285Y-96337285D01*
X148232809Y-96384904D01*
X148089952Y-96384904D01*
X147899476Y-96337285D01*
X147804238Y-96289666D01*
X147709000Y-96194428D01*
X147661380Y-96051571D01*
X147661380Y-95956333D01*
X147709000Y-95813476D01*
X147756619Y-95765857D01*
X148661380Y-94813476D02*
X148661380Y-95384904D01*
X148661380Y-95099190D02*
X147661380Y-95099190D01*
X147804238Y-95194428D01*
X147899476Y-95289666D01*
X147947095Y-95384904D01*
X147661380Y-94194428D02*
X147661380Y-94099190D01*
X147709000Y-94003952D01*
X147756619Y-93956333D01*
X147851857Y-93908714D01*
X148042333Y-93861095D01*
X148280428Y-93861095D01*
X148470904Y-93908714D01*
X148566142Y-93956333D01*
X148613761Y-94003952D01*
X148661380Y-94099190D01*
X148661380Y-94194428D01*
X148613761Y-94289666D01*
X148566142Y-94337285D01*
X148470904Y-94384904D01*
X148280428Y-94432523D01*
X148042333Y-94432523D01*
X147851857Y-94384904D01*
X147756619Y-94337285D01*
X147709000Y-94289666D01*
X147661380Y-94194428D01*
%TO.C,D2*%
X146502380Y-119111095D02*
X145502380Y-119111095D01*
X145502380Y-118873000D01*
X145550000Y-118730142D01*
X145645238Y-118634904D01*
X145740476Y-118587285D01*
X145930952Y-118539666D01*
X146073809Y-118539666D01*
X146264285Y-118587285D01*
X146359523Y-118634904D01*
X146454761Y-118730142D01*
X146502380Y-118873000D01*
X146502380Y-119111095D01*
X145597619Y-118158714D02*
X145550000Y-118111095D01*
X145502380Y-118015857D01*
X145502380Y-117777761D01*
X145550000Y-117682523D01*
X145597619Y-117634904D01*
X145692857Y-117587285D01*
X145788095Y-117587285D01*
X145930952Y-117634904D01*
X146502380Y-118206333D01*
X146502380Y-117587285D01*
%TO.C,C19*%
X129124642Y-84558142D02*
X129077023Y-84605761D01*
X128934166Y-84653380D01*
X128838928Y-84653380D01*
X128696071Y-84605761D01*
X128600833Y-84510523D01*
X128553214Y-84415285D01*
X128505595Y-84224809D01*
X128505595Y-84081952D01*
X128553214Y-83891476D01*
X128600833Y-83796238D01*
X128696071Y-83701000D01*
X128838928Y-83653380D01*
X128934166Y-83653380D01*
X129077023Y-83701000D01*
X129124642Y-83748619D01*
X130077023Y-84653380D02*
X129505595Y-84653380D01*
X129791309Y-84653380D02*
X129791309Y-83653380D01*
X129696071Y-83796238D01*
X129600833Y-83891476D01*
X129505595Y-83939095D01*
X130553214Y-84653380D02*
X130743690Y-84653380D01*
X130838928Y-84605761D01*
X130886547Y-84558142D01*
X130981785Y-84415285D01*
X131029404Y-84224809D01*
X131029404Y-83843857D01*
X130981785Y-83748619D01*
X130934166Y-83701000D01*
X130838928Y-83653380D01*
X130648452Y-83653380D01*
X130553214Y-83701000D01*
X130505595Y-83748619D01*
X130457976Y-83843857D01*
X130457976Y-84081952D01*
X130505595Y-84177190D01*
X130553214Y-84224809D01*
X130648452Y-84272428D01*
X130838928Y-84272428D01*
X130934166Y-84224809D01*
X130981785Y-84177190D01*
X131029404Y-84081952D01*
%TO.C,RN5*%
X156789523Y-109285380D02*
X156456190Y-108809190D01*
X156218095Y-109285380D02*
X156218095Y-108285380D01*
X156599047Y-108285380D01*
X156694285Y-108333000D01*
X156741904Y-108380619D01*
X156789523Y-108475857D01*
X156789523Y-108618714D01*
X156741904Y-108713952D01*
X156694285Y-108761571D01*
X156599047Y-108809190D01*
X156218095Y-108809190D01*
X157218095Y-109285380D02*
X157218095Y-108285380D01*
X157789523Y-109285380D01*
X157789523Y-108285380D01*
X158741904Y-108285380D02*
X158265714Y-108285380D01*
X158218095Y-108761571D01*
X158265714Y-108713952D01*
X158360952Y-108666333D01*
X158599047Y-108666333D01*
X158694285Y-108713952D01*
X158741904Y-108761571D01*
X158789523Y-108856809D01*
X158789523Y-109094904D01*
X158741904Y-109190142D01*
X158694285Y-109237761D01*
X158599047Y-109285380D01*
X158360952Y-109285380D01*
X158265714Y-109237761D01*
X158218095Y-109190142D01*
%TO.C,Y1*%
X159797809Y-75250190D02*
X159797809Y-75726380D01*
X159464476Y-74726380D02*
X159797809Y-75250190D01*
X160131142Y-74726380D01*
X160988285Y-75726380D02*
X160416857Y-75726380D01*
X160702571Y-75726380D02*
X160702571Y-74726380D01*
X160607333Y-74869238D01*
X160512095Y-74964476D01*
X160416857Y-75012095D01*
%TO.C,C1*%
X157583142Y-80303666D02*
X157630761Y-80351285D01*
X157678380Y-80494142D01*
X157678380Y-80589380D01*
X157630761Y-80732238D01*
X157535523Y-80827476D01*
X157440285Y-80875095D01*
X157249809Y-80922714D01*
X157106952Y-80922714D01*
X156916476Y-80875095D01*
X156821238Y-80827476D01*
X156726000Y-80732238D01*
X156678380Y-80589380D01*
X156678380Y-80494142D01*
X156726000Y-80351285D01*
X156773619Y-80303666D01*
X157678380Y-79351285D02*
X157678380Y-79922714D01*
X157678380Y-79637000D02*
X156678380Y-79637000D01*
X156821238Y-79732238D01*
X156916476Y-79827476D01*
X156964095Y-79922714D01*
%TO.C,R19*%
X145359380Y-105544857D02*
X144883190Y-105878190D01*
X145359380Y-106116285D02*
X144359380Y-106116285D01*
X144359380Y-105735333D01*
X144407000Y-105640095D01*
X144454619Y-105592476D01*
X144549857Y-105544857D01*
X144692714Y-105544857D01*
X144787952Y-105592476D01*
X144835571Y-105640095D01*
X144883190Y-105735333D01*
X144883190Y-106116285D01*
X145359380Y-104592476D02*
X145359380Y-105163904D01*
X145359380Y-104878190D02*
X144359380Y-104878190D01*
X144502238Y-104973428D01*
X144597476Y-105068666D01*
X144645095Y-105163904D01*
X145359380Y-104116285D02*
X145359380Y-103925809D01*
X145311761Y-103830571D01*
X145264142Y-103782952D01*
X145121285Y-103687714D01*
X144930809Y-103640095D01*
X144549857Y-103640095D01*
X144454619Y-103687714D01*
X144407000Y-103735333D01*
X144359380Y-103830571D01*
X144359380Y-104021047D01*
X144407000Y-104116285D01*
X144454619Y-104163904D01*
X144549857Y-104211523D01*
X144787952Y-104211523D01*
X144883190Y-104163904D01*
X144930809Y-104116285D01*
X144978428Y-104021047D01*
X144978428Y-103830571D01*
X144930809Y-103735333D01*
X144883190Y-103687714D01*
X144787952Y-103640095D01*
%TO.C,D1*%
X144343380Y-119102095D02*
X143343380Y-119102095D01*
X143343380Y-118864000D01*
X143391000Y-118721142D01*
X143486238Y-118625904D01*
X143581476Y-118578285D01*
X143771952Y-118530666D01*
X143914809Y-118530666D01*
X144105285Y-118578285D01*
X144200523Y-118625904D01*
X144295761Y-118721142D01*
X144343380Y-118864000D01*
X144343380Y-119102095D01*
X144343380Y-117578285D02*
X144343380Y-118149714D01*
X144343380Y-117864000D02*
X143343380Y-117864000D01*
X143486238Y-117959238D01*
X143581476Y-118054476D01*
X143629095Y-118149714D01*
%TO.C,C8*%
X135961333Y-79097142D02*
X135913714Y-79144761D01*
X135770857Y-79192380D01*
X135675619Y-79192380D01*
X135532761Y-79144761D01*
X135437523Y-79049523D01*
X135389904Y-78954285D01*
X135342285Y-78763809D01*
X135342285Y-78620952D01*
X135389904Y-78430476D01*
X135437523Y-78335238D01*
X135532761Y-78240000D01*
X135675619Y-78192380D01*
X135770857Y-78192380D01*
X135913714Y-78240000D01*
X135961333Y-78287619D01*
X136532761Y-78620952D02*
X136437523Y-78573333D01*
X136389904Y-78525714D01*
X136342285Y-78430476D01*
X136342285Y-78382857D01*
X136389904Y-78287619D01*
X136437523Y-78240000D01*
X136532761Y-78192380D01*
X136723238Y-78192380D01*
X136818476Y-78240000D01*
X136866095Y-78287619D01*
X136913714Y-78382857D01*
X136913714Y-78430476D01*
X136866095Y-78525714D01*
X136818476Y-78573333D01*
X136723238Y-78620952D01*
X136532761Y-78620952D01*
X136437523Y-78668571D01*
X136389904Y-78716190D01*
X136342285Y-78811428D01*
X136342285Y-79001904D01*
X136389904Y-79097142D01*
X136437523Y-79144761D01*
X136532761Y-79192380D01*
X136723238Y-79192380D01*
X136818476Y-79144761D01*
X136866095Y-79097142D01*
X136913714Y-79001904D01*
X136913714Y-78811428D01*
X136866095Y-78716190D01*
X136818476Y-78668571D01*
X136723238Y-78620952D01*
%TO.C,J4*%
X167306666Y-79589380D02*
X167306666Y-80303666D01*
X167259047Y-80446523D01*
X167163809Y-80541761D01*
X167020952Y-80589380D01*
X166925714Y-80589380D01*
X168211428Y-79922714D02*
X168211428Y-80589380D01*
X167973333Y-79541761D02*
X167735238Y-80256047D01*
X168354285Y-80256047D01*
%TO.C,D3*%
X148661380Y-119238095D02*
X147661380Y-119238095D01*
X147661380Y-119000000D01*
X147709000Y-118857142D01*
X147804238Y-118761904D01*
X147899476Y-118714285D01*
X148089952Y-118666666D01*
X148232809Y-118666666D01*
X148423285Y-118714285D01*
X148518523Y-118761904D01*
X148613761Y-118857142D01*
X148661380Y-119000000D01*
X148661380Y-119238095D01*
X147661380Y-118333333D02*
X147661380Y-117714285D01*
X148042333Y-118047619D01*
X148042333Y-117904761D01*
X148089952Y-117809523D01*
X148137571Y-117761904D01*
X148232809Y-117714285D01*
X148470904Y-117714285D01*
X148566142Y-117761904D01*
X148613761Y-117809523D01*
X148661380Y-117904761D01*
X148661380Y-118190476D01*
X148613761Y-118285714D01*
X148566142Y-118333333D01*
%TO.C,C9*%
X154392333Y-79859142D02*
X154344714Y-79906761D01*
X154201857Y-79954380D01*
X154106619Y-79954380D01*
X153963761Y-79906761D01*
X153868523Y-79811523D01*
X153820904Y-79716285D01*
X153773285Y-79525809D01*
X153773285Y-79382952D01*
X153820904Y-79192476D01*
X153868523Y-79097238D01*
X153963761Y-79002000D01*
X154106619Y-78954380D01*
X154201857Y-78954380D01*
X154344714Y-79002000D01*
X154392333Y-79049619D01*
X154868523Y-79954380D02*
X155059000Y-79954380D01*
X155154238Y-79906761D01*
X155201857Y-79859142D01*
X155297095Y-79716285D01*
X155344714Y-79525809D01*
X155344714Y-79144857D01*
X155297095Y-79049619D01*
X155249476Y-79002000D01*
X155154238Y-78954380D01*
X154963761Y-78954380D01*
X154868523Y-79002000D01*
X154820904Y-79049619D01*
X154773285Y-79144857D01*
X154773285Y-79382952D01*
X154820904Y-79478190D01*
X154868523Y-79525809D01*
X154963761Y-79573428D01*
X155154238Y-79573428D01*
X155249476Y-79525809D01*
X155297095Y-79478190D01*
X155344714Y-79382952D01*
%TO.C,R17*%
X156837142Y-119578380D02*
X156503809Y-119102190D01*
X156265714Y-119578380D02*
X156265714Y-118578380D01*
X156646666Y-118578380D01*
X156741904Y-118626000D01*
X156789523Y-118673619D01*
X156837142Y-118768857D01*
X156837142Y-118911714D01*
X156789523Y-119006952D01*
X156741904Y-119054571D01*
X156646666Y-119102190D01*
X156265714Y-119102190D01*
X157789523Y-119578380D02*
X157218095Y-119578380D01*
X157503809Y-119578380D02*
X157503809Y-118578380D01*
X157408571Y-118721238D01*
X157313333Y-118816476D01*
X157218095Y-118864095D01*
X158122857Y-118578380D02*
X158789523Y-118578380D01*
X158360952Y-119578380D01*
%TO.C,C30*%
X132834142Y-62587142D02*
X132786523Y-62634761D01*
X132643666Y-62682380D01*
X132548428Y-62682380D01*
X132405571Y-62634761D01*
X132310333Y-62539523D01*
X132262714Y-62444285D01*
X132215095Y-62253809D01*
X132215095Y-62110952D01*
X132262714Y-61920476D01*
X132310333Y-61825238D01*
X132405571Y-61730000D01*
X132548428Y-61682380D01*
X132643666Y-61682380D01*
X132786523Y-61730000D01*
X132834142Y-61777619D01*
X133167476Y-61682380D02*
X133786523Y-61682380D01*
X133453190Y-62063333D01*
X133596047Y-62063333D01*
X133691285Y-62110952D01*
X133738904Y-62158571D01*
X133786523Y-62253809D01*
X133786523Y-62491904D01*
X133738904Y-62587142D01*
X133691285Y-62634761D01*
X133596047Y-62682380D01*
X133310333Y-62682380D01*
X133215095Y-62634761D01*
X133167476Y-62587142D01*
X134405571Y-61682380D02*
X134500809Y-61682380D01*
X134596047Y-61730000D01*
X134643666Y-61777619D01*
X134691285Y-61872857D01*
X134738904Y-62063333D01*
X134738904Y-62301428D01*
X134691285Y-62491904D01*
X134643666Y-62587142D01*
X134596047Y-62634761D01*
X134500809Y-62682380D01*
X134405571Y-62682380D01*
X134310333Y-62634761D01*
X134262714Y-62587142D01*
X134215095Y-62491904D01*
X134167476Y-62301428D01*
X134167476Y-62063333D01*
X134215095Y-61872857D01*
X134262714Y-61777619D01*
X134310333Y-61730000D01*
X134405571Y-61682380D01*
%TO.C,R3*%
X144351380Y-109132666D02*
X143875190Y-109466000D01*
X144351380Y-109704095D02*
X143351380Y-109704095D01*
X143351380Y-109323142D01*
X143399000Y-109227904D01*
X143446619Y-109180285D01*
X143541857Y-109132666D01*
X143684714Y-109132666D01*
X143779952Y-109180285D01*
X143827571Y-109227904D01*
X143875190Y-109323142D01*
X143875190Y-109704095D01*
X143351380Y-108799333D02*
X143351380Y-108180285D01*
X143732333Y-108513619D01*
X143732333Y-108370761D01*
X143779952Y-108275523D01*
X143827571Y-108227904D01*
X143922809Y-108180285D01*
X144160904Y-108180285D01*
X144256142Y-108227904D01*
X144303761Y-108275523D01*
X144351380Y-108370761D01*
X144351380Y-108656476D01*
X144303761Y-108751714D01*
X144256142Y-108799333D01*
%TO.C,C34*%
X158599142Y-103639857D02*
X158646761Y-103687476D01*
X158694380Y-103830333D01*
X158694380Y-103925571D01*
X158646761Y-104068428D01*
X158551523Y-104163666D01*
X158456285Y-104211285D01*
X158265809Y-104258904D01*
X158122952Y-104258904D01*
X157932476Y-104211285D01*
X157837238Y-104163666D01*
X157742000Y-104068428D01*
X157694380Y-103925571D01*
X157694380Y-103830333D01*
X157742000Y-103687476D01*
X157789619Y-103639857D01*
X157694380Y-103306523D02*
X157694380Y-102687476D01*
X158075333Y-103020809D01*
X158075333Y-102877952D01*
X158122952Y-102782714D01*
X158170571Y-102735095D01*
X158265809Y-102687476D01*
X158503904Y-102687476D01*
X158599142Y-102735095D01*
X158646761Y-102782714D01*
X158694380Y-102877952D01*
X158694380Y-103163666D01*
X158646761Y-103258904D01*
X158599142Y-103306523D01*
X158027714Y-101830333D02*
X158694380Y-101830333D01*
X157646761Y-102068428D02*
X158361047Y-102306523D01*
X158361047Y-101687476D01*
%TO.C,C32*%
X155551142Y-61856857D02*
X155598761Y-61904476D01*
X155646380Y-62047333D01*
X155646380Y-62142571D01*
X155598761Y-62285428D01*
X155503523Y-62380666D01*
X155408285Y-62428285D01*
X155217809Y-62475904D01*
X155074952Y-62475904D01*
X154884476Y-62428285D01*
X154789238Y-62380666D01*
X154694000Y-62285428D01*
X154646380Y-62142571D01*
X154646380Y-62047333D01*
X154694000Y-61904476D01*
X154741619Y-61856857D01*
X154646380Y-61523523D02*
X154646380Y-60904476D01*
X155027333Y-61237809D01*
X155027333Y-61094952D01*
X155074952Y-60999714D01*
X155122571Y-60952095D01*
X155217809Y-60904476D01*
X155455904Y-60904476D01*
X155551142Y-60952095D01*
X155598761Y-60999714D01*
X155646380Y-61094952D01*
X155646380Y-61380666D01*
X155598761Y-61475904D01*
X155551142Y-61523523D01*
X154741619Y-60523523D02*
X154694000Y-60475904D01*
X154646380Y-60380666D01*
X154646380Y-60142571D01*
X154694000Y-60047333D01*
X154741619Y-59999714D01*
X154836857Y-59952095D01*
X154932095Y-59952095D01*
X155074952Y-59999714D01*
X155646380Y-60571142D01*
X155646380Y-59952095D01*
%TO.C,R2*%
X143581380Y-73826666D02*
X143105190Y-74160000D01*
X143581380Y-74398095D02*
X142581380Y-74398095D01*
X142581380Y-74017142D01*
X142629000Y-73921904D01*
X142676619Y-73874285D01*
X142771857Y-73826666D01*
X142914714Y-73826666D01*
X143009952Y-73874285D01*
X143057571Y-73921904D01*
X143105190Y-74017142D01*
X143105190Y-74398095D01*
X142676619Y-73445714D02*
X142629000Y-73398095D01*
X142581380Y-73302857D01*
X142581380Y-73064761D01*
X142629000Y-72969523D01*
X142676619Y-72921904D01*
X142771857Y-72874285D01*
X142867095Y-72874285D01*
X143009952Y-72921904D01*
X143581380Y-73493333D01*
X143581380Y-72874285D01*
%TO.C,R15*%
X129008142Y-79319380D02*
X128674809Y-78843190D01*
X128436714Y-79319380D02*
X128436714Y-78319380D01*
X128817666Y-78319380D01*
X128912904Y-78367000D01*
X128960523Y-78414619D01*
X129008142Y-78509857D01*
X129008142Y-78652714D01*
X128960523Y-78747952D01*
X128912904Y-78795571D01*
X128817666Y-78843190D01*
X128436714Y-78843190D01*
X129960523Y-79319380D02*
X129389095Y-79319380D01*
X129674809Y-79319380D02*
X129674809Y-78319380D01*
X129579571Y-78462238D01*
X129484333Y-78557476D01*
X129389095Y-78605095D01*
X130865285Y-78319380D02*
X130389095Y-78319380D01*
X130341476Y-78795571D01*
X130389095Y-78747952D01*
X130484333Y-78700333D01*
X130722428Y-78700333D01*
X130817666Y-78747952D01*
X130865285Y-78795571D01*
X130912904Y-78890809D01*
X130912904Y-79128904D01*
X130865285Y-79224142D01*
X130817666Y-79271761D01*
X130722428Y-79319380D01*
X130484333Y-79319380D01*
X130389095Y-79271761D01*
X130341476Y-79224142D01*
%TO.C,R4*%
X146502380Y-109132666D02*
X146026190Y-109466000D01*
X146502380Y-109704095D02*
X145502380Y-109704095D01*
X145502380Y-109323142D01*
X145550000Y-109227904D01*
X145597619Y-109180285D01*
X145692857Y-109132666D01*
X145835714Y-109132666D01*
X145930952Y-109180285D01*
X145978571Y-109227904D01*
X146026190Y-109323142D01*
X146026190Y-109704095D01*
X145835714Y-108275523D02*
X146502380Y-108275523D01*
X145454761Y-108513619D02*
X146169047Y-108751714D01*
X146169047Y-108132666D01*
%TO.C,C12*%
X138549142Y-77700142D02*
X138501523Y-77747761D01*
X138358666Y-77795380D01*
X138263428Y-77795380D01*
X138120571Y-77747761D01*
X138025333Y-77652523D01*
X137977714Y-77557285D01*
X137930095Y-77366809D01*
X137930095Y-77223952D01*
X137977714Y-77033476D01*
X138025333Y-76938238D01*
X138120571Y-76843000D01*
X138263428Y-76795380D01*
X138358666Y-76795380D01*
X138501523Y-76843000D01*
X138549142Y-76890619D01*
X139501523Y-77795380D02*
X138930095Y-77795380D01*
X139215809Y-77795380D02*
X139215809Y-76795380D01*
X139120571Y-76938238D01*
X139025333Y-77033476D01*
X138930095Y-77081095D01*
X139882476Y-76890619D02*
X139930095Y-76843000D01*
X140025333Y-76795380D01*
X140263428Y-76795380D01*
X140358666Y-76843000D01*
X140406285Y-76890619D01*
X140453904Y-76985857D01*
X140453904Y-77081095D01*
X140406285Y-77223952D01*
X139834857Y-77795380D01*
X140453904Y-77795380D01*
%TO.C,C22*%
X131717642Y-97004142D02*
X131670023Y-97051761D01*
X131527166Y-97099380D01*
X131431928Y-97099380D01*
X131289071Y-97051761D01*
X131193833Y-96956523D01*
X131146214Y-96861285D01*
X131098595Y-96670809D01*
X131098595Y-96527952D01*
X131146214Y-96337476D01*
X131193833Y-96242238D01*
X131289071Y-96147000D01*
X131431928Y-96099380D01*
X131527166Y-96099380D01*
X131670023Y-96147000D01*
X131717642Y-96194619D01*
X132098595Y-96194619D02*
X132146214Y-96147000D01*
X132241452Y-96099380D01*
X132479547Y-96099380D01*
X132574785Y-96147000D01*
X132622404Y-96194619D01*
X132670023Y-96289857D01*
X132670023Y-96385095D01*
X132622404Y-96527952D01*
X132050976Y-97099380D01*
X132670023Y-97099380D01*
X133050976Y-96194619D02*
X133098595Y-96147000D01*
X133193833Y-96099380D01*
X133431928Y-96099380D01*
X133527166Y-96147000D01*
X133574785Y-96194619D01*
X133622404Y-96289857D01*
X133622404Y-96385095D01*
X133574785Y-96527952D01*
X133003357Y-97099380D01*
X133622404Y-97099380D01*
%TO.C,RN4*%
X157043523Y-93156380D02*
X156710190Y-92680190D01*
X156472095Y-93156380D02*
X156472095Y-92156380D01*
X156853047Y-92156380D01*
X156948285Y-92204000D01*
X156995904Y-92251619D01*
X157043523Y-92346857D01*
X157043523Y-92489714D01*
X156995904Y-92584952D01*
X156948285Y-92632571D01*
X156853047Y-92680190D01*
X156472095Y-92680190D01*
X157472095Y-93156380D02*
X157472095Y-92156380D01*
X158043523Y-93156380D01*
X158043523Y-92156380D01*
X158948285Y-92489714D02*
X158948285Y-93156380D01*
X158710190Y-92108761D02*
X158472095Y-92823047D01*
X159091142Y-92823047D01*
%TO.C,R11*%
X131691142Y-91765380D02*
X131357809Y-91289190D01*
X131119714Y-91765380D02*
X131119714Y-90765380D01*
X131500666Y-90765380D01*
X131595904Y-90813000D01*
X131643523Y-90860619D01*
X131691142Y-90955857D01*
X131691142Y-91098714D01*
X131643523Y-91193952D01*
X131595904Y-91241571D01*
X131500666Y-91289190D01*
X131119714Y-91289190D01*
X132643523Y-91765380D02*
X132072095Y-91765380D01*
X132357809Y-91765380D02*
X132357809Y-90765380D01*
X132262571Y-90908238D01*
X132167333Y-91003476D01*
X132072095Y-91051095D01*
X133595904Y-91765380D02*
X133024476Y-91765380D01*
X133310190Y-91765380D02*
X133310190Y-90765380D01*
X133214952Y-90908238D01*
X133119714Y-91003476D01*
X133024476Y-91051095D01*
%TO.C,R1*%
X147645380Y-75096666D02*
X147169190Y-75430000D01*
X147645380Y-75668095D02*
X146645380Y-75668095D01*
X146645380Y-75287142D01*
X146693000Y-75191904D01*
X146740619Y-75144285D01*
X146835857Y-75096666D01*
X146978714Y-75096666D01*
X147073952Y-75144285D01*
X147121571Y-75191904D01*
X147169190Y-75287142D01*
X147169190Y-75668095D01*
X147645380Y-74144285D02*
X147645380Y-74715714D01*
X147645380Y-74430000D02*
X146645380Y-74430000D01*
X146788238Y-74525238D01*
X146883476Y-74620476D01*
X146931095Y-74715714D01*
%TO.C,C29*%
X154027142Y-61856857D02*
X154074761Y-61904476D01*
X154122380Y-62047333D01*
X154122380Y-62142571D01*
X154074761Y-62285428D01*
X153979523Y-62380666D01*
X153884285Y-62428285D01*
X153693809Y-62475904D01*
X153550952Y-62475904D01*
X153360476Y-62428285D01*
X153265238Y-62380666D01*
X153170000Y-62285428D01*
X153122380Y-62142571D01*
X153122380Y-62047333D01*
X153170000Y-61904476D01*
X153217619Y-61856857D01*
X153217619Y-61475904D02*
X153170000Y-61428285D01*
X153122380Y-61333047D01*
X153122380Y-61094952D01*
X153170000Y-60999714D01*
X153217619Y-60952095D01*
X153312857Y-60904476D01*
X153408095Y-60904476D01*
X153550952Y-60952095D01*
X154122380Y-61523523D01*
X154122380Y-60904476D01*
X154122380Y-60428285D02*
X154122380Y-60237809D01*
X154074761Y-60142571D01*
X154027142Y-60094952D01*
X153884285Y-59999714D01*
X153693809Y-59952095D01*
X153312857Y-59952095D01*
X153217619Y-59999714D01*
X153170000Y-60047333D01*
X153122380Y-60142571D01*
X153122380Y-60333047D01*
X153170000Y-60428285D01*
X153217619Y-60475904D01*
X153312857Y-60523523D01*
X153550952Y-60523523D01*
X153646190Y-60475904D01*
X153693809Y-60428285D01*
X153741428Y-60333047D01*
X153741428Y-60142571D01*
X153693809Y-60047333D01*
X153646190Y-59999714D01*
X153550952Y-59952095D01*
%TO.C,C7*%
X137755333Y-89384142D02*
X137707714Y-89431761D01*
X137564857Y-89479380D01*
X137469619Y-89479380D01*
X137326761Y-89431761D01*
X137231523Y-89336523D01*
X137183904Y-89241285D01*
X137136285Y-89050809D01*
X137136285Y-88907952D01*
X137183904Y-88717476D01*
X137231523Y-88622238D01*
X137326761Y-88527000D01*
X137469619Y-88479380D01*
X137564857Y-88479380D01*
X137707714Y-88527000D01*
X137755333Y-88574619D01*
X138088666Y-88479380D02*
X138755333Y-88479380D01*
X138326761Y-89479380D01*
%TO.C,R14*%
X135612142Y-103195380D02*
X135278809Y-102719190D01*
X135040714Y-103195380D02*
X135040714Y-102195380D01*
X135421666Y-102195380D01*
X135516904Y-102243000D01*
X135564523Y-102290619D01*
X135612142Y-102385857D01*
X135612142Y-102528714D01*
X135564523Y-102623952D01*
X135516904Y-102671571D01*
X135421666Y-102719190D01*
X135040714Y-102719190D01*
X136564523Y-103195380D02*
X135993095Y-103195380D01*
X136278809Y-103195380D02*
X136278809Y-102195380D01*
X136183571Y-102338238D01*
X136088333Y-102433476D01*
X135993095Y-102481095D01*
X137421666Y-102528714D02*
X137421666Y-103195380D01*
X137183571Y-102147761D02*
X136945476Y-102862047D01*
X137564523Y-102862047D01*
%TO.C,U1*%
X144749785Y-86101408D02*
X144749785Y-87429761D01*
X144827924Y-87586037D01*
X144906062Y-87664176D01*
X145062339Y-87742314D01*
X145374892Y-87742314D01*
X145531169Y-87664176D01*
X145609308Y-87586037D01*
X145687446Y-87429761D01*
X145687446Y-86101408D01*
X147328352Y-87742314D02*
X146390691Y-87742314D01*
X146859522Y-87742314D02*
X146859522Y-86101408D01*
X146703245Y-86335823D01*
X146546968Y-86492100D01*
X146390691Y-86570238D01*
%TO.C,C15*%
X153916142Y-95734142D02*
X153868523Y-95781761D01*
X153725666Y-95829380D01*
X153630428Y-95829380D01*
X153487571Y-95781761D01*
X153392333Y-95686523D01*
X153344714Y-95591285D01*
X153297095Y-95400809D01*
X153297095Y-95257952D01*
X153344714Y-95067476D01*
X153392333Y-94972238D01*
X153487571Y-94877000D01*
X153630428Y-94829380D01*
X153725666Y-94829380D01*
X153868523Y-94877000D01*
X153916142Y-94924619D01*
X154868523Y-95829380D02*
X154297095Y-95829380D01*
X154582809Y-95829380D02*
X154582809Y-94829380D01*
X154487571Y-94972238D01*
X154392333Y-95067476D01*
X154297095Y-95115095D01*
X155773285Y-94829380D02*
X155297095Y-94829380D01*
X155249476Y-95305571D01*
X155297095Y-95257952D01*
X155392333Y-95210333D01*
X155630428Y-95210333D01*
X155725666Y-95257952D01*
X155773285Y-95305571D01*
X155820904Y-95400809D01*
X155820904Y-95638904D01*
X155773285Y-95734142D01*
X155725666Y-95781761D01*
X155630428Y-95829380D01*
X155392333Y-95829380D01*
X155297095Y-95781761D01*
X155249476Y-95734142D01*
%TO.C,C14*%
X154297142Y-91416142D02*
X154249523Y-91463761D01*
X154106666Y-91511380D01*
X154011428Y-91511380D01*
X153868571Y-91463761D01*
X153773333Y-91368523D01*
X153725714Y-91273285D01*
X153678095Y-91082809D01*
X153678095Y-90939952D01*
X153725714Y-90749476D01*
X153773333Y-90654238D01*
X153868571Y-90559000D01*
X154011428Y-90511380D01*
X154106666Y-90511380D01*
X154249523Y-90559000D01*
X154297142Y-90606619D01*
X155249523Y-91511380D02*
X154678095Y-91511380D01*
X154963809Y-91511380D02*
X154963809Y-90511380D01*
X154868571Y-90654238D01*
X154773333Y-90749476D01*
X154678095Y-90797095D01*
X156106666Y-90844714D02*
X156106666Y-91511380D01*
X155868571Y-90463761D02*
X155630476Y-91178047D01*
X156249523Y-91178047D01*
%TO.C,R13*%
X131564142Y-98877380D02*
X131230809Y-98401190D01*
X130992714Y-98877380D02*
X130992714Y-97877380D01*
X131373666Y-97877380D01*
X131468904Y-97925000D01*
X131516523Y-97972619D01*
X131564142Y-98067857D01*
X131564142Y-98210714D01*
X131516523Y-98305952D01*
X131468904Y-98353571D01*
X131373666Y-98401190D01*
X130992714Y-98401190D01*
X132516523Y-98877380D02*
X131945095Y-98877380D01*
X132230809Y-98877380D02*
X132230809Y-97877380D01*
X132135571Y-98020238D01*
X132040333Y-98115476D01*
X131945095Y-98163095D01*
X132849857Y-97877380D02*
X133468904Y-97877380D01*
X133135571Y-98258333D01*
X133278428Y-98258333D01*
X133373666Y-98305952D01*
X133421285Y-98353571D01*
X133468904Y-98448809D01*
X133468904Y-98686904D01*
X133421285Y-98782142D01*
X133373666Y-98829761D01*
X133278428Y-98877380D01*
X132992714Y-98877380D01*
X132897476Y-98829761D01*
X132849857Y-98782142D01*
%TO.C,C5*%
X135961333Y-80621142D02*
X135913714Y-80668761D01*
X135770857Y-80716380D01*
X135675619Y-80716380D01*
X135532761Y-80668761D01*
X135437523Y-80573523D01*
X135389904Y-80478285D01*
X135342285Y-80287809D01*
X135342285Y-80144952D01*
X135389904Y-79954476D01*
X135437523Y-79859238D01*
X135532761Y-79764000D01*
X135675619Y-79716380D01*
X135770857Y-79716380D01*
X135913714Y-79764000D01*
X135961333Y-79811619D01*
X136866095Y-79716380D02*
X136389904Y-79716380D01*
X136342285Y-80192571D01*
X136389904Y-80144952D01*
X136485142Y-80097333D01*
X136723238Y-80097333D01*
X136818476Y-80144952D01*
X136866095Y-80192571D01*
X136913714Y-80287809D01*
X136913714Y-80525904D01*
X136866095Y-80621142D01*
X136818476Y-80668761D01*
X136723238Y-80716380D01*
X136485142Y-80716380D01*
X136389904Y-80668761D01*
X136342285Y-80621142D01*
%TO.C,R7*%
X134183380Y-118530666D02*
X133707190Y-118864000D01*
X134183380Y-119102095D02*
X133183380Y-119102095D01*
X133183380Y-118721142D01*
X133231000Y-118625904D01*
X133278619Y-118578285D01*
X133373857Y-118530666D01*
X133516714Y-118530666D01*
X133611952Y-118578285D01*
X133659571Y-118625904D01*
X133707190Y-118721142D01*
X133707190Y-119102095D01*
X133183380Y-118197333D02*
X133183380Y-117530666D01*
X134183380Y-117959238D01*
%TO.C,R8*%
X130024333Y-82875380D02*
X129691000Y-82399190D01*
X129452904Y-82875380D02*
X129452904Y-81875380D01*
X129833857Y-81875380D01*
X129929095Y-81923000D01*
X129976714Y-81970619D01*
X130024333Y-82065857D01*
X130024333Y-82208714D01*
X129976714Y-82303952D01*
X129929095Y-82351571D01*
X129833857Y-82399190D01*
X129452904Y-82399190D01*
X130595761Y-82303952D02*
X130500523Y-82256333D01*
X130452904Y-82208714D01*
X130405285Y-82113476D01*
X130405285Y-82065857D01*
X130452904Y-81970619D01*
X130500523Y-81923000D01*
X130595761Y-81875380D01*
X130786238Y-81875380D01*
X130881476Y-81923000D01*
X130929095Y-81970619D01*
X130976714Y-82065857D01*
X130976714Y-82113476D01*
X130929095Y-82208714D01*
X130881476Y-82256333D01*
X130786238Y-82303952D01*
X130595761Y-82303952D01*
X130500523Y-82351571D01*
X130452904Y-82399190D01*
X130405285Y-82494428D01*
X130405285Y-82684904D01*
X130452904Y-82780142D01*
X130500523Y-82827761D01*
X130595761Y-82875380D01*
X130786238Y-82875380D01*
X130881476Y-82827761D01*
X130929095Y-82780142D01*
X130976714Y-82684904D01*
X130976714Y-82494428D01*
X130929095Y-82399190D01*
X130881476Y-82351571D01*
X130786238Y-82303952D01*
%TO.C,J1*%
X124782404Y-62306666D02*
X125353833Y-62306666D01*
X125468119Y-62344761D01*
X125544309Y-62420952D01*
X125582404Y-62535238D01*
X125582404Y-62611428D01*
X125582404Y-61506666D02*
X125582404Y-61963809D01*
X125582404Y-61735238D02*
X124782404Y-61735238D01*
X124896690Y-61811428D01*
X124972880Y-61887619D01*
X125010976Y-61963809D01*
%TO.C,J7*%
X144192666Y-68032380D02*
X144192666Y-68746666D01*
X144145047Y-68889523D01*
X144049809Y-68984761D01*
X143906952Y-69032380D01*
X143811714Y-69032380D01*
X144573619Y-68032380D02*
X145240285Y-68032380D01*
X144811714Y-69032380D01*
%TO.C,R9*%
X132151380Y-118530666D02*
X131675190Y-118864000D01*
X132151380Y-119102095D02*
X131151380Y-119102095D01*
X131151380Y-118721142D01*
X131199000Y-118625904D01*
X131246619Y-118578285D01*
X131341857Y-118530666D01*
X131484714Y-118530666D01*
X131579952Y-118578285D01*
X131627571Y-118625904D01*
X131675190Y-118721142D01*
X131675190Y-119102095D01*
X132151380Y-118054476D02*
X132151380Y-117864000D01*
X132103761Y-117768761D01*
X132056142Y-117721142D01*
X131913285Y-117625904D01*
X131722809Y-117578285D01*
X131341857Y-117578285D01*
X131246619Y-117625904D01*
X131199000Y-117673523D01*
X131151380Y-117768761D01*
X131151380Y-117959238D01*
X131199000Y-118054476D01*
X131246619Y-118102095D01*
X131341857Y-118149714D01*
X131579952Y-118149714D01*
X131675190Y-118102095D01*
X131722809Y-118054476D01*
X131770428Y-117959238D01*
X131770428Y-117768761D01*
X131722809Y-117673523D01*
X131675190Y-117625904D01*
X131579952Y-117578285D01*
%TO.C,J5*%
X167433666Y-102830380D02*
X167433666Y-103544666D01*
X167386047Y-103687523D01*
X167290809Y-103782761D01*
X167147952Y-103830380D01*
X167052714Y-103830380D01*
X168386047Y-102830380D02*
X167909857Y-102830380D01*
X167862238Y-103306571D01*
X167909857Y-103258952D01*
X168005095Y-103211333D01*
X168243190Y-103211333D01*
X168338428Y-103258952D01*
X168386047Y-103306571D01*
X168433666Y-103401809D01*
X168433666Y-103639904D01*
X168386047Y-103735142D01*
X168338428Y-103782761D01*
X168243190Y-103830380D01*
X168005095Y-103830380D01*
X167909857Y-103782761D01*
X167862238Y-103735142D01*
%TO.C,C33*%
X149201142Y-102115857D02*
X149248761Y-102163476D01*
X149296380Y-102306333D01*
X149296380Y-102401571D01*
X149248761Y-102544428D01*
X149153523Y-102639666D01*
X149058285Y-102687285D01*
X148867809Y-102734904D01*
X148724952Y-102734904D01*
X148534476Y-102687285D01*
X148439238Y-102639666D01*
X148344000Y-102544428D01*
X148296380Y-102401571D01*
X148296380Y-102306333D01*
X148344000Y-102163476D01*
X148391619Y-102115857D01*
X148296380Y-101782523D02*
X148296380Y-101163476D01*
X148677333Y-101496809D01*
X148677333Y-101353952D01*
X148724952Y-101258714D01*
X148772571Y-101211095D01*
X148867809Y-101163476D01*
X149105904Y-101163476D01*
X149201142Y-101211095D01*
X149248761Y-101258714D01*
X149296380Y-101353952D01*
X149296380Y-101639666D01*
X149248761Y-101734904D01*
X149201142Y-101782523D01*
X148296380Y-100830142D02*
X148296380Y-100211095D01*
X148677333Y-100544428D01*
X148677333Y-100401571D01*
X148724952Y-100306333D01*
X148772571Y-100258714D01*
X148867809Y-100211095D01*
X149105904Y-100211095D01*
X149201142Y-100258714D01*
X149248761Y-100306333D01*
X149296380Y-100401571D01*
X149296380Y-100687285D01*
X149248761Y-100782523D01*
X149201142Y-100830142D01*
%TO.C,RN2*%
X158567523Y-88209380D02*
X158234190Y-87733190D01*
X157996095Y-88209380D02*
X157996095Y-87209380D01*
X158377047Y-87209380D01*
X158472285Y-87257000D01*
X158519904Y-87304619D01*
X158567523Y-87399857D01*
X158567523Y-87542714D01*
X158519904Y-87637952D01*
X158472285Y-87685571D01*
X158377047Y-87733190D01*
X157996095Y-87733190D01*
X158996095Y-88209380D02*
X158996095Y-87209380D01*
X159567523Y-88209380D01*
X159567523Y-87209380D01*
X159996095Y-87304619D02*
X160043714Y-87257000D01*
X160138952Y-87209380D01*
X160377047Y-87209380D01*
X160472285Y-87257000D01*
X160519904Y-87304619D01*
X160567523Y-87399857D01*
X160567523Y-87495095D01*
X160519904Y-87637952D01*
X159948476Y-88209380D01*
X160567523Y-88209380D01*
%TO.C,R21*%
X164888942Y-99766380D02*
X164555609Y-99290190D01*
X164317514Y-99766380D02*
X164317514Y-98766380D01*
X164698466Y-98766380D01*
X164793704Y-98814000D01*
X164841323Y-98861619D01*
X164888942Y-98956857D01*
X164888942Y-99099714D01*
X164841323Y-99194952D01*
X164793704Y-99242571D01*
X164698466Y-99290190D01*
X164317514Y-99290190D01*
X165269895Y-98861619D02*
X165317514Y-98814000D01*
X165412752Y-98766380D01*
X165650847Y-98766380D01*
X165746085Y-98814000D01*
X165793704Y-98861619D01*
X165841323Y-98956857D01*
X165841323Y-99052095D01*
X165793704Y-99194952D01*
X165222276Y-99766380D01*
X165841323Y-99766380D01*
X166793704Y-99766380D02*
X166222276Y-99766380D01*
X166507990Y-99766380D02*
X166507990Y-98766380D01*
X166412752Y-98909238D01*
X166317514Y-99004476D01*
X166222276Y-99052095D01*
%TO.C,R12*%
X131564142Y-95321380D02*
X131230809Y-94845190D01*
X130992714Y-95321380D02*
X130992714Y-94321380D01*
X131373666Y-94321380D01*
X131468904Y-94369000D01*
X131516523Y-94416619D01*
X131564142Y-94511857D01*
X131564142Y-94654714D01*
X131516523Y-94749952D01*
X131468904Y-94797571D01*
X131373666Y-94845190D01*
X130992714Y-94845190D01*
X132516523Y-95321380D02*
X131945095Y-95321380D01*
X132230809Y-95321380D02*
X132230809Y-94321380D01*
X132135571Y-94464238D01*
X132040333Y-94559476D01*
X131945095Y-94607095D01*
X132897476Y-94416619D02*
X132945095Y-94369000D01*
X133040333Y-94321380D01*
X133278428Y-94321380D01*
X133373666Y-94369000D01*
X133421285Y-94416619D01*
X133468904Y-94511857D01*
X133468904Y-94607095D01*
X133421285Y-94749952D01*
X132849857Y-95321380D01*
X133468904Y-95321380D01*
%TO.C,R5*%
X148661380Y-109132666D02*
X148185190Y-109466000D01*
X148661380Y-109704095D02*
X147661380Y-109704095D01*
X147661380Y-109323142D01*
X147709000Y-109227904D01*
X147756619Y-109180285D01*
X147851857Y-109132666D01*
X147994714Y-109132666D01*
X148089952Y-109180285D01*
X148137571Y-109227904D01*
X148185190Y-109323142D01*
X148185190Y-109704095D01*
X147661380Y-108227904D02*
X147661380Y-108704095D01*
X148137571Y-108751714D01*
X148089952Y-108704095D01*
X148042333Y-108608857D01*
X148042333Y-108370761D01*
X148089952Y-108275523D01*
X148137571Y-108227904D01*
X148232809Y-108180285D01*
X148470904Y-108180285D01*
X148566142Y-108227904D01*
X148613761Y-108275523D01*
X148661380Y-108370761D01*
X148661380Y-108608857D01*
X148613761Y-108704095D01*
X148566142Y-108751714D01*
%TO.C,J6*%
X122675423Y-102257333D02*
X123132566Y-102257333D01*
X123223995Y-102287809D01*
X123284947Y-102348761D01*
X123315423Y-102440190D01*
X123315423Y-102501142D01*
X122675423Y-101678285D02*
X122675423Y-101800190D01*
X122705900Y-101861142D01*
X122736376Y-101891619D01*
X122827804Y-101952571D01*
X122949709Y-101983047D01*
X123193519Y-101983047D01*
X123254471Y-101952571D01*
X123284947Y-101922095D01*
X123315423Y-101861142D01*
X123315423Y-101739238D01*
X123284947Y-101678285D01*
X123254471Y-101647809D01*
X123193519Y-101617333D01*
X123041138Y-101617333D01*
X122980185Y-101647809D01*
X122949709Y-101678285D01*
X122919233Y-101739238D01*
X122919233Y-101861142D01*
X122949709Y-101922095D01*
X122980185Y-101952571D01*
X123041138Y-101983047D01*
%TO.C,U2*%
X154646380Y-104647904D02*
X155455904Y-104647904D01*
X155551142Y-104600285D01*
X155598761Y-104552666D01*
X155646380Y-104457428D01*
X155646380Y-104266952D01*
X155598761Y-104171714D01*
X155551142Y-104124095D01*
X155455904Y-104076476D01*
X154646380Y-104076476D01*
X154741619Y-103647904D02*
X154694000Y-103600285D01*
X154646380Y-103505047D01*
X154646380Y-103266952D01*
X154694000Y-103171714D01*
X154741619Y-103124095D01*
X154836857Y-103076476D01*
X154932095Y-103076476D01*
X155074952Y-103124095D01*
X155646380Y-103695523D01*
X155646380Y-103076476D01*
%TO.C,C26*%
X134358142Y-68302142D02*
X134310523Y-68349761D01*
X134167666Y-68397380D01*
X134072428Y-68397380D01*
X133929571Y-68349761D01*
X133834333Y-68254523D01*
X133786714Y-68159285D01*
X133739095Y-67968809D01*
X133739095Y-67825952D01*
X133786714Y-67635476D01*
X133834333Y-67540238D01*
X133929571Y-67445000D01*
X134072428Y-67397380D01*
X134167666Y-67397380D01*
X134310523Y-67445000D01*
X134358142Y-67492619D01*
X134739095Y-67492619D02*
X134786714Y-67445000D01*
X134881952Y-67397380D01*
X135120047Y-67397380D01*
X135215285Y-67445000D01*
X135262904Y-67492619D01*
X135310523Y-67587857D01*
X135310523Y-67683095D01*
X135262904Y-67825952D01*
X134691476Y-68397380D01*
X135310523Y-68397380D01*
X136167666Y-67397380D02*
X135977190Y-67397380D01*
X135881952Y-67445000D01*
X135834333Y-67492619D01*
X135739095Y-67635476D01*
X135691476Y-67825952D01*
X135691476Y-68206904D01*
X135739095Y-68302142D01*
X135786714Y-68349761D01*
X135881952Y-68397380D01*
X136072428Y-68397380D01*
X136167666Y-68349761D01*
X136215285Y-68302142D01*
X136262904Y-68206904D01*
X136262904Y-67968809D01*
X136215285Y-67873571D01*
X136167666Y-67825952D01*
X136072428Y-67778333D01*
X135881952Y-67778333D01*
X135786714Y-67825952D01*
X135739095Y-67873571D01*
X135691476Y-67968809D01*
%TO.C,RN1*%
X157043523Y-65089380D02*
X156710190Y-64613190D01*
X156472095Y-65089380D02*
X156472095Y-64089380D01*
X156853047Y-64089380D01*
X156948285Y-64137000D01*
X156995904Y-64184619D01*
X157043523Y-64279857D01*
X157043523Y-64422714D01*
X156995904Y-64517952D01*
X156948285Y-64565571D01*
X156853047Y-64613190D01*
X156472095Y-64613190D01*
X157472095Y-65089380D02*
X157472095Y-64089380D01*
X158043523Y-65089380D01*
X158043523Y-64089380D01*
X159043523Y-65089380D02*
X158472095Y-65089380D01*
X158757809Y-65089380D02*
X158757809Y-64089380D01*
X158662571Y-64232238D01*
X158567333Y-64327476D01*
X158472095Y-64375095D01*
%TO.C,C21*%
X131691142Y-93448142D02*
X131643523Y-93495761D01*
X131500666Y-93543380D01*
X131405428Y-93543380D01*
X131262571Y-93495761D01*
X131167333Y-93400523D01*
X131119714Y-93305285D01*
X131072095Y-93114809D01*
X131072095Y-92971952D01*
X131119714Y-92781476D01*
X131167333Y-92686238D01*
X131262571Y-92591000D01*
X131405428Y-92543380D01*
X131500666Y-92543380D01*
X131643523Y-92591000D01*
X131691142Y-92638619D01*
X132072095Y-92638619D02*
X132119714Y-92591000D01*
X132214952Y-92543380D01*
X132453047Y-92543380D01*
X132548285Y-92591000D01*
X132595904Y-92638619D01*
X132643523Y-92733857D01*
X132643523Y-92829095D01*
X132595904Y-92971952D01*
X132024476Y-93543380D01*
X132643523Y-93543380D01*
X133595904Y-93543380D02*
X133024476Y-93543380D01*
X133310190Y-93543380D02*
X133310190Y-92543380D01*
X133214952Y-92686238D01*
X133119714Y-92781476D01*
X133024476Y-92829095D01*
%TO.C,F1*%
X150677571Y-63198333D02*
X150677571Y-63531666D01*
X151201380Y-63531666D02*
X150201380Y-63531666D01*
X150201380Y-63055476D01*
X151201380Y-62150714D02*
X151201380Y-62722142D01*
X151201380Y-62436428D02*
X150201380Y-62436428D01*
X150344238Y-62531666D01*
X150439476Y-62626904D01*
X150487095Y-62722142D01*
%TO.C,C20*%
X131691142Y-89892142D02*
X131643523Y-89939761D01*
X131500666Y-89987380D01*
X131405428Y-89987380D01*
X131262571Y-89939761D01*
X131167333Y-89844523D01*
X131119714Y-89749285D01*
X131072095Y-89558809D01*
X131072095Y-89415952D01*
X131119714Y-89225476D01*
X131167333Y-89130238D01*
X131262571Y-89035000D01*
X131405428Y-88987380D01*
X131500666Y-88987380D01*
X131643523Y-89035000D01*
X131691142Y-89082619D01*
X132072095Y-89082619D02*
X132119714Y-89035000D01*
X132214952Y-88987380D01*
X132453047Y-88987380D01*
X132548285Y-89035000D01*
X132595904Y-89082619D01*
X132643523Y-89177857D01*
X132643523Y-89273095D01*
X132595904Y-89415952D01*
X132024476Y-89987380D01*
X132643523Y-89987380D01*
X133262571Y-88987380D02*
X133357809Y-88987380D01*
X133453047Y-89035000D01*
X133500666Y-89082619D01*
X133548285Y-89177857D01*
X133595904Y-89368333D01*
X133595904Y-89606428D01*
X133548285Y-89796904D01*
X133500666Y-89892142D01*
X133453047Y-89939761D01*
X133357809Y-89987380D01*
X133262571Y-89987380D01*
X133167333Y-89939761D01*
X133119714Y-89892142D01*
X133072095Y-89796904D01*
X133024476Y-89606428D01*
X133024476Y-89368333D01*
X133072095Y-89177857D01*
X133119714Y-89082619D01*
X133167333Y-89035000D01*
X133262571Y-88987380D01*
%TO.C,C18*%
X129151142Y-81129142D02*
X129103523Y-81176761D01*
X128960666Y-81224380D01*
X128865428Y-81224380D01*
X128722571Y-81176761D01*
X128627333Y-81081523D01*
X128579714Y-80986285D01*
X128532095Y-80795809D01*
X128532095Y-80652952D01*
X128579714Y-80462476D01*
X128627333Y-80367238D01*
X128722571Y-80272000D01*
X128865428Y-80224380D01*
X128960666Y-80224380D01*
X129103523Y-80272000D01*
X129151142Y-80319619D01*
X130103523Y-81224380D02*
X129532095Y-81224380D01*
X129817809Y-81224380D02*
X129817809Y-80224380D01*
X129722571Y-80367238D01*
X129627333Y-80462476D01*
X129532095Y-80510095D01*
X130674952Y-80652952D02*
X130579714Y-80605333D01*
X130532095Y-80557714D01*
X130484476Y-80462476D01*
X130484476Y-80414857D01*
X130532095Y-80319619D01*
X130579714Y-80272000D01*
X130674952Y-80224380D01*
X130865428Y-80224380D01*
X130960666Y-80272000D01*
X131008285Y-80319619D01*
X131055904Y-80414857D01*
X131055904Y-80462476D01*
X131008285Y-80557714D01*
X130960666Y-80605333D01*
X130865428Y-80652952D01*
X130674952Y-80652952D01*
X130579714Y-80700571D01*
X130532095Y-80748190D01*
X130484476Y-80843428D01*
X130484476Y-81033904D01*
X130532095Y-81129142D01*
X130579714Y-81176761D01*
X130674952Y-81224380D01*
X130865428Y-81224380D01*
X130960666Y-81176761D01*
X131008285Y-81129142D01*
X131055904Y-81033904D01*
X131055904Y-80843428D01*
X131008285Y-80748190D01*
X130960666Y-80700571D01*
X130865428Y-80652952D01*
%TO.C,R18*%
X146883380Y-105544857D02*
X146407190Y-105878190D01*
X146883380Y-106116285D02*
X145883380Y-106116285D01*
X145883380Y-105735333D01*
X145931000Y-105640095D01*
X145978619Y-105592476D01*
X146073857Y-105544857D01*
X146216714Y-105544857D01*
X146311952Y-105592476D01*
X146359571Y-105640095D01*
X146407190Y-105735333D01*
X146407190Y-106116285D01*
X146883380Y-104592476D02*
X146883380Y-105163904D01*
X146883380Y-104878190D02*
X145883380Y-104878190D01*
X146026238Y-104973428D01*
X146121476Y-105068666D01*
X146169095Y-105163904D01*
X146311952Y-104021047D02*
X146264333Y-104116285D01*
X146216714Y-104163904D01*
X146121476Y-104211523D01*
X146073857Y-104211523D01*
X145978619Y-104163904D01*
X145931000Y-104116285D01*
X145883380Y-104021047D01*
X145883380Y-103830571D01*
X145931000Y-103735333D01*
X145978619Y-103687714D01*
X146073857Y-103640095D01*
X146121476Y-103640095D01*
X146216714Y-103687714D01*
X146264333Y-103735333D01*
X146311952Y-103830571D01*
X146311952Y-104021047D01*
X146359571Y-104116285D01*
X146407190Y-104163904D01*
X146502428Y-104211523D01*
X146692904Y-104211523D01*
X146788142Y-104163904D01*
X146835761Y-104116285D01*
X146883380Y-104021047D01*
X146883380Y-103830571D01*
X146835761Y-103735333D01*
X146788142Y-103687714D01*
X146692904Y-103640095D01*
X146502428Y-103640095D01*
X146407190Y-103687714D01*
X146359571Y-103735333D01*
X146311952Y-103830571D01*
%TO.C,C31*%
X133453142Y-106306857D02*
X133500761Y-106354476D01*
X133548380Y-106497333D01*
X133548380Y-106592571D01*
X133500761Y-106735428D01*
X133405523Y-106830666D01*
X133310285Y-106878285D01*
X133119809Y-106925904D01*
X132976952Y-106925904D01*
X132786476Y-106878285D01*
X132691238Y-106830666D01*
X132596000Y-106735428D01*
X132548380Y-106592571D01*
X132548380Y-106497333D01*
X132596000Y-106354476D01*
X132643619Y-106306857D01*
X132548380Y-105973523D02*
X132548380Y-105354476D01*
X132929333Y-105687809D01*
X132929333Y-105544952D01*
X132976952Y-105449714D01*
X133024571Y-105402095D01*
X133119809Y-105354476D01*
X133357904Y-105354476D01*
X133453142Y-105402095D01*
X133500761Y-105449714D01*
X133548380Y-105544952D01*
X133548380Y-105830666D01*
X133500761Y-105925904D01*
X133453142Y-105973523D01*
X133548380Y-104402095D02*
X133548380Y-104973523D01*
X133548380Y-104687809D02*
X132548380Y-104687809D01*
X132691238Y-104783047D01*
X132786476Y-104878285D01*
X132834095Y-104973523D01*
%TO.C,C16*%
X155440142Y-83161142D02*
X155392523Y-83208761D01*
X155249666Y-83256380D01*
X155154428Y-83256380D01*
X155011571Y-83208761D01*
X154916333Y-83113523D01*
X154868714Y-83018285D01*
X154821095Y-82827809D01*
X154821095Y-82684952D01*
X154868714Y-82494476D01*
X154916333Y-82399238D01*
X155011571Y-82304000D01*
X155154428Y-82256380D01*
X155249666Y-82256380D01*
X155392523Y-82304000D01*
X155440142Y-82351619D01*
X156392523Y-83256380D02*
X155821095Y-83256380D01*
X156106809Y-83256380D02*
X156106809Y-82256380D01*
X156011571Y-82399238D01*
X155916333Y-82494476D01*
X155821095Y-82542095D01*
X157249666Y-82256380D02*
X157059190Y-82256380D01*
X156963952Y-82304000D01*
X156916333Y-82351619D01*
X156821095Y-82494476D01*
X156773476Y-82684952D01*
X156773476Y-83065904D01*
X156821095Y-83161142D01*
X156868714Y-83208761D01*
X156963952Y-83256380D01*
X157154428Y-83256380D01*
X157249666Y-83208761D01*
X157297285Y-83161142D01*
X157344904Y-83065904D01*
X157344904Y-82827809D01*
X157297285Y-82732571D01*
X157249666Y-82684952D01*
X157154428Y-82637333D01*
X156963952Y-82637333D01*
X156868714Y-82684952D01*
X156821095Y-82732571D01*
X156773476Y-82827809D01*
%TO.C,C2*%
X163425142Y-80303666D02*
X163472761Y-80351285D01*
X163520380Y-80494142D01*
X163520380Y-80589380D01*
X163472761Y-80732238D01*
X163377523Y-80827476D01*
X163282285Y-80875095D01*
X163091809Y-80922714D01*
X162948952Y-80922714D01*
X162758476Y-80875095D01*
X162663238Y-80827476D01*
X162568000Y-80732238D01*
X162520380Y-80589380D01*
X162520380Y-80494142D01*
X162568000Y-80351285D01*
X162615619Y-80303666D01*
X162615619Y-79922714D02*
X162568000Y-79875095D01*
X162520380Y-79779857D01*
X162520380Y-79541761D01*
X162568000Y-79446523D01*
X162615619Y-79398904D01*
X162710857Y-79351285D01*
X162806095Y-79351285D01*
X162948952Y-79398904D01*
X163520380Y-79970333D01*
X163520380Y-79351285D01*
%TO.C,C27*%
X138395642Y-106656142D02*
X138348023Y-106703761D01*
X138205166Y-106751380D01*
X138109928Y-106751380D01*
X137967071Y-106703761D01*
X137871833Y-106608523D01*
X137824214Y-106513285D01*
X137776595Y-106322809D01*
X137776595Y-106179952D01*
X137824214Y-105989476D01*
X137871833Y-105894238D01*
X137967071Y-105799000D01*
X138109928Y-105751380D01*
X138205166Y-105751380D01*
X138348023Y-105799000D01*
X138395642Y-105846619D01*
X138776595Y-105846619D02*
X138824214Y-105799000D01*
X138919452Y-105751380D01*
X139157547Y-105751380D01*
X139252785Y-105799000D01*
X139300404Y-105846619D01*
X139348023Y-105941857D01*
X139348023Y-106037095D01*
X139300404Y-106179952D01*
X138728976Y-106751380D01*
X139348023Y-106751380D01*
X139681357Y-105751380D02*
X140348023Y-105751380D01*
X139919452Y-106751380D01*
%TO.C,C11*%
X146915142Y-95765857D02*
X146962761Y-95813476D01*
X147010380Y-95956333D01*
X147010380Y-96051571D01*
X146962761Y-96194428D01*
X146867523Y-96289666D01*
X146772285Y-96337285D01*
X146581809Y-96384904D01*
X146438952Y-96384904D01*
X146248476Y-96337285D01*
X146153238Y-96289666D01*
X146058000Y-96194428D01*
X146010380Y-96051571D01*
X146010380Y-95956333D01*
X146058000Y-95813476D01*
X146105619Y-95765857D01*
X147010380Y-94813476D02*
X147010380Y-95384904D01*
X147010380Y-95099190D02*
X146010380Y-95099190D01*
X146153238Y-95194428D01*
X146248476Y-95289666D01*
X146296095Y-95384904D01*
X147010380Y-93861095D02*
X147010380Y-94432523D01*
X147010380Y-94146809D02*
X146010380Y-94146809D01*
X146153238Y-94242047D01*
X146248476Y-94337285D01*
X146296095Y-94432523D01*
%TO.C,C25*%
X138422142Y-105132142D02*
X138374523Y-105179761D01*
X138231666Y-105227380D01*
X138136428Y-105227380D01*
X137993571Y-105179761D01*
X137898333Y-105084523D01*
X137850714Y-104989285D01*
X137803095Y-104798809D01*
X137803095Y-104655952D01*
X137850714Y-104465476D01*
X137898333Y-104370238D01*
X137993571Y-104275000D01*
X138136428Y-104227380D01*
X138231666Y-104227380D01*
X138374523Y-104275000D01*
X138422142Y-104322619D01*
X138803095Y-104322619D02*
X138850714Y-104275000D01*
X138945952Y-104227380D01*
X139184047Y-104227380D01*
X139279285Y-104275000D01*
X139326904Y-104322619D01*
X139374523Y-104417857D01*
X139374523Y-104513095D01*
X139326904Y-104655952D01*
X138755476Y-105227380D01*
X139374523Y-105227380D01*
X140279285Y-104227380D02*
X139803095Y-104227380D01*
X139755476Y-104703571D01*
X139803095Y-104655952D01*
X139898333Y-104608333D01*
X140136428Y-104608333D01*
X140231666Y-104655952D01*
X140279285Y-104703571D01*
X140326904Y-104798809D01*
X140326904Y-105036904D01*
X140279285Y-105132142D01*
X140231666Y-105179761D01*
X140136428Y-105227380D01*
X139898333Y-105227380D01*
X139803095Y-105179761D01*
X139755476Y-105132142D01*
%TO.C,C3*%
X135977333Y-82145142D02*
X135929714Y-82192761D01*
X135786857Y-82240380D01*
X135691619Y-82240380D01*
X135548761Y-82192761D01*
X135453523Y-82097523D01*
X135405904Y-82002285D01*
X135358285Y-81811809D01*
X135358285Y-81668952D01*
X135405904Y-81478476D01*
X135453523Y-81383238D01*
X135548761Y-81288000D01*
X135691619Y-81240380D01*
X135786857Y-81240380D01*
X135929714Y-81288000D01*
X135977333Y-81335619D01*
X136310666Y-81240380D02*
X136929714Y-81240380D01*
X136596380Y-81621333D01*
X136739238Y-81621333D01*
X136834476Y-81668952D01*
X136882095Y-81716571D01*
X136929714Y-81811809D01*
X136929714Y-82049904D01*
X136882095Y-82145142D01*
X136834476Y-82192761D01*
X136739238Y-82240380D01*
X136453523Y-82240380D01*
X136358285Y-82192761D01*
X136310666Y-82145142D01*
D12*
%TO.C,J2*%
X117750000Y-88070000D02*
X116640000Y-88070000D01*
X122260000Y-74110000D02*
X122260000Y-74935000D01*
X116640000Y-70930000D02*
X117750000Y-70930000D01*
X117750000Y-70930000D02*
X117750000Y-71955000D01*
X122260000Y-74935000D02*
X124060000Y-74935000D01*
X122260000Y-84065000D02*
X122260000Y-84890000D01*
X116640000Y-88070000D02*
X116640000Y-70930000D01*
X117750000Y-87045000D02*
X117750000Y-88070000D01*
X118290000Y-87045000D02*
X117750000Y-87045000D01*
X117750000Y-71955000D02*
X118290000Y-71955000D01*
%TO.C,R16*%
X154151000Y-114961936D02*
X154151000Y-115416064D01*
X152681000Y-114961936D02*
X152681000Y-115416064D01*
%TO.C,R20*%
X162053536Y-100585600D02*
X162507664Y-100585600D01*
X162053536Y-102055600D02*
X162507664Y-102055600D01*
%TO.C,R10*%
X132715436Y-85244000D02*
X133169564Y-85244000D01*
X132715436Y-86714000D02*
X133169564Y-86714000D01*
%TO.C,C4*%
X137433267Y-86489000D02*
X137140733Y-86489000D01*
X137433267Y-85469000D02*
X137140733Y-85469000D01*
%TO.C,C24*%
X132679733Y-77599000D02*
X132972267Y-77599000D01*
X132679733Y-76579000D02*
X132972267Y-76579000D01*
%TO.C,R6*%
X151103000Y-111987064D02*
X151103000Y-111532936D01*
X149633000Y-111987064D02*
X149633000Y-111532936D01*
%TO.C,C17*%
X155936733Y-87632000D02*
X156229267Y-87632000D01*
X155936733Y-86612000D02*
X156229267Y-86612000D01*
%TO.C,J3*%
X165826929Y-69470000D02*
X166224000Y-69470000D01*
X165826929Y-64390000D02*
X166224000Y-64390000D01*
X165826929Y-67690000D02*
X166224000Y-67690000D01*
X163286929Y-72010000D02*
X163741071Y-72010000D01*
X163286929Y-70230000D02*
X163741071Y-70230000D01*
X166224000Y-71120000D02*
X168884000Y-71120000D01*
X163286929Y-69470000D02*
X163741071Y-69470000D01*
X163286929Y-64390000D02*
X163741071Y-64390000D01*
X168884000Y-73720000D02*
X168884000Y-58360000D01*
X166224000Y-73720000D02*
X168884000Y-73720000D01*
X165826929Y-62610000D02*
X166224000Y-62610000D01*
X165826929Y-72770000D02*
X166224000Y-72770000D01*
X166224000Y-63500000D02*
X168884000Y-63500000D01*
X165826929Y-61850000D02*
X166224000Y-61850000D01*
X166224000Y-60960000D02*
X168884000Y-60960000D01*
X160974000Y-58420000D02*
X162244000Y-58420000D01*
X165826929Y-60070000D02*
X166224000Y-60070000D01*
X163286929Y-62610000D02*
X163741071Y-62610000D01*
X165826929Y-70230000D02*
X166224000Y-70230000D01*
X163354000Y-60070000D02*
X163741071Y-60070000D01*
X163354000Y-59310000D02*
X163741071Y-59310000D01*
X163286929Y-67690000D02*
X163741071Y-67690000D01*
X165826929Y-66930000D02*
X166224000Y-66930000D01*
X166224000Y-58360000D02*
X166224000Y-73720000D01*
X163286929Y-61850000D02*
X163741071Y-61850000D01*
X163286929Y-72770000D02*
X163741071Y-72770000D01*
X166224000Y-68580000D02*
X168884000Y-68580000D01*
X168884000Y-58360000D02*
X166224000Y-58360000D01*
X165826929Y-72010000D02*
X166224000Y-72010000D01*
X163286929Y-65150000D02*
X163741071Y-65150000D01*
X163286929Y-66930000D02*
X163741071Y-66930000D01*
X166224000Y-66040000D02*
X168884000Y-66040000D01*
X165826929Y-65150000D02*
X166224000Y-65150000D01*
X165826929Y-59310000D02*
X166224000Y-59310000D01*
X160974000Y-59690000D02*
X160974000Y-58420000D01*
%TO.C,C13*%
X141861000Y-76561733D02*
X141861000Y-76854267D01*
X140841000Y-76561733D02*
X140841000Y-76854267D01*
%TO.C,SW1*%
X139451000Y-110534500D02*
X139451000Y-114594500D01*
X140121000Y-110534500D02*
X140121000Y-111887833D01*
X135126000Y-107614500D02*
X135126000Y-117514500D01*
X140721000Y-111887833D02*
X139451000Y-111887833D01*
X136911000Y-114594500D02*
X138181000Y-114594500D01*
X136981000Y-110534500D02*
X136981000Y-111887833D01*
X137221000Y-110534500D02*
X137221000Y-111887833D01*
X142746000Y-107374500D02*
X141363000Y-107374500D01*
X138181000Y-110534500D02*
X136911000Y-110534500D01*
X137821000Y-110534500D02*
X137821000Y-111887833D01*
X137701000Y-110534500D02*
X137701000Y-111887833D01*
X137341000Y-110534500D02*
X137341000Y-111887833D01*
X137101000Y-110534500D02*
X137101000Y-111887833D01*
X137581000Y-110534500D02*
X137581000Y-111887833D01*
X138061000Y-110534500D02*
X138061000Y-111887833D01*
X139641000Y-110534500D02*
X139641000Y-111887833D01*
X140721000Y-110534500D02*
X139451000Y-110534500D01*
X139521000Y-110534500D02*
X139521000Y-111887833D01*
X139451000Y-114594500D02*
X140721000Y-114594500D01*
X140361000Y-110534500D02*
X140361000Y-111887833D01*
X142506000Y-107614500D02*
X142506000Y-117514500D01*
X137941000Y-110534500D02*
X137941000Y-111887833D01*
X136911000Y-110534500D02*
X136911000Y-114594500D01*
X137461000Y-110534500D02*
X137461000Y-111887833D01*
X142506000Y-117514500D02*
X135126000Y-117514500D01*
X142506000Y-107614500D02*
X135126000Y-107614500D01*
X140001000Y-110534500D02*
X140001000Y-111887833D01*
X140241000Y-110534500D02*
X140241000Y-111887833D01*
X138181000Y-114594500D02*
X138181000Y-110534500D01*
X140601000Y-110534500D02*
X140601000Y-111887833D01*
X139761000Y-110534500D02*
X139761000Y-111887833D01*
X140481000Y-110534500D02*
X140481000Y-111887833D01*
X138181000Y-111887833D02*
X136911000Y-111887833D01*
X142746000Y-107374500D02*
X142746000Y-108758500D01*
X139881000Y-110534500D02*
X139881000Y-111887833D01*
X140721000Y-114594500D02*
X140721000Y-110534500D01*
%TO.C,RN3*%
X158234000Y-74324000D02*
X157234000Y-74324000D01*
X158234000Y-70964000D02*
X157234000Y-70964000D01*
%TO.C,D4*%
X151328000Y-117421000D02*
X151328000Y-114561000D01*
X149408000Y-114561000D02*
X149408000Y-117421000D01*
X149408000Y-117421000D02*
X151328000Y-117421000D01*
%TO.C,C28*%
X131806733Y-68959000D02*
X132099267Y-68959000D01*
X131806733Y-69979000D02*
X132099267Y-69979000D01*
%TO.C,C23*%
X139156733Y-100455000D02*
X139449267Y-100455000D01*
X139156733Y-101475000D02*
X139449267Y-101475000D01*
%TO.C,C6*%
X151745733Y-77468000D02*
X152038267Y-77468000D01*
X151745733Y-78488000D02*
X152038267Y-78488000D01*
%TO.C,C10*%
X147572000Y-98024733D02*
X147572000Y-98317267D01*
X148592000Y-98024733D02*
X148592000Y-98317267D01*
%TO.C,D2*%
X145090000Y-114570000D02*
X145090000Y-117430000D01*
X145090000Y-117430000D02*
X147010000Y-117430000D01*
X147010000Y-117430000D02*
X147010000Y-114570000D01*
%TO.C,C19*%
X132669233Y-83691000D02*
X132961767Y-83691000D01*
X132669233Y-84711000D02*
X132961767Y-84711000D01*
%TO.C,RN5*%
X157980000Y-109953000D02*
X156980000Y-109953000D01*
X157980000Y-113313000D02*
X156980000Y-113313000D01*
%TO.C,Y1*%
X158274000Y-76074000D02*
X158274000Y-79374000D01*
X158274000Y-79374000D02*
X162274000Y-79374000D01*
%TO.C,C1*%
X157863000Y-77870267D02*
X157863000Y-77577733D01*
X156843000Y-77870267D02*
X156843000Y-77577733D01*
%TO.C,R19*%
X145302500Y-102108724D02*
X145302500Y-101599276D01*
X144257500Y-102108724D02*
X144257500Y-101599276D01*
%TO.C,D1*%
X142939000Y-114570000D02*
X142939000Y-117430000D01*
X144859000Y-117430000D02*
X144859000Y-114570000D01*
X142939000Y-117430000D02*
X144859000Y-117430000D01*
%TO.C,C8*%
X138830267Y-79123000D02*
X138537733Y-79123000D01*
X138830267Y-78103000D02*
X138537733Y-78103000D01*
%TO.C,J4*%
X163286929Y-95630000D02*
X163741071Y-95630000D01*
X166224000Y-86360000D02*
X168884000Y-86360000D01*
X160974000Y-81280000D02*
X162244000Y-81280000D01*
X165826929Y-93090000D02*
X166224000Y-93090000D01*
X165826929Y-89790000D02*
X166224000Y-89790000D01*
X163286929Y-94870000D02*
X163741071Y-94870000D01*
X165826929Y-92330000D02*
X166224000Y-92330000D01*
X166224000Y-91440000D02*
X168884000Y-91440000D01*
X163354000Y-82170000D02*
X163741071Y-82170000D01*
X165826929Y-84710000D02*
X166224000Y-84710000D01*
X165826929Y-82930000D02*
X166224000Y-82930000D01*
X165826929Y-82170000D02*
X166224000Y-82170000D01*
X166224000Y-93980000D02*
X168884000Y-93980000D01*
X163286929Y-89790000D02*
X163741071Y-89790000D01*
X166224000Y-81220000D02*
X166224000Y-96580000D01*
X163286929Y-90550000D02*
X163741071Y-90550000D01*
X165826929Y-85470000D02*
X166224000Y-85470000D01*
X163354000Y-82930000D02*
X163741071Y-82930000D01*
X160974000Y-82550000D02*
X160974000Y-81280000D01*
X168884000Y-81220000D02*
X166224000Y-81220000D01*
X163286929Y-84710000D02*
X163741071Y-84710000D01*
X163286929Y-87250000D02*
X163741071Y-87250000D01*
X165826929Y-90550000D02*
X166224000Y-90550000D01*
X163286929Y-85470000D02*
X163741071Y-85470000D01*
X166224000Y-96580000D02*
X168884000Y-96580000D01*
X163286929Y-88010000D02*
X163741071Y-88010000D01*
X163286929Y-93090000D02*
X163741071Y-93090000D01*
X168884000Y-96580000D02*
X168884000Y-81220000D01*
X163286929Y-92330000D02*
X163741071Y-92330000D01*
X165826929Y-88010000D02*
X166224000Y-88010000D01*
X165826929Y-95630000D02*
X166224000Y-95630000D01*
X165826929Y-94870000D02*
X166224000Y-94870000D01*
X165826929Y-87250000D02*
X166224000Y-87250000D01*
X166224000Y-83820000D02*
X168884000Y-83820000D01*
X166224000Y-88900000D02*
X168884000Y-88900000D01*
%TO.C,D3*%
X149169000Y-117430000D02*
X149169000Y-114570000D01*
X147249000Y-114570000D02*
X147249000Y-117430000D01*
X147249000Y-117430000D02*
X149169000Y-117430000D01*
%TO.C,C9*%
X151745733Y-78992000D02*
X152038267Y-78992000D01*
X151745733Y-80012000D02*
X152038267Y-80012000D01*
%TO.C,R17*%
X154532064Y-117375000D02*
X154077936Y-117375000D01*
X154532064Y-118845000D02*
X154077936Y-118845000D01*
%TO.C,C30*%
X136237000Y-61375000D02*
X136237000Y-63075000D01*
X130717000Y-65830563D02*
X130717000Y-65195000D01*
X131781437Y-66895000D02*
X136237000Y-66895000D01*
X130717000Y-62439437D02*
X130717000Y-63075000D01*
X136237000Y-66895000D02*
X136237000Y-65195000D01*
X130717000Y-65830563D02*
X131781437Y-66895000D01*
X131781437Y-61375000D02*
X136237000Y-61375000D01*
X130717000Y-62439437D02*
X131781437Y-61375000D01*
%TO.C,R3*%
X143156000Y-111532936D02*
X143156000Y-111987064D01*
X144626000Y-111532936D02*
X144626000Y-111987064D01*
%TO.C,C34*%
X157507000Y-106560252D02*
X157507000Y-106037748D01*
X158977000Y-106560252D02*
X158977000Y-106037748D01*
%TO.C,C32*%
X155704000Y-64408267D02*
X155704000Y-64115733D01*
X154684000Y-64408267D02*
X154684000Y-64115733D01*
%TO.C,R2*%
X143864000Y-76681064D02*
X143864000Y-76226936D01*
X142394000Y-76681064D02*
X142394000Y-76226936D01*
%TO.C,R15*%
X132725936Y-79602000D02*
X133180064Y-79602000D01*
X132725936Y-78132000D02*
X133180064Y-78132000D01*
%TO.C,R4*%
X145315000Y-111532936D02*
X145315000Y-111987064D01*
X146785000Y-111532936D02*
X146785000Y-111987064D01*
%TO.C,C12*%
X142386267Y-78611000D02*
X142093733Y-78611000D01*
X142386267Y-79631000D02*
X142093733Y-79631000D01*
%TO.C,C22*%
X135235733Y-97157000D02*
X135528267Y-97157000D01*
X135235733Y-96137000D02*
X135528267Y-96137000D01*
%TO.C,RN4*%
X158234000Y-93824000D02*
X157234000Y-93824000D01*
X158234000Y-97184000D02*
X157234000Y-97184000D01*
%TO.C,R11*%
X135260136Y-92070200D02*
X135714264Y-92070200D01*
X135260136Y-90600200D02*
X135714264Y-90600200D01*
%TO.C,R1*%
X146458000Y-77951064D02*
X146458000Y-77496936D01*
X147928000Y-77951064D02*
X147928000Y-77496936D01*
%TO.C,C29*%
X153130000Y-64408267D02*
X153130000Y-64115733D01*
X154150000Y-64408267D02*
X154150000Y-64115733D01*
%TO.C,C7*%
X137433267Y-88140000D02*
X137140733Y-88140000D01*
X137433267Y-87120000D02*
X137140733Y-87120000D01*
%TO.C,R14*%
X139202936Y-102008000D02*
X139657064Y-102008000D01*
X139202936Y-103478000D02*
X139657064Y-103478000D01*
D13*
%TO.C,U1*%
X141833600Y-81762600D02*
X140944600Y-81762600D01*
X150266400Y-91973400D02*
X151155400Y-91973400D01*
X151155400Y-81762600D02*
X150266400Y-81762600D01*
X140944600Y-91084400D02*
X140944600Y-91973400D01*
X140944600Y-91973400D02*
X141833600Y-91973400D01*
X140944600Y-81762600D02*
X140944600Y-82651600D01*
X151155400Y-91973400D02*
X151155400Y-91084400D01*
X151155400Y-82651600D02*
X151155400Y-81762600D01*
D12*
%TO.C,C15*%
X153650733Y-93343000D02*
X153943267Y-93343000D01*
X153650733Y-94363000D02*
X153943267Y-94363000D01*
%TO.C,C14*%
X153650733Y-92839000D02*
X153943267Y-92839000D01*
X153650733Y-91819000D02*
X153943267Y-91819000D01*
%TO.C,R13*%
X135281936Y-97690000D02*
X135736064Y-97690000D01*
X135281936Y-99160000D02*
X135736064Y-99160000D01*
%TO.C,C5*%
X138830267Y-80647000D02*
X138537733Y-80647000D01*
X138830267Y-79627000D02*
X138537733Y-79627000D01*
%TO.C,R7*%
X134466000Y-115342936D02*
X134466000Y-115797064D01*
X132996000Y-115342936D02*
X132996000Y-115797064D01*
%TO.C,R8*%
X132757936Y-83158000D02*
X133212064Y-83158000D01*
X132757936Y-81688000D02*
X133212064Y-81688000D01*
D14*
%TO.C,J1*%
X116762500Y-69000000D02*
X117402500Y-69000000D01*
X122762500Y-61530000D02*
X122762500Y-60000000D01*
X122762500Y-67470000D02*
X122762500Y-69000000D01*
X117402500Y-60000000D02*
X116762500Y-60000000D01*
X122762500Y-69000000D02*
X120022500Y-69000000D01*
X116762500Y-60000000D02*
X116762500Y-69000000D01*
X122762500Y-60000000D02*
X120022500Y-60000000D01*
D15*
X124412500Y-62250000D02*
G75*
G03*
X124412500Y-62250000I-100000J0D01*
G01*
D12*
%TO.C,J7*%
X141706000Y-67507000D02*
X141800000Y-67413000D01*
X148086000Y-61672000D02*
X140966000Y-61672000D01*
X148086000Y-62132000D02*
X140966000Y-62132000D01*
X148086000Y-63232000D02*
X140966000Y-63232000D01*
X140966000Y-69392000D02*
X140966000Y-61672000D01*
X141501000Y-67301000D02*
X141630000Y-67173000D01*
X148086000Y-69392000D02*
X140966000Y-69392000D01*
X148326000Y-62072000D02*
X148326000Y-61432000D01*
X143921000Y-65291000D02*
X144050000Y-65163000D01*
X143751000Y-65051000D02*
X143845000Y-64958000D01*
X148086000Y-69392000D02*
X148086000Y-61672000D01*
X148326000Y-61432000D02*
X147926000Y-61432000D01*
X144850495Y-67122193D02*
G75*
G02*
X144851000Y-65341000I1425505J890193D01*
G01*
X147701358Y-65342106D02*
G75*
G02*
X147716000Y-67098000I-1425358J-889894D01*
G01*
X147165894Y-67657358D02*
G75*
G02*
X145410000Y-67672000I-889894J1425358D01*
G01*
X146247326Y-64551901D02*
G75*
G02*
X147142000Y-64792000I28674J-1680099D01*
G01*
X145385736Y-64807279D02*
G75*
G02*
X146276000Y-64552000I890264J-1424721D01*
G01*
X144456000Y-66232000D02*
G75*
G03*
X144456000Y-66232000I-1680000J0D01*
G01*
%TO.C,R9*%
X130964000Y-115342936D02*
X130964000Y-115797064D01*
X132434000Y-115342936D02*
X132434000Y-115797064D01*
%TO.C,J5*%
X165826929Y-105790000D02*
X166224000Y-105790000D01*
X163286929Y-110870000D02*
X163741071Y-110870000D01*
X163286929Y-107570000D02*
X163741071Y-107570000D01*
X163354000Y-105030000D02*
X163741071Y-105030000D01*
X165826929Y-112650000D02*
X166224000Y-112650000D01*
X165826929Y-107570000D02*
X166224000Y-107570000D01*
X166224000Y-106680000D02*
X168884000Y-106680000D01*
X165826929Y-117730000D02*
X166224000Y-117730000D01*
X163286929Y-112650000D02*
X163741071Y-112650000D01*
X165826929Y-110870000D02*
X166224000Y-110870000D01*
X163286929Y-115950000D02*
X163741071Y-115950000D01*
X166224000Y-114300000D02*
X168884000Y-114300000D01*
X166224000Y-111760000D02*
X168884000Y-111760000D01*
X165826929Y-113410000D02*
X166224000Y-113410000D01*
X165826929Y-115190000D02*
X166224000Y-115190000D01*
X163286929Y-115190000D02*
X163741071Y-115190000D01*
X165826929Y-108330000D02*
X166224000Y-108330000D01*
X163286929Y-117730000D02*
X163741071Y-117730000D01*
X163286929Y-118490000D02*
X163741071Y-118490000D01*
X163354000Y-105790000D02*
X163741071Y-105790000D01*
X166224000Y-104080000D02*
X166224000Y-119440000D01*
X163286929Y-110110000D02*
X163741071Y-110110000D01*
X166224000Y-116840000D02*
X168884000Y-116840000D01*
X165826929Y-118490000D02*
X166224000Y-118490000D01*
X165826929Y-105030000D02*
X166224000Y-105030000D01*
X165826929Y-110110000D02*
X166224000Y-110110000D01*
X168884000Y-119440000D02*
X168884000Y-104080000D01*
X160974000Y-105410000D02*
X160974000Y-104140000D01*
X168884000Y-104080000D02*
X166224000Y-104080000D01*
X166224000Y-109220000D02*
X168884000Y-109220000D01*
X160974000Y-104140000D02*
X162244000Y-104140000D01*
X163286929Y-113410000D02*
X163741071Y-113410000D01*
X163286929Y-108330000D02*
X163741071Y-108330000D01*
X166224000Y-119440000D02*
X168884000Y-119440000D01*
X165826929Y-115950000D02*
X166224000Y-115950000D01*
%TO.C,C33*%
X149579000Y-105036252D02*
X149579000Y-104513748D01*
X148109000Y-105036252D02*
X148109000Y-104513748D01*
%TO.C,RN2*%
X158234000Y-88617000D02*
X157234000Y-88617000D01*
X158234000Y-91977000D02*
X157234000Y-91977000D01*
%TO.C,R21*%
X162053536Y-100074400D02*
X162507664Y-100074400D01*
X162053536Y-98604400D02*
X162507664Y-98604400D01*
%TO.C,R12*%
X135281936Y-94134000D02*
X135736064Y-94134000D01*
X135281936Y-95604000D02*
X135736064Y-95604000D01*
%TO.C,R5*%
X148944000Y-112003064D02*
X148944000Y-111548936D01*
X147474000Y-112003064D02*
X147474000Y-111548936D01*
D14*
%TO.C,J6*%
X116669500Y-99997000D02*
X116669500Y-117427000D01*
X116669500Y-117427000D02*
X117619500Y-117427000D01*
X116669500Y-99997000D02*
X117619500Y-99997000D01*
D15*
X122519500Y-102812000D02*
G75*
G03*
X122519500Y-102812000I-100000J0D01*
G01*
D12*
%TO.C,U2*%
X156953000Y-105609000D02*
X156953000Y-101849000D01*
X150133000Y-101849000D02*
X151393000Y-101849000D01*
X156953000Y-101849000D02*
X155693000Y-101849000D01*
X150133000Y-107859000D02*
X150133000Y-101849000D01*
%TO.C,C26*%
X131806733Y-67435000D02*
X132099267Y-67435000D01*
X131806733Y-68455000D02*
X132099267Y-68455000D01*
%TO.C,RN1*%
X158234000Y-69117000D02*
X157234000Y-69117000D01*
X158234000Y-65757000D02*
X157234000Y-65757000D01*
%TO.C,C21*%
X135235733Y-92581000D02*
X135528267Y-92581000D01*
X135235733Y-93601000D02*
X135528267Y-93601000D01*
%TO.C,F1*%
X152614000Y-64251252D02*
X152614000Y-61478748D01*
X149194000Y-64251252D02*
X149194000Y-61478748D01*
%TO.C,C20*%
X135235733Y-90045000D02*
X135528267Y-90045000D01*
X135235733Y-89025000D02*
X135528267Y-89025000D01*
%TO.C,C18*%
X132711733Y-81155000D02*
X133004267Y-81155000D01*
X132711733Y-80135000D02*
X133004267Y-80135000D01*
%TO.C,R18*%
X146953500Y-102108724D02*
X146953500Y-101599276D01*
X145908500Y-102108724D02*
X145908500Y-101599276D01*
%TO.C,C31*%
X133013563Y-102650000D02*
X134078000Y-103714437D01*
X133013563Y-102650000D02*
X132378000Y-102650000D01*
X128558000Y-103714437D02*
X128558000Y-108170000D01*
X128558000Y-108170000D02*
X130258000Y-108170000D01*
X134078000Y-108170000D02*
X132378000Y-108170000D01*
X134078000Y-103714437D02*
X134078000Y-108170000D01*
X129622437Y-102650000D02*
X130258000Y-102650000D01*
X129622437Y-102650000D02*
X128558000Y-103714437D01*
%TO.C,C16*%
X155936733Y-86108000D02*
X156229267Y-86108000D01*
X155936733Y-85088000D02*
X156229267Y-85088000D01*
%TO.C,C2*%
X163705000Y-77577733D02*
X163705000Y-77870267D01*
X162685000Y-77577733D02*
X162685000Y-77870267D01*
%TO.C,C27*%
X135870733Y-105789000D02*
X136163267Y-105789000D01*
X135870733Y-106809000D02*
X136163267Y-106809000D01*
%TO.C,C11*%
X147068000Y-98024733D02*
X147068000Y-98317267D01*
X146048000Y-98024733D02*
X146048000Y-98317267D01*
%TO.C,C25*%
X135870733Y-104265000D02*
X136163267Y-104265000D01*
X135870733Y-105285000D02*
X136163267Y-105285000D01*
%TO.C,C3*%
X138537733Y-82171000D02*
X138830267Y-82171000D01*
X138537733Y-81151000D02*
X138830267Y-81151000D01*
%TD*%
M02*
