%TF.GenerationSoftware,KiCad,Pcbnew,(5.99.0-12717-g57c7d663b0)*%
%TF.CreationDate,2021-10-22T19:22:41+02:00*%
%TF.ProjectId,video_converter,76696465-6f5f-4636-9f6e-766572746572,rev?*%
%TF.SameCoordinates,Original*%
%TF.FileFunction,Copper,L2,Inr*%
%TF.FilePolarity,Positive*%
%FSLAX46Y46*%
G04 Gerber Fmt 4.6, Leading zero omitted, Abs format (unit mm)*
G04 Created by KiCad (PCBNEW (5.99.0-12717-g57c7d663b0)) date 2021-10-22 19:22:41*
%MOMM*%
%LPD*%
G01*
G04 APERTURE LIST*
%TA.AperFunction,ComponentPad*%
%ADD10R,1.700000X1.700000*%
%TD*%
%TA.AperFunction,ComponentPad*%
%ADD11O,1.700000X1.700000*%
%TD*%
%TA.AperFunction,ComponentPad*%
%ADD12R,1.600000X1.600000*%
%TD*%
%TA.AperFunction,ComponentPad*%
%ADD13O,1.600000X1.600000*%
%TD*%
%TA.AperFunction,ComponentPad*%
%ADD14R,2.400000X2.400000*%
%TD*%
%TA.AperFunction,ComponentPad*%
%ADD15C,2.400000*%
%TD*%
%TA.AperFunction,ViaPad*%
%ADD16C,0.800000*%
%TD*%
G04 APERTURE END LIST*
D10*
%TO.N,+3V3*%
%TO.C,J3*%
X162244000Y-59690000D03*
D11*
X164784000Y-59690000D03*
%TO.N,GND*%
X162244000Y-62230000D03*
X164784000Y-62230000D03*
%TO.N,Net-(J3-Pad5)*%
X162244000Y-64770000D03*
%TO.N,Net-(J3-Pad6)*%
X164784000Y-64770000D03*
%TO.N,Net-(J3-Pad7)*%
X162244000Y-67310000D03*
%TO.N,Net-(J3-Pad8)*%
X164784000Y-67310000D03*
%TO.N,Net-(J3-Pad9)*%
X162244000Y-69850000D03*
%TO.N,Net-(J3-Pad10)*%
X164784000Y-69850000D03*
%TO.N,Net-(J3-Pad11)*%
X162244000Y-72390000D03*
%TO.N,Net-(J3-Pad12)*%
X164784000Y-72390000D03*
%TD*%
D12*
%TO.N,Net-(R7-Pad1)*%
%TO.C,SW1*%
X140086000Y-108754500D03*
D13*
%TO.N,Net-(R9-Pad1)*%
X137546000Y-108754500D03*
%TO.N,+3V3*%
X137546000Y-116374500D03*
X140086000Y-116374500D03*
%TD*%
D10*
%TO.N,+3V3*%
%TO.C,J4*%
X162244000Y-82550000D03*
D11*
X164784000Y-82550000D03*
%TO.N,GND*%
X162244000Y-85090000D03*
X164784000Y-85090000D03*
%TO.N,Net-(J4-Pad5)*%
X162244000Y-87630000D03*
%TO.N,Net-(J4-Pad6)*%
X164784000Y-87630000D03*
%TO.N,Net-(J4-Pad7)*%
X162244000Y-90170000D03*
%TO.N,Net-(J4-Pad8)*%
X164784000Y-90170000D03*
%TO.N,Net-(J4-Pad9)*%
X162244000Y-92710000D03*
%TO.N,Net-(J4-Pad10)*%
X164784000Y-92710000D03*
%TO.N,Net-(J4-Pad11)*%
X162244000Y-95250000D03*
%TO.N,Net-(J4-Pad12)*%
X164784000Y-95250000D03*
%TD*%
D14*
%TO.N,Net-(F1-Pad2)*%
%TO.C,J7*%
X146276000Y-66232000D03*
D15*
%TO.N,GND*%
X142776000Y-66232000D03*
%TD*%
D10*
%TO.N,+3V3*%
%TO.C,J5*%
X162244000Y-105410000D03*
D11*
X164784000Y-105410000D03*
%TO.N,GND*%
X162244000Y-107950000D03*
X164784000Y-107950000D03*
%TO.N,Net-(J5-Pad5)*%
X162244000Y-110490000D03*
%TO.N,SDA*%
X164784000Y-110490000D03*
%TO.N,Net-(J5-Pad7)*%
X162244000Y-113030000D03*
%TO.N,SCLK*%
X164784000Y-113030000D03*
%TO.N,Net-(J5-Pad9)*%
X162244000Y-115570000D03*
%TO.N,Net-(J5-Pad10)*%
X164784000Y-115570000D03*
%TO.N,Net-(J5-Pad11)*%
X162244000Y-118110000D03*
%TO.N,RxD*%
X164784000Y-118110000D03*
%TD*%
D16*
%TO.N,GND*%
X129250000Y-110000000D03*
X129250000Y-113750000D03*
X115500000Y-69250000D03*
X115500000Y-59250000D03*
X167500000Y-59750000D03*
X167500000Y-72250000D03*
X167500000Y-82500000D03*
X167500000Y-95250000D03*
%TO.N,RxD*%
X119000000Y-75500000D03*
X123063000Y-113157000D03*
X117262299Y-78262299D03*
X152105500Y-118089020D03*
%TO.N,TxD*%
X123063000Y-114300000D03*
X154838400Y-115062000D03*
%TO.N,GND*%
X150520400Y-106451400D03*
X158877000Y-104267000D03*
X136424500Y-86767500D03*
X156845000Y-118110000D03*
X138455400Y-104800400D03*
X150622000Y-107696000D03*
X157734000Y-75184000D03*
X137821500Y-79348500D03*
X119507000Y-112395000D03*
X167500000Y-118000000D03*
X149343000Y-116595000D03*
X158154000Y-76874000D03*
X119507000Y-114300000D03*
X164312600Y-78587600D03*
X139827000Y-66675000D03*
X152250000Y-112250000D03*
X119000000Y-103750000D03*
X149504400Y-98475800D03*
X167500000Y-113000000D03*
X157734000Y-65151000D03*
X115500000Y-113000000D03*
X141986000Y-88138000D03*
X156845000Y-99695000D03*
X158242000Y-118110000D03*
X138480800Y-106299000D03*
X149987000Y-90424000D03*
X120000000Y-63750000D03*
X147202000Y-116595000D03*
X119507000Y-109474000D03*
X117602000Y-118491000D03*
X139827000Y-99060000D03*
X156945500Y-86386500D03*
X132731000Y-116570000D03*
X156921200Y-101422200D03*
X138176000Y-76454000D03*
X128000000Y-95000000D03*
X146812000Y-90932000D03*
X140462000Y-94234000D03*
X119507000Y-106426000D03*
X128000000Y-86750000D03*
X157734000Y-69850000D03*
X119507000Y-107442000D03*
X137346200Y-90356200D03*
X137578500Y-94869000D03*
X139827000Y-71120000D03*
X117000000Y-116250000D03*
X138280609Y-83100068D03*
X143039500Y-90932000D03*
X149580600Y-107696000D03*
X156845000Y-81407000D03*
X135979500Y-78740000D03*
X118491000Y-70104000D03*
X125250000Y-77500000D03*
X135255000Y-85979000D03*
X154405500Y-63399500D03*
X129794000Y-75438000D03*
X147346500Y-99033500D03*
X134620000Y-75057000D03*
X141605000Y-102743000D03*
X129500000Y-91250000D03*
X158000000Y-115750000D03*
X120000000Y-66750000D03*
X149987000Y-86995000D03*
X129000000Y-119500000D03*
X141097000Y-80391000D03*
X152754500Y-78648066D03*
X137795000Y-98425000D03*
X128270000Y-99568000D03*
X119500000Y-89000000D03*
X154659500Y-93064500D03*
X119507000Y-110363000D03*
X145669000Y-83312000D03*
X157734000Y-98044000D03*
X121285000Y-118491000D03*
X153212800Y-98704400D03*
X136022201Y-83433799D03*
X157607000Y-92837000D03*
X166039800Y-100304600D03*
X145025000Y-116595000D03*
X125750000Y-61500000D03*
X124079000Y-86487000D03*
X119507000Y-108458000D03*
X119507000Y-111379000D03*
X149555200Y-102514400D03*
X119500000Y-99000000D03*
X119500000Y-83500000D03*
X147320000Y-87884000D03*
X149555200Y-100761800D03*
%TO.N,+12V*%
X149860000Y-67183000D03*
X128250000Y-64250000D03*
X149860000Y-66134000D03*
X135128000Y-107442000D03*
X135128000Y-108585000D03*
X121000000Y-78500000D03*
X129250000Y-64250000D03*
%TO.N,XTAL1*%
X146550235Y-77546200D03*
X160182441Y-75759932D03*
%TO.N,XTAL*%
X158154000Y-78574000D03*
X146522400Y-79822086D03*
%TO.N,SCLK*%
X160274000Y-108077000D03*
%TO.N,VDD*%
X153543000Y-102920800D03*
X139546500Y-79401500D03*
X138149500Y-86894500D03*
X140575750Y-78345750D03*
X155194000Y-101346000D03*
X155194000Y-99949000D03*
X150533700Y-75819000D03*
X153797000Y-99695000D03*
X147193000Y-96266000D03*
X152654000Y-99695000D03*
%TO.N,+3V3*%
X159918400Y-99339400D03*
X159943800Y-101320600D03*
X149987000Y-89154000D03*
X153543000Y-85598000D03*
%TO.N,Y_out*%
X130500000Y-82423000D03*
X122936000Y-108966000D03*
%TO.N,Pb_out*%
X132969000Y-94869000D03*
X126365000Y-107950000D03*
%TO.N,Pr_out*%
X128016000Y-106934000D03*
X132969000Y-98425000D03*
%TO.N,Net-(R3-Pad1)*%
X149606000Y-84582000D03*
X144018000Y-109474000D03*
%TO.N,Net-(R4-Pad1)*%
X149606000Y-85598000D03*
X146050000Y-109474000D03*
%TO.N,Net-(R5-Pad2)*%
X145529900Y-96012000D03*
X148082000Y-109474000D03*
%TO.N,Net-(R6-Pad2)*%
X145542000Y-94742000D03*
X151638000Y-110039989D03*
%TO.N,Net-(C19-Pad2)*%
X135280400Y-84607400D03*
X135255000Y-77089000D03*
%TO.N,VBS_OUT2*%
X125000000Y-80500000D03*
X130250000Y-79500000D03*
%TO.N,VBS_OUT1*%
X124714000Y-109982000D03*
X130500000Y-84250000D03*
%TO.N,Net-(R9-Pad1)*%
X144399000Y-79502000D03*
X143123380Y-95123000D03*
%TO.N,Net-(RN5-Pad1)*%
X152957600Y-110439200D03*
X152019000Y-95589940D03*
%TO.N,Net-(RN5-Pad2)*%
X147574000Y-82550000D03*
X153682100Y-111226600D03*
%TO.N,Net-(RN5-Pad3)*%
X154173162Y-95499162D03*
X155168600Y-112014000D03*
%TO.N,Net-(RN5-Pad4)*%
X154406600Y-112826800D03*
X154250562Y-91113438D03*
%TD*%
%TA.AperFunction,Conductor*%
%TO.N,GND*%
G36*
X168471121Y-57424002D02*
G01*
X168517614Y-57477658D01*
X168529000Y-57530000D01*
X168529000Y-120270000D01*
X168508998Y-120338121D01*
X168455342Y-120384614D01*
X168403000Y-120396000D01*
X114680000Y-120396000D01*
X114611879Y-120375998D01*
X114565386Y-120322342D01*
X114554000Y-120270000D01*
X114554000Y-118089020D01*
X151191996Y-118089020D01*
X151192686Y-118095585D01*
X151201549Y-118179908D01*
X151211958Y-118278948D01*
X151270973Y-118460576D01*
X151366460Y-118625964D01*
X151370878Y-118630871D01*
X151370879Y-118630872D01*
X151459252Y-118729020D01*
X151494247Y-118767886D01*
X151648748Y-118880138D01*
X151654776Y-118882822D01*
X151654778Y-118882823D01*
X151727247Y-118915088D01*
X151823212Y-118957814D01*
X151916613Y-118977667D01*
X152003556Y-118996148D01*
X152003561Y-118996148D01*
X152010013Y-118997520D01*
X152200987Y-118997520D01*
X152207439Y-118996148D01*
X152207444Y-118996148D01*
X152294387Y-118977667D01*
X152387788Y-118957814D01*
X152483753Y-118915088D01*
X152556222Y-118882823D01*
X152556224Y-118882822D01*
X152562252Y-118880138D01*
X152716753Y-118767886D01*
X152751748Y-118729020D01*
X152840121Y-118630872D01*
X152840122Y-118630871D01*
X152844540Y-118625964D01*
X152940027Y-118460576D01*
X152999042Y-118278948D01*
X153009452Y-118179908D01*
X153018314Y-118095585D01*
X153019004Y-118089020D01*
X152999042Y-117899092D01*
X152940027Y-117717464D01*
X152844540Y-117552076D01*
X152810571Y-117514349D01*
X152721175Y-117415065D01*
X152721174Y-117415064D01*
X152716753Y-117410154D01*
X152562252Y-117297902D01*
X152556224Y-117295218D01*
X152556222Y-117295217D01*
X152393819Y-117222911D01*
X152393818Y-117222911D01*
X152387788Y-117220226D01*
X152294387Y-117200373D01*
X152207444Y-117181892D01*
X152207439Y-117181892D01*
X152200987Y-117180520D01*
X152010013Y-117180520D01*
X152003561Y-117181892D01*
X152003556Y-117181892D01*
X151916613Y-117200373D01*
X151823212Y-117220226D01*
X151817182Y-117222911D01*
X151817181Y-117222911D01*
X151654778Y-117295217D01*
X151654776Y-117295218D01*
X151648748Y-117297902D01*
X151494247Y-117410154D01*
X151489826Y-117415064D01*
X151489825Y-117415065D01*
X151400430Y-117514349D01*
X151366460Y-117552076D01*
X151270973Y-117717464D01*
X151211958Y-117899092D01*
X151191996Y-118089020D01*
X114554000Y-118089020D01*
X114554000Y-116374500D01*
X136232502Y-116374500D01*
X136252457Y-116602587D01*
X136253881Y-116607900D01*
X136253881Y-116607902D01*
X136305177Y-116799338D01*
X136311716Y-116823743D01*
X136314039Y-116828724D01*
X136314039Y-116828725D01*
X136406151Y-117026262D01*
X136406154Y-117026267D01*
X136408477Y-117031249D01*
X136450060Y-117090635D01*
X136513959Y-117181892D01*
X136539802Y-117218800D01*
X136701700Y-117380698D01*
X136706208Y-117383855D01*
X136706211Y-117383857D01*
X136738222Y-117406271D01*
X136889251Y-117512023D01*
X136894233Y-117514346D01*
X136894238Y-117514349D01*
X137091775Y-117606461D01*
X137096757Y-117608784D01*
X137102065Y-117610206D01*
X137102067Y-117610207D01*
X137312598Y-117666619D01*
X137312600Y-117666619D01*
X137317913Y-117668043D01*
X137546000Y-117687998D01*
X137774087Y-117668043D01*
X137779400Y-117666619D01*
X137779402Y-117666619D01*
X137989933Y-117610207D01*
X137989935Y-117610206D01*
X137995243Y-117608784D01*
X138000225Y-117606461D01*
X138197762Y-117514349D01*
X138197767Y-117514346D01*
X138202749Y-117512023D01*
X138353778Y-117406271D01*
X138385789Y-117383857D01*
X138385792Y-117383855D01*
X138390300Y-117380698D01*
X138552198Y-117218800D01*
X138578042Y-117181892D01*
X138641940Y-117090635D01*
X138683523Y-117031249D01*
X138685846Y-117026267D01*
X138685849Y-117026262D01*
X138701805Y-116992043D01*
X138748722Y-116938758D01*
X138816999Y-116919297D01*
X138884959Y-116939839D01*
X138930195Y-116992043D01*
X138946151Y-117026262D01*
X138946154Y-117026267D01*
X138948477Y-117031249D01*
X138990060Y-117090635D01*
X139053959Y-117181892D01*
X139079802Y-117218800D01*
X139241700Y-117380698D01*
X139246208Y-117383855D01*
X139246211Y-117383857D01*
X139278222Y-117406271D01*
X139429251Y-117512023D01*
X139434233Y-117514346D01*
X139434238Y-117514349D01*
X139631775Y-117606461D01*
X139636757Y-117608784D01*
X139642065Y-117610206D01*
X139642067Y-117610207D01*
X139852598Y-117666619D01*
X139852600Y-117666619D01*
X139857913Y-117668043D01*
X140086000Y-117687998D01*
X140314087Y-117668043D01*
X140319400Y-117666619D01*
X140319402Y-117666619D01*
X140529933Y-117610207D01*
X140529935Y-117610206D01*
X140535243Y-117608784D01*
X140540225Y-117606461D01*
X140737762Y-117514349D01*
X140737767Y-117514346D01*
X140742749Y-117512023D01*
X140893778Y-117406271D01*
X140925789Y-117383857D01*
X140925792Y-117383855D01*
X140930300Y-117380698D01*
X141092198Y-117218800D01*
X141118042Y-117181892D01*
X141181940Y-117090635D01*
X141223523Y-117031249D01*
X141225846Y-117026267D01*
X141225849Y-117026262D01*
X141317961Y-116828725D01*
X141317961Y-116828724D01*
X141320284Y-116823743D01*
X141326824Y-116799338D01*
X141378119Y-116607902D01*
X141378119Y-116607900D01*
X141379543Y-116602587D01*
X141399498Y-116374500D01*
X141379543Y-116146413D01*
X141320284Y-115925257D01*
X141288954Y-115858069D01*
X141225849Y-115722738D01*
X141225846Y-115722733D01*
X141223523Y-115717751D01*
X141122423Y-115573365D01*
X141095357Y-115534711D01*
X141095355Y-115534708D01*
X141092198Y-115530200D01*
X140930300Y-115368302D01*
X140925792Y-115365145D01*
X140925789Y-115365143D01*
X140754728Y-115245365D01*
X140742749Y-115236977D01*
X140737767Y-115234654D01*
X140737762Y-115234651D01*
X140540225Y-115142539D01*
X140540224Y-115142539D01*
X140535243Y-115140216D01*
X140529935Y-115138794D01*
X140529933Y-115138793D01*
X140319402Y-115082381D01*
X140319400Y-115082381D01*
X140314087Y-115080957D01*
X140097407Y-115062000D01*
X153924896Y-115062000D01*
X153925586Y-115068565D01*
X153943287Y-115236977D01*
X153944858Y-115251928D01*
X154003873Y-115433556D01*
X154099360Y-115598944D01*
X154103778Y-115603851D01*
X154103779Y-115603852D01*
X154136244Y-115639908D01*
X154227147Y-115740866D01*
X154381648Y-115853118D01*
X154387676Y-115855802D01*
X154387678Y-115855803D01*
X154550081Y-115928109D01*
X154556112Y-115930794D01*
X154649512Y-115950647D01*
X154736456Y-115969128D01*
X154736461Y-115969128D01*
X154742913Y-115970500D01*
X154933887Y-115970500D01*
X154940339Y-115969128D01*
X154940344Y-115969128D01*
X155027288Y-115950647D01*
X155120688Y-115930794D01*
X155126719Y-115928109D01*
X155289122Y-115855803D01*
X155289124Y-115855802D01*
X155295152Y-115853118D01*
X155449653Y-115740866D01*
X155540556Y-115639908D01*
X155573021Y-115603852D01*
X155573022Y-115603851D01*
X155577440Y-115598944D01*
X155672927Y-115433556D01*
X155731942Y-115251928D01*
X155733514Y-115236977D01*
X155751214Y-115068565D01*
X155751904Y-115062000D01*
X155751214Y-115055435D01*
X155732632Y-114878635D01*
X155732632Y-114878633D01*
X155731942Y-114872072D01*
X155672927Y-114690444D01*
X155577440Y-114525056D01*
X155551464Y-114496206D01*
X155454075Y-114388045D01*
X155454074Y-114388044D01*
X155449653Y-114383134D01*
X155335229Y-114300000D01*
X155300494Y-114274763D01*
X155300493Y-114274762D01*
X155295152Y-114270882D01*
X155289124Y-114268198D01*
X155289122Y-114268197D01*
X155126719Y-114195891D01*
X155126718Y-114195891D01*
X155120688Y-114193206D01*
X155027287Y-114173353D01*
X154940344Y-114154872D01*
X154940339Y-114154872D01*
X154933887Y-114153500D01*
X154742913Y-114153500D01*
X154736461Y-114154872D01*
X154736456Y-114154872D01*
X154649513Y-114173353D01*
X154556112Y-114193206D01*
X154550082Y-114195891D01*
X154550081Y-114195891D01*
X154387678Y-114268197D01*
X154387676Y-114268198D01*
X154381648Y-114270882D01*
X154376307Y-114274762D01*
X154376306Y-114274763D01*
X154341571Y-114300000D01*
X154227147Y-114383134D01*
X154222726Y-114388044D01*
X154222725Y-114388045D01*
X154125337Y-114496206D01*
X154099360Y-114525056D01*
X154003873Y-114690444D01*
X153944858Y-114872072D01*
X153944168Y-114878633D01*
X153944168Y-114878635D01*
X153925586Y-115055435D01*
X153924896Y-115062000D01*
X140097407Y-115062000D01*
X140086000Y-115061002D01*
X139857913Y-115080957D01*
X139852600Y-115082381D01*
X139852598Y-115082381D01*
X139642067Y-115138793D01*
X139642065Y-115138794D01*
X139636757Y-115140216D01*
X139631776Y-115142539D01*
X139631775Y-115142539D01*
X139434238Y-115234651D01*
X139434233Y-115234654D01*
X139429251Y-115236977D01*
X139417272Y-115245365D01*
X139246211Y-115365143D01*
X139246208Y-115365145D01*
X139241700Y-115368302D01*
X139079802Y-115530200D01*
X139076645Y-115534708D01*
X139076643Y-115534711D01*
X139049577Y-115573365D01*
X138948477Y-115717751D01*
X138946154Y-115722733D01*
X138946151Y-115722738D01*
X138930195Y-115756957D01*
X138883278Y-115810242D01*
X138815001Y-115829703D01*
X138747041Y-115809161D01*
X138701805Y-115756957D01*
X138685849Y-115722738D01*
X138685846Y-115722733D01*
X138683523Y-115717751D01*
X138582423Y-115573365D01*
X138555357Y-115534711D01*
X138555355Y-115534708D01*
X138552198Y-115530200D01*
X138390300Y-115368302D01*
X138385792Y-115365145D01*
X138385789Y-115365143D01*
X138214728Y-115245365D01*
X138202749Y-115236977D01*
X138197767Y-115234654D01*
X138197762Y-115234651D01*
X138000225Y-115142539D01*
X138000224Y-115142539D01*
X137995243Y-115140216D01*
X137989935Y-115138794D01*
X137989933Y-115138793D01*
X137779402Y-115082381D01*
X137779400Y-115082381D01*
X137774087Y-115080957D01*
X137546000Y-115061002D01*
X137317913Y-115080957D01*
X137312600Y-115082381D01*
X137312598Y-115082381D01*
X137102067Y-115138793D01*
X137102065Y-115138794D01*
X137096757Y-115140216D01*
X137091776Y-115142539D01*
X137091775Y-115142539D01*
X136894238Y-115234651D01*
X136894233Y-115234654D01*
X136889251Y-115236977D01*
X136877272Y-115245365D01*
X136706211Y-115365143D01*
X136706208Y-115365145D01*
X136701700Y-115368302D01*
X136539802Y-115530200D01*
X136536645Y-115534708D01*
X136536643Y-115534711D01*
X136509577Y-115573365D01*
X136408477Y-115717751D01*
X136406154Y-115722733D01*
X136406151Y-115722738D01*
X136343046Y-115858069D01*
X136311716Y-115925257D01*
X136252457Y-116146413D01*
X136232502Y-116374500D01*
X114554000Y-116374500D01*
X114554000Y-114300000D01*
X122149496Y-114300000D01*
X122150186Y-114306565D01*
X122163381Y-114432104D01*
X122169458Y-114489928D01*
X122228473Y-114671556D01*
X122231776Y-114677278D01*
X122231777Y-114677279D01*
X122251903Y-114712138D01*
X122323960Y-114836944D01*
X122328378Y-114841851D01*
X122328379Y-114841852D01*
X122400087Y-114921492D01*
X122451747Y-114978866D01*
X122550843Y-115050864D01*
X122594223Y-115082381D01*
X122606248Y-115091118D01*
X122612276Y-115093802D01*
X122612278Y-115093803D01*
X122706426Y-115135720D01*
X122780712Y-115168794D01*
X122874112Y-115188647D01*
X122961056Y-115207128D01*
X122961061Y-115207128D01*
X122967513Y-115208500D01*
X123158487Y-115208500D01*
X123164939Y-115207128D01*
X123164944Y-115207128D01*
X123251888Y-115188647D01*
X123345288Y-115168794D01*
X123419574Y-115135720D01*
X123513722Y-115093803D01*
X123513724Y-115093802D01*
X123519752Y-115091118D01*
X123531778Y-115082381D01*
X123575157Y-115050864D01*
X123674253Y-114978866D01*
X123725913Y-114921492D01*
X123797621Y-114841852D01*
X123797622Y-114841851D01*
X123802040Y-114836944D01*
X123874097Y-114712138D01*
X123894223Y-114677279D01*
X123894224Y-114677278D01*
X123897527Y-114671556D01*
X123956542Y-114489928D01*
X123962620Y-114432104D01*
X123975814Y-114306565D01*
X123976504Y-114300000D01*
X123965280Y-114193206D01*
X123957232Y-114116635D01*
X123957232Y-114116633D01*
X123956542Y-114110072D01*
X123897527Y-113928444D01*
X123818462Y-113791499D01*
X123801724Y-113722505D01*
X123818462Y-113665500D01*
X123830520Y-113644616D01*
X123897527Y-113528556D01*
X123956542Y-113346928D01*
X123959055Y-113323023D01*
X123975814Y-113163565D01*
X123976504Y-113157000D01*
X123975814Y-113150435D01*
X123957232Y-112973635D01*
X123957232Y-112973633D01*
X123956542Y-112967072D01*
X123897527Y-112785444D01*
X123802040Y-112620056D01*
X123771335Y-112585954D01*
X123678675Y-112483045D01*
X123678674Y-112483044D01*
X123674253Y-112478134D01*
X123541237Y-112381492D01*
X123525094Y-112369763D01*
X123525093Y-112369762D01*
X123519752Y-112365882D01*
X123513724Y-112363198D01*
X123513722Y-112363197D01*
X123351319Y-112290891D01*
X123351318Y-112290891D01*
X123345288Y-112288206D01*
X123251888Y-112268353D01*
X123164944Y-112249872D01*
X123164939Y-112249872D01*
X123158487Y-112248500D01*
X122967513Y-112248500D01*
X122961061Y-112249872D01*
X122961056Y-112249872D01*
X122874112Y-112268353D01*
X122780712Y-112288206D01*
X122774682Y-112290891D01*
X122774681Y-112290891D01*
X122612278Y-112363197D01*
X122612276Y-112363198D01*
X122606248Y-112365882D01*
X122600907Y-112369762D01*
X122600906Y-112369763D01*
X122584763Y-112381492D01*
X122451747Y-112478134D01*
X122447326Y-112483044D01*
X122447325Y-112483045D01*
X122354666Y-112585954D01*
X122323960Y-112620056D01*
X122228473Y-112785444D01*
X122169458Y-112967072D01*
X122168768Y-112973633D01*
X122168768Y-112973635D01*
X122150186Y-113150435D01*
X122149496Y-113157000D01*
X122150186Y-113163565D01*
X122166946Y-113323023D01*
X122169458Y-113346928D01*
X122228473Y-113528556D01*
X122295481Y-113644616D01*
X122307538Y-113665500D01*
X122324276Y-113734495D01*
X122307538Y-113791499D01*
X122228473Y-113928444D01*
X122169458Y-114110072D01*
X122168768Y-114116633D01*
X122168768Y-114116635D01*
X122160720Y-114193206D01*
X122149496Y-114300000D01*
X114554000Y-114300000D01*
X114554000Y-108966000D01*
X122022496Y-108966000D01*
X122023186Y-108972565D01*
X122041336Y-109145248D01*
X122042458Y-109155928D01*
X122101473Y-109337556D01*
X122104776Y-109343278D01*
X122104777Y-109343279D01*
X122138686Y-109402010D01*
X122196960Y-109502944D01*
X122201378Y-109507851D01*
X122201379Y-109507852D01*
X122298873Y-109616130D01*
X122324747Y-109644866D01*
X122479248Y-109757118D01*
X122485276Y-109759802D01*
X122485278Y-109759803D01*
X122603416Y-109812401D01*
X122653712Y-109834794D01*
X122747113Y-109854647D01*
X122834056Y-109873128D01*
X122834061Y-109873128D01*
X122840513Y-109874500D01*
X123031487Y-109874500D01*
X123037939Y-109873128D01*
X123037944Y-109873128D01*
X123124887Y-109854647D01*
X123218288Y-109834794D01*
X123268584Y-109812401D01*
X123386722Y-109759803D01*
X123386724Y-109759802D01*
X123392752Y-109757118D01*
X123547253Y-109644866D01*
X123652898Y-109527536D01*
X123713343Y-109490296D01*
X123784326Y-109491648D01*
X123843311Y-109531161D01*
X123871569Y-109596292D01*
X123866366Y-109650782D01*
X123862095Y-109663928D01*
X123820458Y-109792072D01*
X123819768Y-109798633D01*
X123819768Y-109798635D01*
X123810285Y-109888866D01*
X123800496Y-109982000D01*
X123801186Y-109988565D01*
X123818863Y-110156749D01*
X123820458Y-110171928D01*
X123879473Y-110353556D01*
X123974960Y-110518944D01*
X123979378Y-110523851D01*
X123979379Y-110523852D01*
X124098325Y-110655955D01*
X124102747Y-110660866D01*
X124257248Y-110773118D01*
X124263276Y-110775802D01*
X124263278Y-110775803D01*
X124425681Y-110848109D01*
X124431712Y-110850794D01*
X124525112Y-110870647D01*
X124612056Y-110889128D01*
X124612061Y-110889128D01*
X124618513Y-110890500D01*
X124809487Y-110890500D01*
X124815939Y-110889128D01*
X124815944Y-110889128D01*
X124902888Y-110870647D01*
X124996288Y-110850794D01*
X125002319Y-110848109D01*
X125164722Y-110775803D01*
X125164724Y-110775802D01*
X125170752Y-110773118D01*
X125325253Y-110660866D01*
X125329675Y-110655955D01*
X125448621Y-110523852D01*
X125448622Y-110523851D01*
X125453040Y-110518944D01*
X125548527Y-110353556D01*
X125607542Y-110171928D01*
X125609138Y-110156749D01*
X125626814Y-109988565D01*
X125627504Y-109982000D01*
X125617715Y-109888866D01*
X125608232Y-109798635D01*
X125608232Y-109798633D01*
X125607542Y-109792072D01*
X125548527Y-109610444D01*
X125523747Y-109567523D01*
X125466015Y-109467530D01*
X125453040Y-109445056D01*
X125377467Y-109361123D01*
X125329675Y-109308045D01*
X125329674Y-109308044D01*
X125325253Y-109303134D01*
X125170752Y-109190882D01*
X125164724Y-109188198D01*
X125164722Y-109188197D01*
X125002319Y-109115891D01*
X125002318Y-109115891D01*
X124996288Y-109113206D01*
X124902887Y-109093353D01*
X124815944Y-109074872D01*
X124815939Y-109074872D01*
X124809487Y-109073500D01*
X124618513Y-109073500D01*
X124612061Y-109074872D01*
X124612056Y-109074872D01*
X124525113Y-109093353D01*
X124431712Y-109113206D01*
X124425682Y-109115891D01*
X124425681Y-109115891D01*
X124263278Y-109188197D01*
X124263276Y-109188198D01*
X124257248Y-109190882D01*
X124102747Y-109303134D01*
X124098326Y-109308044D01*
X124098325Y-109308045D01*
X124072698Y-109336507D01*
X124034615Y-109378803D01*
X123997103Y-109420464D01*
X123936657Y-109457704D01*
X123865674Y-109456352D01*
X123806689Y-109416839D01*
X123778431Y-109351708D01*
X123783634Y-109297218D01*
X123827502Y-109162206D01*
X123829542Y-109155928D01*
X123830665Y-109145248D01*
X123848814Y-108972565D01*
X123849504Y-108966000D01*
X123847851Y-108950271D01*
X123830232Y-108782635D01*
X123830232Y-108782633D01*
X123829542Y-108776072D01*
X123770527Y-108594444D01*
X123765075Y-108585000D01*
X123690750Y-108456267D01*
X123675040Y-108429056D01*
X123547253Y-108287134D01*
X123392752Y-108174882D01*
X123386724Y-108172198D01*
X123386722Y-108172197D01*
X123224319Y-108099891D01*
X123224318Y-108099891D01*
X123218288Y-108097206D01*
X123123227Y-108077000D01*
X123037944Y-108058872D01*
X123037939Y-108058872D01*
X123031487Y-108057500D01*
X122840513Y-108057500D01*
X122834061Y-108058872D01*
X122834056Y-108058872D01*
X122748773Y-108077000D01*
X122653712Y-108097206D01*
X122647682Y-108099891D01*
X122647681Y-108099891D01*
X122485278Y-108172197D01*
X122485276Y-108172198D01*
X122479248Y-108174882D01*
X122324747Y-108287134D01*
X122196960Y-108429056D01*
X122181250Y-108456267D01*
X122106926Y-108585000D01*
X122101473Y-108594444D01*
X122042458Y-108776072D01*
X122041768Y-108782633D01*
X122041768Y-108782635D01*
X122024149Y-108950271D01*
X122022496Y-108966000D01*
X114554000Y-108966000D01*
X114554000Y-107950000D01*
X125451496Y-107950000D01*
X125452186Y-107956565D01*
X125466824Y-108095834D01*
X125471458Y-108139928D01*
X125530473Y-108321556D01*
X125625960Y-108486944D01*
X125630378Y-108491851D01*
X125630379Y-108491852D01*
X125728412Y-108600729D01*
X125753747Y-108628866D01*
X125824398Y-108680197D01*
X125869820Y-108713198D01*
X125908248Y-108741118D01*
X125914276Y-108743802D01*
X125914278Y-108743803D01*
X126076681Y-108816109D01*
X126082712Y-108818794D01*
X126167480Y-108836812D01*
X126263056Y-108857128D01*
X126263061Y-108857128D01*
X126269513Y-108858500D01*
X126460487Y-108858500D01*
X126466939Y-108857128D01*
X126466944Y-108857128D01*
X126562520Y-108836812D01*
X126647288Y-108818794D01*
X126653319Y-108816109D01*
X126815722Y-108743803D01*
X126815724Y-108743802D01*
X126821752Y-108741118D01*
X126860181Y-108713198D01*
X126905602Y-108680197D01*
X126976253Y-108628866D01*
X127001588Y-108600729D01*
X127015750Y-108585000D01*
X134214496Y-108585000D01*
X134215186Y-108591565D01*
X134232863Y-108759749D01*
X134234458Y-108774928D01*
X134293473Y-108956556D01*
X134296776Y-108962278D01*
X134296777Y-108962279D01*
X134302716Y-108972565D01*
X134388960Y-109121944D01*
X134393378Y-109126851D01*
X134393379Y-109126852D01*
X134500828Y-109246186D01*
X134516747Y-109263866D01*
X134561521Y-109296396D01*
X134657369Y-109366034D01*
X134671248Y-109376118D01*
X134677276Y-109378802D01*
X134677278Y-109378803D01*
X134760279Y-109415757D01*
X134845712Y-109453794D01*
X134939113Y-109473647D01*
X135026056Y-109492128D01*
X135026061Y-109492128D01*
X135032513Y-109493500D01*
X135223487Y-109493500D01*
X135229939Y-109492128D01*
X135229944Y-109492128D01*
X135316887Y-109473647D01*
X135410288Y-109453794D01*
X135495721Y-109415757D01*
X135578722Y-109378803D01*
X135578724Y-109378802D01*
X135584752Y-109376118D01*
X135598632Y-109366034D01*
X135694479Y-109296396D01*
X135739253Y-109263866D01*
X135755172Y-109246186D01*
X135862621Y-109126852D01*
X135862622Y-109126851D01*
X135867040Y-109121944D01*
X135953284Y-108972565D01*
X135959223Y-108962279D01*
X135959224Y-108962278D01*
X135962527Y-108956556D01*
X135997779Y-108848062D01*
X136037853Y-108789456D01*
X136103249Y-108761819D01*
X136173206Y-108773926D01*
X136225512Y-108821932D01*
X136243133Y-108876016D01*
X136252457Y-108982587D01*
X136253881Y-108987900D01*
X136253881Y-108987902D01*
X136300221Y-109160842D01*
X136311716Y-109203743D01*
X136314039Y-109208724D01*
X136314039Y-109208725D01*
X136406151Y-109406262D01*
X136406154Y-109406267D01*
X136408477Y-109411249D01*
X136464773Y-109491648D01*
X136518960Y-109569034D01*
X136539802Y-109598800D01*
X136701700Y-109760698D01*
X136706208Y-109763855D01*
X136706211Y-109763857D01*
X136747542Y-109792797D01*
X136889251Y-109892023D01*
X136894233Y-109894346D01*
X136894238Y-109894349D01*
X137091775Y-109986461D01*
X137096757Y-109988784D01*
X137102065Y-109990206D01*
X137102067Y-109990207D01*
X137312598Y-110046619D01*
X137312600Y-110046619D01*
X137317913Y-110048043D01*
X137546000Y-110067998D01*
X137774087Y-110048043D01*
X137779400Y-110046619D01*
X137779402Y-110046619D01*
X137989933Y-109990207D01*
X137989935Y-109990206D01*
X137995243Y-109988784D01*
X138000225Y-109986461D01*
X138197762Y-109894349D01*
X138197767Y-109894346D01*
X138202749Y-109892023D01*
X138344458Y-109792797D01*
X138385789Y-109763857D01*
X138385792Y-109763855D01*
X138390300Y-109760698D01*
X138552198Y-109598800D01*
X138555357Y-109594289D01*
X138558892Y-109590076D01*
X138560026Y-109591027D01*
X138610071Y-109551029D01*
X138680690Y-109543724D01*
X138744049Y-109575758D01*
X138780030Y-109636962D01*
X138783082Y-109654017D01*
X138784255Y-109664816D01*
X138835385Y-109801205D01*
X138922739Y-109917761D01*
X139039295Y-110005115D01*
X139175684Y-110056245D01*
X139237866Y-110063000D01*
X140934134Y-110063000D01*
X140996316Y-110056245D01*
X141132705Y-110005115D01*
X141249261Y-109917761D01*
X141336615Y-109801205D01*
X141387745Y-109664816D01*
X141394500Y-109602634D01*
X141394500Y-109474000D01*
X143104496Y-109474000D01*
X143105186Y-109480565D01*
X143123726Y-109656960D01*
X143124458Y-109663928D01*
X143183473Y-109845556D01*
X143278960Y-110010944D01*
X143283378Y-110015851D01*
X143283379Y-110015852D01*
X143335672Y-110073929D01*
X143406747Y-110152866D01*
X143561248Y-110265118D01*
X143567276Y-110267802D01*
X143567278Y-110267803D01*
X143686445Y-110320859D01*
X143735712Y-110342794D01*
X143829113Y-110362647D01*
X143916056Y-110381128D01*
X143916061Y-110381128D01*
X143922513Y-110382500D01*
X144113487Y-110382500D01*
X144119939Y-110381128D01*
X144119944Y-110381128D01*
X144206887Y-110362647D01*
X144300288Y-110342794D01*
X144349555Y-110320859D01*
X144468722Y-110267803D01*
X144468724Y-110267802D01*
X144474752Y-110265118D01*
X144629253Y-110152866D01*
X144700328Y-110073929D01*
X144752621Y-110015852D01*
X144752622Y-110015851D01*
X144757040Y-110010944D01*
X144852527Y-109845556D01*
X144911542Y-109663928D01*
X144911682Y-109662599D01*
X144944482Y-109601844D01*
X145006632Y-109567523D01*
X145077471Y-109572252D01*
X145134508Y-109614528D01*
X145156276Y-109662192D01*
X145156458Y-109663928D01*
X145215473Y-109845556D01*
X145310960Y-110010944D01*
X145315378Y-110015851D01*
X145315379Y-110015852D01*
X145367672Y-110073929D01*
X145438747Y-110152866D01*
X145593248Y-110265118D01*
X145599276Y-110267802D01*
X145599278Y-110267803D01*
X145718445Y-110320859D01*
X145767712Y-110342794D01*
X145861113Y-110362647D01*
X145948056Y-110381128D01*
X145948061Y-110381128D01*
X145954513Y-110382500D01*
X146145487Y-110382500D01*
X146151939Y-110381128D01*
X146151944Y-110381128D01*
X146238887Y-110362647D01*
X146332288Y-110342794D01*
X146381555Y-110320859D01*
X146500722Y-110267803D01*
X146500724Y-110267802D01*
X146506752Y-110265118D01*
X146661253Y-110152866D01*
X146732328Y-110073929D01*
X146784621Y-110015852D01*
X146784622Y-110015851D01*
X146789040Y-110010944D01*
X146884527Y-109845556D01*
X146943542Y-109663928D01*
X146943682Y-109662599D01*
X146976482Y-109601844D01*
X147038632Y-109567523D01*
X147109471Y-109572252D01*
X147166508Y-109614528D01*
X147188276Y-109662192D01*
X147188458Y-109663928D01*
X147247473Y-109845556D01*
X147342960Y-110010944D01*
X147347378Y-110015851D01*
X147347379Y-110015852D01*
X147399672Y-110073929D01*
X147470747Y-110152866D01*
X147625248Y-110265118D01*
X147631276Y-110267802D01*
X147631278Y-110267803D01*
X147750445Y-110320859D01*
X147799712Y-110342794D01*
X147893113Y-110362647D01*
X147980056Y-110381128D01*
X147980061Y-110381128D01*
X147986513Y-110382500D01*
X148177487Y-110382500D01*
X148183939Y-110381128D01*
X148183944Y-110381128D01*
X148270887Y-110362647D01*
X148364288Y-110342794D01*
X148413555Y-110320859D01*
X148532722Y-110267803D01*
X148532724Y-110267802D01*
X148538752Y-110265118D01*
X148693253Y-110152866D01*
X148764328Y-110073929D01*
X148794888Y-110039989D01*
X150724496Y-110039989D01*
X150725186Y-110046554D01*
X150735844Y-110147955D01*
X150744458Y-110229917D01*
X150803473Y-110411545D01*
X150898960Y-110576933D01*
X150903378Y-110581840D01*
X150903379Y-110581841D01*
X150978030Y-110664749D01*
X151026747Y-110718855D01*
X151181248Y-110831107D01*
X151187276Y-110833791D01*
X151187278Y-110833792D01*
X151349681Y-110906098D01*
X151355712Y-110908783D01*
X151449113Y-110928636D01*
X151536056Y-110947117D01*
X151536061Y-110947117D01*
X151542513Y-110948489D01*
X151733487Y-110948489D01*
X151739939Y-110947117D01*
X151739944Y-110947117D01*
X151826887Y-110928636D01*
X151920288Y-110908783D01*
X151934569Y-110902425D01*
X152022986Y-110863059D01*
X152093353Y-110853625D01*
X152157650Y-110883731D01*
X152183354Y-110915166D01*
X152215258Y-110970426D01*
X152215261Y-110970431D01*
X152218560Y-110976144D01*
X152222978Y-110981051D01*
X152222979Y-110981052D01*
X152336268Y-111106872D01*
X152346347Y-111118066D01*
X152411144Y-111165144D01*
X152486918Y-111220197D01*
X152500848Y-111230318D01*
X152506876Y-111233002D01*
X152506878Y-111233003D01*
X152669281Y-111305309D01*
X152675312Y-111307994D01*
X152681767Y-111309366D01*
X152681770Y-111309367D01*
X152690456Y-111311213D01*
X152752929Y-111344941D01*
X152787506Y-111408261D01*
X152787868Y-111409965D01*
X152788558Y-111416528D01*
X152790598Y-111422805D01*
X152790598Y-111422807D01*
X152805035Y-111467240D01*
X152847573Y-111598156D01*
X152850876Y-111603878D01*
X152850877Y-111603879D01*
X152873143Y-111642444D01*
X152943060Y-111763544D01*
X152947478Y-111768451D01*
X152947479Y-111768452D01*
X153066425Y-111900555D01*
X153070847Y-111905466D01*
X153103162Y-111928944D01*
X153211195Y-112007435D01*
X153225348Y-112017718D01*
X153231376Y-112020402D01*
X153231378Y-112020403D01*
X153268364Y-112036870D01*
X153399812Y-112095394D01*
X153536537Y-112124456D01*
X153568660Y-112131284D01*
X153631133Y-112165013D01*
X153665455Y-112227162D01*
X153660727Y-112298001D01*
X153651583Y-112317529D01*
X153572073Y-112455244D01*
X153513058Y-112636872D01*
X153512368Y-112643433D01*
X153512368Y-112643435D01*
X153498046Y-112779707D01*
X153493096Y-112826800D01*
X153513058Y-113016728D01*
X153572073Y-113198356D01*
X153667560Y-113363744D01*
X153671978Y-113368651D01*
X153671979Y-113368652D01*
X153790925Y-113500755D01*
X153795347Y-113505666D01*
X153949848Y-113617918D01*
X153955876Y-113620602D01*
X153955878Y-113620603D01*
X154111426Y-113689857D01*
X154124312Y-113695594D01*
X154217713Y-113715447D01*
X154304656Y-113733928D01*
X154304661Y-113733928D01*
X154311113Y-113735300D01*
X154502087Y-113735300D01*
X154508539Y-113733928D01*
X154508544Y-113733928D01*
X154595487Y-113715447D01*
X154688888Y-113695594D01*
X154701774Y-113689857D01*
X154857322Y-113620603D01*
X154857324Y-113620602D01*
X154863352Y-113617918D01*
X155017853Y-113505666D01*
X155022275Y-113500755D01*
X155141221Y-113368652D01*
X155141222Y-113368651D01*
X155145640Y-113363744D01*
X155241127Y-113198356D01*
X155295830Y-113030000D01*
X155298102Y-113023007D01*
X155298102Y-113023005D01*
X155300142Y-113016728D01*
X155301527Y-113003551D01*
X155328541Y-112937894D01*
X155386762Y-112897265D01*
X155400639Y-112893476D01*
X155444424Y-112884169D01*
X155444433Y-112884166D01*
X155450888Y-112882794D01*
X155561908Y-112833365D01*
X155619322Y-112807803D01*
X155619324Y-112807802D01*
X155625352Y-112805118D01*
X155643781Y-112791729D01*
X155680757Y-112764864D01*
X155779853Y-112692866D01*
X155907640Y-112550944D01*
X156003127Y-112385556D01*
X156062142Y-112203928D01*
X156063138Y-112194457D01*
X156081414Y-112020565D01*
X156082104Y-112014000D01*
X156069891Y-111897800D01*
X156062832Y-111830635D01*
X156062832Y-111830633D01*
X156062142Y-111824072D01*
X156003127Y-111642444D01*
X155980862Y-111603879D01*
X155940615Y-111534171D01*
X155907640Y-111477056D01*
X155853141Y-111416528D01*
X155784275Y-111340045D01*
X155784274Y-111340044D01*
X155779853Y-111335134D01*
X155680757Y-111263136D01*
X155630694Y-111226763D01*
X155630693Y-111226762D01*
X155625352Y-111222882D01*
X155619324Y-111220198D01*
X155619322Y-111220197D01*
X155456919Y-111147891D01*
X155456918Y-111147891D01*
X155450888Y-111145206D01*
X155337907Y-111121191D01*
X155270544Y-111106872D01*
X155270539Y-111106872D01*
X155264087Y-111105500D01*
X155073113Y-111105500D01*
X155066661Y-111106872D01*
X155066656Y-111106872D01*
X154999293Y-111121191D01*
X154886312Y-111145206D01*
X154880282Y-111147891D01*
X154880281Y-111147891D01*
X154852533Y-111160245D01*
X154758857Y-111201952D01*
X154688492Y-111211386D01*
X154624195Y-111181280D01*
X154586381Y-111121191D01*
X154582300Y-111100016D01*
X154576332Y-111043235D01*
X154576332Y-111043233D01*
X154575642Y-111036672D01*
X154516627Y-110855044D01*
X154421140Y-110689656D01*
X154395218Y-110660866D01*
X154297775Y-110552645D01*
X154297774Y-110552644D01*
X154293353Y-110547734D01*
X154138852Y-110435482D01*
X154132824Y-110432798D01*
X154132822Y-110432797D01*
X153970419Y-110360491D01*
X153970418Y-110360491D01*
X153964388Y-110357806D01*
X153957933Y-110356434D01*
X153957930Y-110356433D01*
X153949244Y-110354587D01*
X153886771Y-110320859D01*
X153852194Y-110257539D01*
X153851832Y-110255835D01*
X153851142Y-110249272D01*
X153792127Y-110067644D01*
X153696640Y-109902256D01*
X153671649Y-109874500D01*
X153573275Y-109765245D01*
X153573274Y-109765244D01*
X153568853Y-109760334D01*
X153437384Y-109664816D01*
X153419694Y-109651963D01*
X153419693Y-109651962D01*
X153414352Y-109648082D01*
X153408324Y-109645398D01*
X153408322Y-109645397D01*
X153245919Y-109573091D01*
X153245918Y-109573091D01*
X153239888Y-109570406D01*
X153146488Y-109550553D01*
X153059544Y-109532072D01*
X153059539Y-109532072D01*
X153053087Y-109530700D01*
X152862113Y-109530700D01*
X152855661Y-109532072D01*
X152855656Y-109532072D01*
X152768712Y-109550553D01*
X152675312Y-109570406D01*
X152669282Y-109573091D01*
X152669281Y-109573091D01*
X152572614Y-109616130D01*
X152502247Y-109625564D01*
X152437950Y-109595458D01*
X152412246Y-109564023D01*
X152380342Y-109508763D01*
X152380339Y-109508758D01*
X152377040Y-109503045D01*
X152368042Y-109493051D01*
X152253675Y-109366034D01*
X152253674Y-109366033D01*
X152249253Y-109361123D01*
X152115391Y-109263866D01*
X152100094Y-109252752D01*
X152100093Y-109252751D01*
X152094752Y-109248871D01*
X152088724Y-109246187D01*
X152088722Y-109246186D01*
X151926319Y-109173880D01*
X151926318Y-109173880D01*
X151920288Y-109171195D01*
X151826888Y-109151342D01*
X151739944Y-109132861D01*
X151739939Y-109132861D01*
X151733487Y-109131489D01*
X151542513Y-109131489D01*
X151536061Y-109132861D01*
X151536056Y-109132861D01*
X151449112Y-109151342D01*
X151355712Y-109171195D01*
X151349682Y-109173880D01*
X151349681Y-109173880D01*
X151187278Y-109246186D01*
X151187276Y-109246187D01*
X151181248Y-109248871D01*
X151175907Y-109252751D01*
X151175906Y-109252752D01*
X151160609Y-109263866D01*
X151026747Y-109361123D01*
X151022326Y-109366033D01*
X151022325Y-109366034D01*
X150907959Y-109493051D01*
X150898960Y-109503045D01*
X150846280Y-109594289D01*
X150809337Y-109658277D01*
X150803473Y-109668433D01*
X150744458Y-109850061D01*
X150743768Y-109856622D01*
X150743768Y-109856624D01*
X150736777Y-109923142D01*
X150724496Y-110039989D01*
X148794888Y-110039989D01*
X148816621Y-110015852D01*
X148816622Y-110015851D01*
X148821040Y-110010944D01*
X148916527Y-109845556D01*
X148975542Y-109663928D01*
X148976275Y-109656960D01*
X148994814Y-109480565D01*
X148995504Y-109474000D01*
X148993649Y-109456352D01*
X148976232Y-109290635D01*
X148976232Y-109290633D01*
X148975542Y-109284072D01*
X148916527Y-109102444D01*
X148897121Y-109068831D01*
X148879314Y-109037990D01*
X148821040Y-108937056D01*
X148766080Y-108876016D01*
X148697675Y-108800045D01*
X148697674Y-108800044D01*
X148693253Y-108795134D01*
X148538752Y-108682882D01*
X148532724Y-108680198D01*
X148532722Y-108680197D01*
X148370319Y-108607891D01*
X148370318Y-108607891D01*
X148364288Y-108605206D01*
X148269227Y-108585000D01*
X148183944Y-108566872D01*
X148183939Y-108566872D01*
X148177487Y-108565500D01*
X147986513Y-108565500D01*
X147980061Y-108566872D01*
X147980056Y-108566872D01*
X147894773Y-108585000D01*
X147799712Y-108605206D01*
X147793682Y-108607891D01*
X147793681Y-108607891D01*
X147631278Y-108680197D01*
X147631276Y-108680198D01*
X147625248Y-108682882D01*
X147470747Y-108795134D01*
X147466326Y-108800044D01*
X147466325Y-108800045D01*
X147397921Y-108876016D01*
X147342960Y-108937056D01*
X147284686Y-109037990D01*
X147266880Y-109068831D01*
X147247473Y-109102444D01*
X147188458Y-109284072D01*
X147188318Y-109285401D01*
X147155518Y-109346156D01*
X147093368Y-109380477D01*
X147022529Y-109375748D01*
X146965492Y-109333472D01*
X146943724Y-109285808D01*
X146943542Y-109284072D01*
X146884527Y-109102444D01*
X146865121Y-109068831D01*
X146847314Y-109037990D01*
X146789040Y-108937056D01*
X146734080Y-108876016D01*
X146665675Y-108800045D01*
X146665674Y-108800044D01*
X146661253Y-108795134D01*
X146506752Y-108682882D01*
X146500724Y-108680198D01*
X146500722Y-108680197D01*
X146338319Y-108607891D01*
X146338318Y-108607891D01*
X146332288Y-108605206D01*
X146237227Y-108585000D01*
X146151944Y-108566872D01*
X146151939Y-108566872D01*
X146145487Y-108565500D01*
X145954513Y-108565500D01*
X145948061Y-108566872D01*
X145948056Y-108566872D01*
X145862773Y-108585000D01*
X145767712Y-108605206D01*
X145761682Y-108607891D01*
X145761681Y-108607891D01*
X145599278Y-108680197D01*
X145599276Y-108680198D01*
X145593248Y-108682882D01*
X145438747Y-108795134D01*
X145434326Y-108800044D01*
X145434325Y-108800045D01*
X145365921Y-108876016D01*
X145310960Y-108937056D01*
X145252686Y-109037990D01*
X145234880Y-109068831D01*
X145215473Y-109102444D01*
X145156458Y-109284072D01*
X145156318Y-109285401D01*
X145123518Y-109346156D01*
X145061368Y-109380477D01*
X144990529Y-109375748D01*
X144933492Y-109333472D01*
X144911724Y-109285808D01*
X144911542Y-109284072D01*
X144852527Y-109102444D01*
X144833121Y-109068831D01*
X144815314Y-109037990D01*
X144757040Y-108937056D01*
X144702080Y-108876016D01*
X144633675Y-108800045D01*
X144633674Y-108800044D01*
X144629253Y-108795134D01*
X144474752Y-108682882D01*
X144468724Y-108680198D01*
X144468722Y-108680197D01*
X144306319Y-108607891D01*
X144306318Y-108607891D01*
X144300288Y-108605206D01*
X144205227Y-108585000D01*
X144119944Y-108566872D01*
X144119939Y-108566872D01*
X144113487Y-108565500D01*
X143922513Y-108565500D01*
X143916061Y-108566872D01*
X143916056Y-108566872D01*
X143830773Y-108585000D01*
X143735712Y-108605206D01*
X143729682Y-108607891D01*
X143729681Y-108607891D01*
X143567278Y-108680197D01*
X143567276Y-108680198D01*
X143561248Y-108682882D01*
X143406747Y-108795134D01*
X143402326Y-108800044D01*
X143402325Y-108800045D01*
X143333921Y-108876016D01*
X143278960Y-108937056D01*
X143220686Y-109037990D01*
X143202880Y-109068831D01*
X143183473Y-109102444D01*
X143124458Y-109284072D01*
X143123768Y-109290633D01*
X143123768Y-109290635D01*
X143106351Y-109456352D01*
X143104496Y-109474000D01*
X141394500Y-109474000D01*
X141394500Y-108077000D01*
X159360496Y-108077000D01*
X159361186Y-108083565D01*
X159377934Y-108242910D01*
X159380458Y-108266928D01*
X159439473Y-108448556D01*
X159534960Y-108613944D01*
X159539378Y-108618851D01*
X159539379Y-108618852D01*
X159637700Y-108728049D01*
X159662747Y-108755866D01*
X159711450Y-108791251D01*
X159802122Y-108857128D01*
X159817248Y-108868118D01*
X159823276Y-108870802D01*
X159823278Y-108870803D01*
X159949237Y-108926883D01*
X159991712Y-108945794D01*
X160085113Y-108965647D01*
X160172056Y-108984128D01*
X160172061Y-108984128D01*
X160178513Y-108985500D01*
X160369487Y-108985500D01*
X160375939Y-108984128D01*
X160375944Y-108984128D01*
X160462888Y-108965647D01*
X160556288Y-108945794D01*
X160598763Y-108926883D01*
X160724722Y-108870803D01*
X160724724Y-108870802D01*
X160730752Y-108868118D01*
X160745879Y-108857128D01*
X160836550Y-108791251D01*
X160885253Y-108755866D01*
X160926937Y-108709571D01*
X160987380Y-108672333D01*
X161058364Y-108673684D01*
X161117349Y-108713198D01*
X161128004Y-108728049D01*
X161141690Y-108750383D01*
X161147777Y-108758699D01*
X161287213Y-108919667D01*
X161294580Y-108926883D01*
X161458434Y-109062916D01*
X161466881Y-109068831D01*
X161535969Y-109109203D01*
X161584693Y-109160842D01*
X161597764Y-109230625D01*
X161571033Y-109296396D01*
X161530584Y-109329752D01*
X161517607Y-109336507D01*
X161513474Y-109339610D01*
X161513471Y-109339612D01*
X161343227Y-109467435D01*
X161338965Y-109470635D01*
X161281125Y-109531161D01*
X161199927Y-109616130D01*
X161184629Y-109632138D01*
X161181720Y-109636403D01*
X161181714Y-109636411D01*
X161159870Y-109668433D01*
X161058743Y-109816680D01*
X161043248Y-109850061D01*
X160969812Y-110008267D01*
X160964688Y-110019305D01*
X160904989Y-110234570D01*
X160881251Y-110456695D01*
X160881548Y-110461848D01*
X160881548Y-110461851D01*
X160887011Y-110556590D01*
X160894110Y-110679715D01*
X160895247Y-110684761D01*
X160895248Y-110684767D01*
X160915765Y-110775803D01*
X160943222Y-110897639D01*
X161027266Y-111104616D01*
X161074246Y-111181280D01*
X161141291Y-111290688D01*
X161143987Y-111295088D01*
X161290250Y-111463938D01*
X161462126Y-111606632D01*
X161523411Y-111642444D01*
X161535445Y-111649476D01*
X161584169Y-111701114D01*
X161597240Y-111770897D01*
X161570509Y-111836669D01*
X161530055Y-111870027D01*
X161517607Y-111876507D01*
X161513474Y-111879610D01*
X161513471Y-111879612D01*
X161447767Y-111928944D01*
X161338965Y-112010635D01*
X161184629Y-112172138D01*
X161058743Y-112356680D01*
X161043003Y-112390590D01*
X161000087Y-112483045D01*
X160964688Y-112559305D01*
X160904989Y-112774570D01*
X160881251Y-112996695D01*
X160881548Y-113001848D01*
X160881548Y-113001851D01*
X160887011Y-113096590D01*
X160894110Y-113219715D01*
X160895247Y-113224761D01*
X160895248Y-113224767D01*
X160915119Y-113312939D01*
X160943222Y-113437639D01*
X161027266Y-113644616D01*
X161074996Y-113722505D01*
X161141291Y-113830688D01*
X161143987Y-113835088D01*
X161290250Y-114003938D01*
X161462126Y-114146632D01*
X161532595Y-114187811D01*
X161535445Y-114189476D01*
X161584169Y-114241114D01*
X161597240Y-114310897D01*
X161570509Y-114376669D01*
X161530055Y-114410027D01*
X161517607Y-114416507D01*
X161513474Y-114419610D01*
X161513471Y-114419612D01*
X161373033Y-114525056D01*
X161338965Y-114550635D01*
X161184629Y-114712138D01*
X161058743Y-114896680D01*
X161043003Y-114930590D01*
X160970290Y-115087237D01*
X160964688Y-115099305D01*
X160904989Y-115314570D01*
X160881251Y-115536695D01*
X160881548Y-115541848D01*
X160881548Y-115541851D01*
X160887011Y-115636590D01*
X160894110Y-115759715D01*
X160895247Y-115764761D01*
X160895248Y-115764767D01*
X160915765Y-115855803D01*
X160943222Y-115977639D01*
X161027266Y-116184616D01*
X161078019Y-116267438D01*
X161141291Y-116370688D01*
X161143987Y-116375088D01*
X161290250Y-116543938D01*
X161462126Y-116686632D01*
X161468660Y-116690450D01*
X161535445Y-116729476D01*
X161584169Y-116781114D01*
X161597240Y-116850897D01*
X161570509Y-116916669D01*
X161530055Y-116950027D01*
X161517607Y-116956507D01*
X161513474Y-116959610D01*
X161513471Y-116959612D01*
X161343100Y-117087530D01*
X161338965Y-117090635D01*
X161335393Y-117094373D01*
X161212764Y-117222697D01*
X161184629Y-117252138D01*
X161181720Y-117256403D01*
X161181714Y-117256411D01*
X161153411Y-117297902D01*
X161058743Y-117436680D01*
X161043003Y-117470590D01*
X160979934Y-117606461D01*
X160964688Y-117639305D01*
X160904989Y-117854570D01*
X160881251Y-118076695D01*
X160881548Y-118081848D01*
X160881548Y-118081851D01*
X160887011Y-118176590D01*
X160894110Y-118299715D01*
X160895247Y-118304761D01*
X160895248Y-118304767D01*
X160915119Y-118392939D01*
X160943222Y-118517639D01*
X161027266Y-118724616D01*
X161078019Y-118807438D01*
X161141291Y-118910688D01*
X161143987Y-118915088D01*
X161290250Y-119083938D01*
X161462126Y-119226632D01*
X161655000Y-119339338D01*
X161863692Y-119419030D01*
X161868760Y-119420061D01*
X161868763Y-119420062D01*
X161976017Y-119441883D01*
X162082597Y-119463567D01*
X162087772Y-119463757D01*
X162087774Y-119463757D01*
X162300673Y-119471564D01*
X162300677Y-119471564D01*
X162305837Y-119471753D01*
X162310957Y-119471097D01*
X162310959Y-119471097D01*
X162522288Y-119444025D01*
X162522289Y-119444025D01*
X162527416Y-119443368D01*
X162532366Y-119441883D01*
X162736429Y-119380661D01*
X162736434Y-119380659D01*
X162741384Y-119379174D01*
X162941994Y-119280896D01*
X163123860Y-119151173D01*
X163282096Y-118993489D01*
X163341594Y-118910689D01*
X163412453Y-118812077D01*
X163413776Y-118813028D01*
X163460645Y-118769857D01*
X163530580Y-118757625D01*
X163596026Y-118785144D01*
X163623875Y-118816994D01*
X163683987Y-118915088D01*
X163830250Y-119083938D01*
X164002126Y-119226632D01*
X164195000Y-119339338D01*
X164403692Y-119419030D01*
X164408760Y-119420061D01*
X164408763Y-119420062D01*
X164516017Y-119441883D01*
X164622597Y-119463567D01*
X164627772Y-119463757D01*
X164627774Y-119463757D01*
X164840673Y-119471564D01*
X164840677Y-119471564D01*
X164845837Y-119471753D01*
X164850957Y-119471097D01*
X164850959Y-119471097D01*
X165062288Y-119444025D01*
X165062289Y-119444025D01*
X165067416Y-119443368D01*
X165072366Y-119441883D01*
X165276429Y-119380661D01*
X165276434Y-119380659D01*
X165281384Y-119379174D01*
X165481994Y-119280896D01*
X165663860Y-119151173D01*
X165822096Y-118993489D01*
X165881594Y-118910689D01*
X165949435Y-118816277D01*
X165952453Y-118812077D01*
X165972375Y-118771769D01*
X166049136Y-118616453D01*
X166049137Y-118616451D01*
X166051430Y-118611811D01*
X166116370Y-118398069D01*
X166145529Y-118176590D01*
X166147156Y-118110000D01*
X166128852Y-117887361D01*
X166074431Y-117670702D01*
X165985354Y-117465840D01*
X165864014Y-117278277D01*
X165713670Y-117113051D01*
X165709619Y-117109852D01*
X165709615Y-117109848D01*
X165542414Y-116977800D01*
X165542410Y-116977798D01*
X165538359Y-116974598D01*
X165497053Y-116951796D01*
X165447084Y-116901364D01*
X165432312Y-116831921D01*
X165457428Y-116765516D01*
X165484780Y-116738909D01*
X165552717Y-116690450D01*
X165663860Y-116611173D01*
X165822096Y-116453489D01*
X165881594Y-116370689D01*
X165949435Y-116276277D01*
X165952453Y-116272077D01*
X165973320Y-116229857D01*
X166049136Y-116076453D01*
X166049137Y-116076451D01*
X166051430Y-116071811D01*
X166116370Y-115858069D01*
X166145529Y-115636590D01*
X166147156Y-115570000D01*
X166128852Y-115347361D01*
X166074431Y-115130702D01*
X165985354Y-114925840D01*
X165927845Y-114836944D01*
X165866822Y-114742617D01*
X165866820Y-114742614D01*
X165864014Y-114738277D01*
X165713670Y-114573051D01*
X165709619Y-114569852D01*
X165709615Y-114569848D01*
X165542414Y-114437800D01*
X165542410Y-114437798D01*
X165538359Y-114434598D01*
X165497053Y-114411796D01*
X165447084Y-114361364D01*
X165432312Y-114291921D01*
X165457428Y-114225516D01*
X165484780Y-114198909D01*
X165548441Y-114153500D01*
X165663860Y-114071173D01*
X165822096Y-113913489D01*
X165881594Y-113830689D01*
X165949435Y-113736277D01*
X165952453Y-113732077D01*
X165971300Y-113693944D01*
X166049136Y-113536453D01*
X166049137Y-113536451D01*
X166051430Y-113531811D01*
X166116370Y-113318069D01*
X166145529Y-113096590D01*
X166147156Y-113030000D01*
X166128852Y-112807361D01*
X166074431Y-112590702D01*
X165985354Y-112385840D01*
X165921304Y-112286834D01*
X165866822Y-112202617D01*
X165866820Y-112202614D01*
X165864014Y-112198277D01*
X165713670Y-112033051D01*
X165709619Y-112029852D01*
X165709615Y-112029848D01*
X165542414Y-111897800D01*
X165542410Y-111897798D01*
X165538359Y-111894598D01*
X165497053Y-111871796D01*
X165447084Y-111821364D01*
X165432312Y-111751921D01*
X165457428Y-111685516D01*
X165484780Y-111658909D01*
X165528603Y-111627650D01*
X165663860Y-111531173D01*
X165712429Y-111482774D01*
X165818435Y-111377137D01*
X165822096Y-111373489D01*
X165881594Y-111290689D01*
X165949435Y-111196277D01*
X165952453Y-111192077D01*
X165973320Y-111149857D01*
X166049136Y-110996453D01*
X166049137Y-110996451D01*
X166051430Y-110991811D01*
X166116370Y-110778069D01*
X166145529Y-110556590D01*
X166145611Y-110553240D01*
X166147074Y-110493365D01*
X166147074Y-110493361D01*
X166147156Y-110490000D01*
X166128852Y-110267361D01*
X166074431Y-110050702D01*
X165985354Y-109845840D01*
X165873031Y-109672215D01*
X165866822Y-109662617D01*
X165866820Y-109662614D01*
X165864014Y-109658277D01*
X165713670Y-109493051D01*
X165709619Y-109489852D01*
X165709615Y-109489848D01*
X165542414Y-109357800D01*
X165542410Y-109357798D01*
X165538359Y-109354598D01*
X165496569Y-109331529D01*
X165446598Y-109281097D01*
X165431826Y-109211654D01*
X165456942Y-109145248D01*
X165484294Y-109118641D01*
X165659328Y-108993792D01*
X165667200Y-108987139D01*
X165818052Y-108836812D01*
X165824730Y-108828965D01*
X165949003Y-108656020D01*
X165954313Y-108647183D01*
X166048670Y-108456267D01*
X166052469Y-108446672D01*
X166114377Y-108242910D01*
X166116555Y-108232837D01*
X166117986Y-108221962D01*
X166115775Y-108207778D01*
X166102617Y-108204000D01*
X162116000Y-108204000D01*
X162047879Y-108183998D01*
X162001386Y-108130342D01*
X161990000Y-108078000D01*
X161990000Y-107822000D01*
X162010002Y-107753879D01*
X162063658Y-107707386D01*
X162116000Y-107696000D01*
X166102344Y-107696000D01*
X166115875Y-107692027D01*
X166117180Y-107682947D01*
X166075214Y-107515875D01*
X166071894Y-107506124D01*
X165986972Y-107310814D01*
X165982105Y-107301739D01*
X165866426Y-107122926D01*
X165860136Y-107114757D01*
X165716806Y-106957240D01*
X165709273Y-106950215D01*
X165542139Y-106818222D01*
X165533556Y-106812520D01*
X165496602Y-106792120D01*
X165446631Y-106741687D01*
X165431859Y-106672245D01*
X165456975Y-106605839D01*
X165484327Y-106579232D01*
X165515886Y-106556721D01*
X165663860Y-106451173D01*
X165712429Y-106402774D01*
X165807616Y-106307918D01*
X165822096Y-106293489D01*
X165930318Y-106142882D01*
X165949435Y-106116277D01*
X165952453Y-106112077D01*
X166051430Y-105911811D01*
X166116370Y-105698069D01*
X166145529Y-105476590D01*
X166147156Y-105410000D01*
X166128852Y-105187361D01*
X166074431Y-104970702D01*
X165985354Y-104765840D01*
X165864014Y-104578277D01*
X165713670Y-104413051D01*
X165709619Y-104409852D01*
X165709615Y-104409848D01*
X165542414Y-104277800D01*
X165542410Y-104277798D01*
X165538359Y-104274598D01*
X165342789Y-104166638D01*
X165337920Y-104164914D01*
X165337916Y-104164912D01*
X165137087Y-104093795D01*
X165137083Y-104093794D01*
X165132212Y-104092069D01*
X165127119Y-104091162D01*
X165127116Y-104091161D01*
X164917373Y-104053800D01*
X164917367Y-104053799D01*
X164912284Y-104052894D01*
X164838452Y-104051992D01*
X164694081Y-104050228D01*
X164694079Y-104050228D01*
X164688911Y-104050165D01*
X164468091Y-104083955D01*
X164255756Y-104153357D01*
X164057607Y-104256507D01*
X164053474Y-104259610D01*
X164053471Y-104259612D01*
X163883100Y-104387530D01*
X163878965Y-104390635D01*
X163822537Y-104449684D01*
X163798283Y-104475064D01*
X163736759Y-104510494D01*
X163665846Y-104507037D01*
X163608060Y-104465791D01*
X163589207Y-104432243D01*
X163547767Y-104321703D01*
X163544615Y-104313295D01*
X163457261Y-104196739D01*
X163340705Y-104109385D01*
X163204316Y-104058255D01*
X163142134Y-104051500D01*
X161345866Y-104051500D01*
X161283684Y-104058255D01*
X161147295Y-104109385D01*
X161030739Y-104196739D01*
X160943385Y-104313295D01*
X160892255Y-104449684D01*
X160885500Y-104511866D01*
X160885500Y-106308134D01*
X160892255Y-106370316D01*
X160943385Y-106506705D01*
X161030739Y-106623261D01*
X161147295Y-106710615D01*
X161155704Y-106713767D01*
X161155705Y-106713768D01*
X161264960Y-106754726D01*
X161321725Y-106797367D01*
X161346425Y-106863929D01*
X161331218Y-106933278D01*
X161311825Y-106959759D01*
X161188590Y-107088717D01*
X161182104Y-107096727D01*
X161062098Y-107272649D01*
X161057000Y-107281623D01*
X161037713Y-107323173D01*
X160990889Y-107376540D01*
X160922646Y-107396121D01*
X160849364Y-107372059D01*
X160736094Y-107289763D01*
X160736093Y-107289762D01*
X160730752Y-107285882D01*
X160724724Y-107283198D01*
X160724722Y-107283197D01*
X160562319Y-107210891D01*
X160562318Y-107210891D01*
X160556288Y-107208206D01*
X160455106Y-107186699D01*
X160375944Y-107169872D01*
X160375939Y-107169872D01*
X160369487Y-107168500D01*
X160178513Y-107168500D01*
X160172061Y-107169872D01*
X160172056Y-107169872D01*
X160092894Y-107186699D01*
X159991712Y-107208206D01*
X159985682Y-107210891D01*
X159985681Y-107210891D01*
X159823278Y-107283197D01*
X159823276Y-107283198D01*
X159817248Y-107285882D01*
X159811907Y-107289762D01*
X159811906Y-107289763D01*
X159790169Y-107305556D01*
X159662747Y-107398134D01*
X159658326Y-107403044D01*
X159658325Y-107403045D01*
X159556733Y-107515875D01*
X159534960Y-107540056D01*
X159490681Y-107616749D01*
X159444926Y-107696000D01*
X159439473Y-107705444D01*
X159380458Y-107887072D01*
X159379768Y-107893633D01*
X159379768Y-107893635D01*
X159362401Y-108058872D01*
X159360496Y-108077000D01*
X141394500Y-108077000D01*
X141394500Y-107906366D01*
X141387745Y-107844184D01*
X141336615Y-107707795D01*
X141249261Y-107591239D01*
X141132705Y-107503885D01*
X140996316Y-107452755D01*
X140934134Y-107446000D01*
X139237866Y-107446000D01*
X139175684Y-107452755D01*
X139039295Y-107503885D01*
X138922739Y-107591239D01*
X138835385Y-107707795D01*
X138784255Y-107844184D01*
X138783083Y-107854974D01*
X138782197Y-107857106D01*
X138781575Y-107859722D01*
X138781152Y-107859621D01*
X138755845Y-107920535D01*
X138697483Y-107960963D01*
X138626529Y-107963422D01*
X138565510Y-107927129D01*
X138558511Y-107918469D01*
X138555354Y-107914707D01*
X138552198Y-107910200D01*
X138390300Y-107748302D01*
X138385792Y-107745145D01*
X138385789Y-107745143D01*
X138214728Y-107625365D01*
X138202749Y-107616977D01*
X138197767Y-107614654D01*
X138197762Y-107614651D01*
X138000225Y-107522539D01*
X138000224Y-107522539D01*
X137995243Y-107520216D01*
X137989935Y-107518794D01*
X137989933Y-107518793D01*
X137779402Y-107462381D01*
X137779400Y-107462381D01*
X137774087Y-107460957D01*
X137546000Y-107441002D01*
X137317913Y-107460957D01*
X137312600Y-107462381D01*
X137312598Y-107462381D01*
X137102067Y-107518793D01*
X137102065Y-107518794D01*
X137096757Y-107520216D01*
X137091776Y-107522539D01*
X137091775Y-107522539D01*
X136894238Y-107614651D01*
X136894233Y-107614654D01*
X136889251Y-107616977D01*
X136877272Y-107625365D01*
X136706211Y-107745143D01*
X136706208Y-107745145D01*
X136701700Y-107748302D01*
X136539802Y-107910200D01*
X136536645Y-107914708D01*
X136536643Y-107914711D01*
X136507337Y-107956565D01*
X136408477Y-108097751D01*
X136406154Y-108102733D01*
X136406151Y-108102738D01*
X136321977Y-108283251D01*
X136311716Y-108305257D01*
X136310294Y-108310565D01*
X136310293Y-108310567D01*
X136272470Y-108451724D01*
X136235518Y-108512347D01*
X136171657Y-108543368D01*
X136101163Y-108534940D01*
X136046416Y-108489737D01*
X136025453Y-108432283D01*
X136022232Y-108401635D01*
X136022232Y-108401633D01*
X136021542Y-108395072D01*
X135962527Y-108213444D01*
X135957075Y-108204000D01*
X135883462Y-108076500D01*
X135866724Y-108007505D01*
X135883462Y-107950500D01*
X135900763Y-107920535D01*
X135962527Y-107813556D01*
X136021542Y-107631928D01*
X136023114Y-107616977D01*
X136040814Y-107448565D01*
X136041504Y-107442000D01*
X136026109Y-107295524D01*
X136022232Y-107258635D01*
X136022232Y-107258633D01*
X136021542Y-107252072D01*
X135962527Y-107070444D01*
X135867040Y-106905056D01*
X135788855Y-106818222D01*
X135743675Y-106768045D01*
X135743674Y-106768044D01*
X135739253Y-106763134D01*
X135640157Y-106691136D01*
X135590094Y-106654763D01*
X135590093Y-106654762D01*
X135584752Y-106650882D01*
X135578724Y-106648198D01*
X135578722Y-106648197D01*
X135416319Y-106575891D01*
X135416318Y-106575891D01*
X135410288Y-106573206D01*
X135316887Y-106553353D01*
X135229944Y-106534872D01*
X135229939Y-106534872D01*
X135223487Y-106533500D01*
X135032513Y-106533500D01*
X135026061Y-106534872D01*
X135026056Y-106534872D01*
X134939112Y-106553353D01*
X134845712Y-106573206D01*
X134839682Y-106575891D01*
X134839681Y-106575891D01*
X134677278Y-106648197D01*
X134677276Y-106648198D01*
X134671248Y-106650882D01*
X134665907Y-106654762D01*
X134665906Y-106654763D01*
X134615843Y-106691136D01*
X134516747Y-106763134D01*
X134512326Y-106768044D01*
X134512325Y-106768045D01*
X134467146Y-106818222D01*
X134388960Y-106905056D01*
X134293473Y-107070444D01*
X134234458Y-107252072D01*
X134233768Y-107258633D01*
X134233768Y-107258635D01*
X134229891Y-107295524D01*
X134214496Y-107442000D01*
X134215186Y-107448565D01*
X134232887Y-107616977D01*
X134234458Y-107631928D01*
X134293473Y-107813556D01*
X134355238Y-107920535D01*
X134372538Y-107950500D01*
X134389276Y-108019495D01*
X134372538Y-108076500D01*
X134298926Y-108204000D01*
X134293473Y-108213444D01*
X134234458Y-108395072D01*
X134233768Y-108401633D01*
X134233768Y-108401635D01*
X134216401Y-108566872D01*
X134214496Y-108585000D01*
X127015750Y-108585000D01*
X127099621Y-108491852D01*
X127099622Y-108491851D01*
X127104040Y-108486944D01*
X127199527Y-108321556D01*
X127258542Y-108139928D01*
X127263177Y-108095834D01*
X127277814Y-107956565D01*
X127278504Y-107950000D01*
X127268208Y-107852040D01*
X127259285Y-107767139D01*
X127272057Y-107697301D01*
X127320559Y-107645454D01*
X127389392Y-107628060D01*
X127458656Y-107652033D01*
X127546978Y-107716203D01*
X127559248Y-107725118D01*
X127565276Y-107727802D01*
X127565278Y-107727803D01*
X127637756Y-107760072D01*
X127733712Y-107802794D01*
X127824069Y-107822000D01*
X127914056Y-107841128D01*
X127914061Y-107841128D01*
X127920513Y-107842500D01*
X128111487Y-107842500D01*
X128117939Y-107841128D01*
X128117944Y-107841128D01*
X128207931Y-107822000D01*
X128298288Y-107802794D01*
X128394244Y-107760072D01*
X128466722Y-107727803D01*
X128466724Y-107727802D01*
X128472752Y-107725118D01*
X128485023Y-107716203D01*
X128573344Y-107652033D01*
X128627253Y-107612866D01*
X128708584Y-107522539D01*
X128750621Y-107475852D01*
X128750622Y-107475851D01*
X128755040Y-107470944D01*
X128850527Y-107305556D01*
X128909542Y-107123928D01*
X128914177Y-107079834D01*
X128928814Y-106940565D01*
X128929504Y-106934000D01*
X128922139Y-106863929D01*
X128910232Y-106750635D01*
X128910232Y-106750633D01*
X128909542Y-106744072D01*
X128850527Y-106562444D01*
X128755040Y-106397056D01*
X128674975Y-106308134D01*
X128631675Y-106260045D01*
X128631674Y-106260044D01*
X128627253Y-106255134D01*
X128472752Y-106142882D01*
X128466724Y-106140198D01*
X128466722Y-106140197D01*
X128304319Y-106067891D01*
X128304318Y-106067891D01*
X128298288Y-106065206D01*
X128204887Y-106045353D01*
X128117944Y-106026872D01*
X128117939Y-106026872D01*
X128111487Y-106025500D01*
X127920513Y-106025500D01*
X127914061Y-106026872D01*
X127914056Y-106026872D01*
X127827112Y-106045353D01*
X127733712Y-106065206D01*
X127727682Y-106067891D01*
X127727681Y-106067891D01*
X127565278Y-106140197D01*
X127565276Y-106140198D01*
X127559248Y-106142882D01*
X127404747Y-106255134D01*
X127400326Y-106260044D01*
X127400325Y-106260045D01*
X127357026Y-106308134D01*
X127276960Y-106397056D01*
X127181473Y-106562444D01*
X127122458Y-106744072D01*
X127121768Y-106750633D01*
X127121768Y-106750635D01*
X127109861Y-106863929D01*
X127102496Y-106934000D01*
X127103186Y-106940565D01*
X127121715Y-107116861D01*
X127108943Y-107186699D01*
X127060441Y-107238546D01*
X126991608Y-107255940D01*
X126922344Y-107231967D01*
X126827094Y-107162763D01*
X126827093Y-107162762D01*
X126821752Y-107158882D01*
X126815724Y-107156198D01*
X126815722Y-107156197D01*
X126653319Y-107083891D01*
X126653318Y-107083891D01*
X126647288Y-107081206D01*
X126553887Y-107061353D01*
X126466944Y-107042872D01*
X126466939Y-107042872D01*
X126460487Y-107041500D01*
X126269513Y-107041500D01*
X126263061Y-107042872D01*
X126263056Y-107042872D01*
X126176113Y-107061353D01*
X126082712Y-107081206D01*
X126076682Y-107083891D01*
X126076681Y-107083891D01*
X125914278Y-107156197D01*
X125914276Y-107156198D01*
X125908248Y-107158882D01*
X125902907Y-107162762D01*
X125902906Y-107162763D01*
X125869961Y-107186699D01*
X125753747Y-107271134D01*
X125625960Y-107413056D01*
X125530473Y-107578444D01*
X125471458Y-107760072D01*
X125470768Y-107766633D01*
X125470768Y-107766635D01*
X125461792Y-107852040D01*
X125451496Y-107950000D01*
X114554000Y-107950000D01*
X114554000Y-102920800D01*
X152629496Y-102920800D01*
X152649458Y-103110728D01*
X152708473Y-103292356D01*
X152803960Y-103457744D01*
X152931747Y-103599666D01*
X153086248Y-103711918D01*
X153092276Y-103714602D01*
X153092278Y-103714603D01*
X153254681Y-103786909D01*
X153260712Y-103789594D01*
X153354112Y-103809447D01*
X153441056Y-103827928D01*
X153441061Y-103827928D01*
X153447513Y-103829300D01*
X153638487Y-103829300D01*
X153644939Y-103827928D01*
X153644944Y-103827928D01*
X153731887Y-103809447D01*
X153825288Y-103789594D01*
X153831319Y-103786909D01*
X153993722Y-103714603D01*
X153993724Y-103714602D01*
X153999752Y-103711918D01*
X154154253Y-103599666D01*
X154282040Y-103457744D01*
X154377527Y-103292356D01*
X154436542Y-103110728D01*
X154456504Y-102920800D01*
X154436542Y-102730872D01*
X154377527Y-102549244D01*
X154282040Y-102383856D01*
X154165568Y-102254500D01*
X154158675Y-102246845D01*
X154158674Y-102246844D01*
X154154253Y-102241934D01*
X154055157Y-102169936D01*
X154005094Y-102133563D01*
X154005093Y-102133562D01*
X153999752Y-102129682D01*
X153993724Y-102126998D01*
X153993722Y-102126997D01*
X153831319Y-102054691D01*
X153831318Y-102054691D01*
X153825288Y-102052006D01*
X153715873Y-102028749D01*
X153644944Y-102013672D01*
X153644939Y-102013672D01*
X153638487Y-102012300D01*
X153447513Y-102012300D01*
X153441061Y-102013672D01*
X153441056Y-102013672D01*
X153370127Y-102028749D01*
X153260712Y-102052006D01*
X153254682Y-102054691D01*
X153254681Y-102054691D01*
X153092278Y-102126997D01*
X153092276Y-102126998D01*
X153086248Y-102129682D01*
X153080907Y-102133562D01*
X153080906Y-102133563D01*
X153030843Y-102169936D01*
X152931747Y-102241934D01*
X152927326Y-102246844D01*
X152927325Y-102246845D01*
X152920433Y-102254500D01*
X152803960Y-102383856D01*
X152708473Y-102549244D01*
X152649458Y-102730872D01*
X152629496Y-102920800D01*
X114554000Y-102920800D01*
X114554000Y-99695000D01*
X151740496Y-99695000D01*
X151760458Y-99884928D01*
X151819473Y-100066556D01*
X151914960Y-100231944D01*
X151919378Y-100236851D01*
X151919379Y-100236852D01*
X152024684Y-100353805D01*
X152042747Y-100373866D01*
X152197248Y-100486118D01*
X152203276Y-100488802D01*
X152203278Y-100488803D01*
X152365681Y-100561109D01*
X152371712Y-100563794D01*
X152465113Y-100583647D01*
X152552056Y-100602128D01*
X152552061Y-100602128D01*
X152558513Y-100603500D01*
X152749487Y-100603500D01*
X152755939Y-100602128D01*
X152755944Y-100602128D01*
X152842887Y-100583647D01*
X152936288Y-100563794D01*
X152942319Y-100561109D01*
X153104722Y-100488803D01*
X153104724Y-100488802D01*
X153110752Y-100486118D01*
X153151439Y-100456557D01*
X153218306Y-100432699D01*
X153287458Y-100448779D01*
X153299561Y-100456557D01*
X153340248Y-100486118D01*
X153346276Y-100488802D01*
X153346278Y-100488803D01*
X153508681Y-100561109D01*
X153514712Y-100563794D01*
X153608113Y-100583647D01*
X153695056Y-100602128D01*
X153695061Y-100602128D01*
X153701513Y-100603500D01*
X153892487Y-100603500D01*
X153898939Y-100602128D01*
X153898944Y-100602128D01*
X153985887Y-100583647D01*
X154079288Y-100563794D01*
X154085319Y-100561109D01*
X154247722Y-100488803D01*
X154247724Y-100488802D01*
X154253752Y-100486118D01*
X154259090Y-100482240D01*
X154259093Y-100482238D01*
X154284151Y-100464032D01*
X154351019Y-100440174D01*
X154420170Y-100456256D01*
X154454212Y-100486616D01*
X154454960Y-100485943D01*
X154454960Y-100485944D01*
X154524515Y-100563192D01*
X154555230Y-100627197D01*
X154546467Y-100697650D01*
X154524516Y-100731806D01*
X154454960Y-100809056D01*
X154359473Y-100974444D01*
X154300458Y-101156072D01*
X154280496Y-101346000D01*
X154281186Y-101352565D01*
X154297099Y-101503965D01*
X154300458Y-101535928D01*
X154359473Y-101717556D01*
X154454960Y-101882944D01*
X154459378Y-101887851D01*
X154459379Y-101887852D01*
X154572668Y-102013672D01*
X154582747Y-102024866D01*
X154681843Y-102096864D01*
X154723318Y-102126997D01*
X154737248Y-102137118D01*
X154743276Y-102139802D01*
X154743278Y-102139803D01*
X154854662Y-102189394D01*
X154911712Y-102214794D01*
X155005112Y-102234647D01*
X155092056Y-102253128D01*
X155092061Y-102253128D01*
X155098513Y-102254500D01*
X155289487Y-102254500D01*
X155295939Y-102253128D01*
X155295944Y-102253128D01*
X155382887Y-102234647D01*
X155476288Y-102214794D01*
X155533338Y-102189394D01*
X155644722Y-102139803D01*
X155644724Y-102139802D01*
X155650752Y-102137118D01*
X155664683Y-102126997D01*
X155706157Y-102096864D01*
X155805253Y-102024866D01*
X155815332Y-102013672D01*
X155928621Y-101887852D01*
X155928622Y-101887851D01*
X155933040Y-101882944D01*
X156028527Y-101717556D01*
X156087542Y-101535928D01*
X156090902Y-101503965D01*
X156106814Y-101352565D01*
X156107504Y-101346000D01*
X156087542Y-101156072D01*
X156028527Y-100974444D01*
X155933040Y-100809056D01*
X155863485Y-100731808D01*
X155832770Y-100667803D01*
X155841533Y-100597350D01*
X155863484Y-100563194D01*
X155933040Y-100485944D01*
X156028527Y-100320556D01*
X156087542Y-100138928D01*
X156107504Y-99949000D01*
X156100770Y-99884928D01*
X156088232Y-99765635D01*
X156088232Y-99765633D01*
X156087542Y-99759072D01*
X156028527Y-99577444D01*
X155933040Y-99412056D01*
X155873532Y-99345965D01*
X155867621Y-99339400D01*
X159004896Y-99339400D01*
X159005586Y-99345965D01*
X159022309Y-99505072D01*
X159024858Y-99529328D01*
X159083873Y-99710956D01*
X159179360Y-99876344D01*
X159183778Y-99881251D01*
X159183779Y-99881252D01*
X159244780Y-99949000D01*
X159307147Y-100018266D01*
X159461648Y-100130518D01*
X159467676Y-100133202D01*
X159467678Y-100133203D01*
X159630079Y-100205508D01*
X159636112Y-100208194D01*
X159642567Y-100209566D01*
X159642570Y-100209567D01*
X159646104Y-100210318D01*
X159647951Y-100211315D01*
X159648852Y-100211608D01*
X159648798Y-100211773D01*
X159708578Y-100244046D01*
X159742899Y-100306195D01*
X159738172Y-100377034D01*
X159695897Y-100434072D01*
X159662164Y-100451667D01*
X159661512Y-100451806D01*
X159655479Y-100454492D01*
X159493078Y-100526797D01*
X159493076Y-100526798D01*
X159487048Y-100529482D01*
X159332547Y-100641734D01*
X159204760Y-100783656D01*
X159109273Y-100949044D01*
X159050258Y-101130672D01*
X159049568Y-101137233D01*
X159049568Y-101137235D01*
X159030986Y-101314035D01*
X159030296Y-101320600D01*
X159050258Y-101510528D01*
X159109273Y-101692156D01*
X159204760Y-101857544D01*
X159332547Y-101999466D01*
X159487048Y-102111718D01*
X159493076Y-102114402D01*
X159493078Y-102114403D01*
X159550128Y-102139803D01*
X159661512Y-102189394D01*
X159754913Y-102209247D01*
X159841856Y-102227728D01*
X159841861Y-102227728D01*
X159848313Y-102229100D01*
X160039287Y-102229100D01*
X160045739Y-102227728D01*
X160045744Y-102227728D01*
X160132688Y-102209247D01*
X160226088Y-102189394D01*
X160337472Y-102139803D01*
X160394522Y-102114403D01*
X160394524Y-102114402D01*
X160400552Y-102111718D01*
X160555053Y-101999466D01*
X160682840Y-101857544D01*
X160778327Y-101692156D01*
X160837342Y-101510528D01*
X160857304Y-101320600D01*
X160856614Y-101314035D01*
X160838032Y-101137235D01*
X160838032Y-101137233D01*
X160837342Y-101130672D01*
X160778327Y-100949044D01*
X160682840Y-100783656D01*
X160555053Y-100641734D01*
X160400552Y-100529482D01*
X160394524Y-100526798D01*
X160394522Y-100526797D01*
X160232119Y-100454491D01*
X160232118Y-100454491D01*
X160226088Y-100451806D01*
X160219633Y-100450434D01*
X160219630Y-100450433D01*
X160216096Y-100449682D01*
X160214249Y-100448685D01*
X160213348Y-100448392D01*
X160213402Y-100448227D01*
X160153622Y-100415954D01*
X160119301Y-100353805D01*
X160124028Y-100282966D01*
X160166303Y-100225928D01*
X160200036Y-100208333D01*
X160200688Y-100208194D01*
X160206721Y-100205508D01*
X160369122Y-100133203D01*
X160369124Y-100133202D01*
X160375152Y-100130518D01*
X160529653Y-100018266D01*
X160592020Y-99949000D01*
X160653021Y-99881252D01*
X160653022Y-99881251D01*
X160657440Y-99876344D01*
X160752927Y-99710956D01*
X160811942Y-99529328D01*
X160814492Y-99505072D01*
X160831214Y-99345965D01*
X160831904Y-99339400D01*
X160827111Y-99293794D01*
X160812632Y-99156035D01*
X160812632Y-99156033D01*
X160811942Y-99149472D01*
X160752927Y-98967844D01*
X160657440Y-98802456D01*
X160529653Y-98660534D01*
X160375152Y-98548282D01*
X160369124Y-98545598D01*
X160369122Y-98545597D01*
X160206719Y-98473291D01*
X160206718Y-98473291D01*
X160200688Y-98470606D01*
X160107288Y-98450753D01*
X160020344Y-98432272D01*
X160020339Y-98432272D01*
X160013887Y-98430900D01*
X159822913Y-98430900D01*
X159816461Y-98432272D01*
X159816456Y-98432272D01*
X159729512Y-98450753D01*
X159636112Y-98470606D01*
X159630082Y-98473291D01*
X159630081Y-98473291D01*
X159467678Y-98545597D01*
X159467676Y-98545598D01*
X159461648Y-98548282D01*
X159307147Y-98660534D01*
X159179360Y-98802456D01*
X159083873Y-98967844D01*
X159024858Y-99149472D01*
X159024168Y-99156033D01*
X159024168Y-99156035D01*
X159009689Y-99293794D01*
X159004896Y-99339400D01*
X155867621Y-99339400D01*
X155809675Y-99275045D01*
X155809674Y-99275044D01*
X155805253Y-99270134D01*
X155650752Y-99157882D01*
X155644724Y-99155198D01*
X155644722Y-99155197D01*
X155482319Y-99082891D01*
X155482318Y-99082891D01*
X155476288Y-99080206D01*
X155382888Y-99060353D01*
X155295944Y-99041872D01*
X155295939Y-99041872D01*
X155289487Y-99040500D01*
X155098513Y-99040500D01*
X155092061Y-99041872D01*
X155092056Y-99041872D01*
X155005112Y-99060353D01*
X154911712Y-99080206D01*
X154905682Y-99082891D01*
X154905681Y-99082891D01*
X154743278Y-99155197D01*
X154743276Y-99155198D01*
X154737248Y-99157882D01*
X154731910Y-99161760D01*
X154731907Y-99161762D01*
X154706849Y-99179968D01*
X154639981Y-99203826D01*
X154570830Y-99187744D01*
X154536787Y-99157383D01*
X154536040Y-99158056D01*
X154412675Y-99021045D01*
X154412674Y-99021044D01*
X154408253Y-99016134D01*
X154253752Y-98903882D01*
X154247724Y-98901198D01*
X154247722Y-98901197D01*
X154085319Y-98828891D01*
X154085318Y-98828891D01*
X154079288Y-98826206D01*
X153966721Y-98802279D01*
X153898944Y-98787872D01*
X153898939Y-98787872D01*
X153892487Y-98786500D01*
X153701513Y-98786500D01*
X153695061Y-98787872D01*
X153695056Y-98787872D01*
X153627279Y-98802279D01*
X153514712Y-98826206D01*
X153508682Y-98828891D01*
X153508681Y-98828891D01*
X153346278Y-98901197D01*
X153346276Y-98901198D01*
X153340248Y-98903882D01*
X153334907Y-98907762D01*
X153334906Y-98907763D01*
X153299561Y-98933443D01*
X153232694Y-98957301D01*
X153163542Y-98941221D01*
X153151439Y-98933443D01*
X153116094Y-98907763D01*
X153116093Y-98907762D01*
X153110752Y-98903882D01*
X153104724Y-98901198D01*
X153104722Y-98901197D01*
X152942319Y-98828891D01*
X152942318Y-98828891D01*
X152936288Y-98826206D01*
X152823721Y-98802279D01*
X152755944Y-98787872D01*
X152755939Y-98787872D01*
X152749487Y-98786500D01*
X152558513Y-98786500D01*
X152552061Y-98787872D01*
X152552056Y-98787872D01*
X152484279Y-98802279D01*
X152371712Y-98826206D01*
X152365682Y-98828891D01*
X152365681Y-98828891D01*
X152203278Y-98901197D01*
X152203276Y-98901198D01*
X152197248Y-98903882D01*
X152042747Y-99016134D01*
X152038326Y-99021044D01*
X152038325Y-99021045D01*
X151960257Y-99107749D01*
X151914960Y-99158056D01*
X151819473Y-99323444D01*
X151760458Y-99505072D01*
X151759768Y-99511633D01*
X151759768Y-99511635D01*
X151757249Y-99535606D01*
X151740496Y-99695000D01*
X114554000Y-99695000D01*
X114554000Y-98425000D01*
X132055496Y-98425000D01*
X132056186Y-98431565D01*
X132060572Y-98473291D01*
X132075458Y-98614928D01*
X132134473Y-98796556D01*
X132229960Y-98961944D01*
X132234378Y-98966851D01*
X132234379Y-98966852D01*
X132278753Y-99016134D01*
X132357747Y-99103866D01*
X132411877Y-99143194D01*
X132495330Y-99203826D01*
X132512248Y-99216118D01*
X132518276Y-99218802D01*
X132518278Y-99218803D01*
X132680681Y-99291109D01*
X132686712Y-99293794D01*
X132780112Y-99313647D01*
X132867056Y-99332128D01*
X132867061Y-99332128D01*
X132873513Y-99333500D01*
X133064487Y-99333500D01*
X133070939Y-99332128D01*
X133070944Y-99332128D01*
X133157888Y-99313647D01*
X133251288Y-99293794D01*
X133257319Y-99291109D01*
X133419722Y-99218803D01*
X133419724Y-99218802D01*
X133425752Y-99216118D01*
X133442671Y-99203826D01*
X133526123Y-99143194D01*
X133580253Y-99103866D01*
X133659247Y-99016134D01*
X133703621Y-98966852D01*
X133703622Y-98966851D01*
X133708040Y-98961944D01*
X133803527Y-98796556D01*
X133862542Y-98614928D01*
X133877429Y-98473291D01*
X133881814Y-98431565D01*
X133882504Y-98425000D01*
X133862542Y-98235072D01*
X133803527Y-98053444D01*
X133708040Y-97888056D01*
X133580253Y-97746134D01*
X133425752Y-97633882D01*
X133419724Y-97631198D01*
X133419722Y-97631197D01*
X133257319Y-97558891D01*
X133257318Y-97558891D01*
X133251288Y-97556206D01*
X133157888Y-97536353D01*
X133070944Y-97517872D01*
X133070939Y-97517872D01*
X133064487Y-97516500D01*
X132873513Y-97516500D01*
X132867061Y-97517872D01*
X132867056Y-97517872D01*
X132780112Y-97536353D01*
X132686712Y-97556206D01*
X132680682Y-97558891D01*
X132680681Y-97558891D01*
X132518278Y-97631197D01*
X132518276Y-97631198D01*
X132512248Y-97633882D01*
X132357747Y-97746134D01*
X132229960Y-97888056D01*
X132134473Y-98053444D01*
X132075458Y-98235072D01*
X132055496Y-98425000D01*
X114554000Y-98425000D01*
X114554000Y-94869000D01*
X132055496Y-94869000D01*
X132056186Y-94875565D01*
X132074319Y-95048088D01*
X132075458Y-95058928D01*
X132134473Y-95240556D01*
X132137776Y-95246278D01*
X132137777Y-95246279D01*
X132141868Y-95253365D01*
X132229960Y-95405944D01*
X132234378Y-95410851D01*
X132234379Y-95410852D01*
X132319805Y-95505727D01*
X132357747Y-95547866D01*
X132456843Y-95619864D01*
X132493820Y-95646729D01*
X132512248Y-95660118D01*
X132518276Y-95662802D01*
X132518278Y-95662803D01*
X132577320Y-95689090D01*
X132686712Y-95737794D01*
X132774495Y-95756453D01*
X132867056Y-95776128D01*
X132867061Y-95776128D01*
X132873513Y-95777500D01*
X133064487Y-95777500D01*
X133070939Y-95776128D01*
X133070944Y-95776128D01*
X133163505Y-95756453D01*
X133251288Y-95737794D01*
X133360680Y-95689090D01*
X133419722Y-95662803D01*
X133419724Y-95662802D01*
X133425752Y-95660118D01*
X133444181Y-95646729D01*
X133481157Y-95619864D01*
X133580253Y-95547866D01*
X133618195Y-95505727D01*
X133703621Y-95410852D01*
X133703622Y-95410851D01*
X133708040Y-95405944D01*
X133796132Y-95253365D01*
X133800223Y-95246279D01*
X133800224Y-95246278D01*
X133803527Y-95240556D01*
X133841724Y-95123000D01*
X142209876Y-95123000D01*
X142210566Y-95129565D01*
X142226782Y-95283847D01*
X142229838Y-95312928D01*
X142288853Y-95494556D01*
X142292156Y-95500278D01*
X142292157Y-95500279D01*
X142311013Y-95532939D01*
X142384340Y-95659944D01*
X142388758Y-95664851D01*
X142388759Y-95664852D01*
X142488952Y-95776128D01*
X142512127Y-95801866D01*
X142591906Y-95859829D01*
X142648200Y-95900729D01*
X142666628Y-95914118D01*
X142672656Y-95916802D01*
X142672658Y-95916803D01*
X142773041Y-95961496D01*
X142841092Y-95991794D01*
X142905268Y-96005435D01*
X143021436Y-96030128D01*
X143021441Y-96030128D01*
X143027893Y-96031500D01*
X143218867Y-96031500D01*
X143225319Y-96030128D01*
X143225324Y-96030128D01*
X143310607Y-96012000D01*
X144616396Y-96012000D01*
X144617086Y-96018565D01*
X144618446Y-96031500D01*
X144636358Y-96201928D01*
X144695373Y-96383556D01*
X144698676Y-96389278D01*
X144698677Y-96389279D01*
X144709291Y-96407662D01*
X144790860Y-96548944D01*
X144795278Y-96553851D01*
X144795279Y-96553852D01*
X144883521Y-96651855D01*
X144918647Y-96690866D01*
X145073148Y-96803118D01*
X145079176Y-96805802D01*
X145079178Y-96805803D01*
X145241581Y-96878109D01*
X145247612Y-96880794D01*
X145341012Y-96900647D01*
X145427956Y-96919128D01*
X145427961Y-96919128D01*
X145434413Y-96920500D01*
X145625387Y-96920500D01*
X145631839Y-96919128D01*
X145631844Y-96919128D01*
X145718788Y-96900647D01*
X145812188Y-96880794D01*
X145818219Y-96878109D01*
X145980622Y-96805803D01*
X145980624Y-96805802D01*
X145986652Y-96803118D01*
X146141153Y-96690866D01*
X146176279Y-96651854D01*
X146236724Y-96614616D01*
X146307708Y-96615968D01*
X146366692Y-96655482D01*
X146379030Y-96673162D01*
X146453960Y-96802944D01*
X146581747Y-96944866D01*
X146736248Y-97057118D01*
X146742276Y-97059802D01*
X146742278Y-97059803D01*
X146904681Y-97132109D01*
X146910712Y-97134794D01*
X147004113Y-97154647D01*
X147091056Y-97173128D01*
X147091061Y-97173128D01*
X147097513Y-97174500D01*
X147288487Y-97174500D01*
X147294939Y-97173128D01*
X147294944Y-97173128D01*
X147381887Y-97154647D01*
X147475288Y-97134794D01*
X147481319Y-97132109D01*
X147643722Y-97059803D01*
X147643724Y-97059802D01*
X147649752Y-97057118D01*
X147804253Y-96944866D01*
X147932040Y-96802944D01*
X147996748Y-96690866D01*
X148024223Y-96643279D01*
X148024224Y-96643278D01*
X148027527Y-96637556D01*
X148086542Y-96455928D01*
X148106504Y-96266000D01*
X148092136Y-96129292D01*
X148087232Y-96082635D01*
X148087232Y-96082633D01*
X148086542Y-96076072D01*
X148027527Y-95894444D01*
X148012849Y-95869020D01*
X147974077Y-95801866D01*
X147932040Y-95729056D01*
X147896055Y-95689090D01*
X147808675Y-95592045D01*
X147808671Y-95592041D01*
X147806779Y-95589940D01*
X151105496Y-95589940D01*
X151106186Y-95596505D01*
X151120118Y-95729056D01*
X151125458Y-95779868D01*
X151184473Y-95961496D01*
X151187776Y-95967218D01*
X151187777Y-95967219D01*
X151202758Y-95993166D01*
X151279960Y-96126884D01*
X151284378Y-96131791D01*
X151284379Y-96131792D01*
X151363830Y-96220031D01*
X151407747Y-96268806D01*
X151562248Y-96381058D01*
X151568276Y-96383742D01*
X151568278Y-96383743D01*
X151730681Y-96456049D01*
X151736712Y-96458734D01*
X151821381Y-96476731D01*
X151917056Y-96497068D01*
X151917061Y-96497068D01*
X151923513Y-96498440D01*
X152114487Y-96498440D01*
X152120939Y-96497068D01*
X152120944Y-96497068D01*
X152216619Y-96476731D01*
X152301288Y-96458734D01*
X152307319Y-96456049D01*
X152469722Y-96383743D01*
X152469724Y-96383742D01*
X152475752Y-96381058D01*
X152630253Y-96268806D01*
X152674170Y-96220031D01*
X152753621Y-96131792D01*
X152753622Y-96131791D01*
X152758040Y-96126884D01*
X152835242Y-95993166D01*
X152850223Y-95967219D01*
X152850224Y-95967218D01*
X152853527Y-95961496D01*
X152912542Y-95779868D01*
X152917883Y-95729056D01*
X152931814Y-95596505D01*
X152932504Y-95589940D01*
X152922963Y-95499162D01*
X153259658Y-95499162D01*
X153260348Y-95505727D01*
X153277073Y-95664852D01*
X153279620Y-95689090D01*
X153338635Y-95870718D01*
X153434122Y-96036106D01*
X153438540Y-96041013D01*
X153438541Y-96041014D01*
X153557487Y-96173117D01*
X153561909Y-96178028D01*
X153629643Y-96227240D01*
X153682992Y-96266000D01*
X153716410Y-96290280D01*
X153722438Y-96292964D01*
X153722440Y-96292965D01*
X153725149Y-96294171D01*
X153890874Y-96367956D01*
X153964266Y-96383556D01*
X154071218Y-96406290D01*
X154071223Y-96406290D01*
X154077675Y-96407662D01*
X154268649Y-96407662D01*
X154275101Y-96406290D01*
X154275106Y-96406290D01*
X154382058Y-96383556D01*
X154455450Y-96367956D01*
X154621175Y-96294171D01*
X154623884Y-96292965D01*
X154623886Y-96292964D01*
X154629914Y-96290280D01*
X154663333Y-96266000D01*
X154716681Y-96227240D01*
X154784415Y-96178028D01*
X154788837Y-96173117D01*
X154907783Y-96041014D01*
X154907784Y-96041013D01*
X154912202Y-96036106D01*
X155007689Y-95870718D01*
X155066704Y-95689090D01*
X155069252Y-95664852D01*
X155085976Y-95505727D01*
X155086666Y-95499162D01*
X155083031Y-95464578D01*
X155067394Y-95315797D01*
X155067394Y-95315795D01*
X155066704Y-95309234D01*
X155036636Y-95216695D01*
X160881251Y-95216695D01*
X160881548Y-95221848D01*
X160881548Y-95221851D01*
X160890881Y-95383719D01*
X160894110Y-95439715D01*
X160895247Y-95444761D01*
X160895248Y-95444767D01*
X160915119Y-95532939D01*
X160943222Y-95657639D01*
X161027266Y-95864616D01*
X161078019Y-95947438D01*
X161141291Y-96050688D01*
X161143987Y-96055088D01*
X161290250Y-96223938D01*
X161462126Y-96366632D01*
X161655000Y-96479338D01*
X161863692Y-96559030D01*
X161868760Y-96560061D01*
X161868763Y-96560062D01*
X161976017Y-96581883D01*
X162082597Y-96603567D01*
X162087772Y-96603757D01*
X162087774Y-96603757D01*
X162300673Y-96611564D01*
X162300677Y-96611564D01*
X162305837Y-96611753D01*
X162310957Y-96611097D01*
X162310959Y-96611097D01*
X162522288Y-96584025D01*
X162522289Y-96584025D01*
X162527416Y-96583368D01*
X162532366Y-96581883D01*
X162736429Y-96520661D01*
X162736434Y-96520659D01*
X162741384Y-96519174D01*
X162941994Y-96420896D01*
X163123860Y-96291173D01*
X163151234Y-96263895D01*
X163278435Y-96137137D01*
X163282096Y-96133489D01*
X163341594Y-96050689D01*
X163412453Y-95952077D01*
X163413776Y-95953028D01*
X163460645Y-95909857D01*
X163530580Y-95897625D01*
X163596026Y-95925144D01*
X163623875Y-95956994D01*
X163683987Y-96055088D01*
X163830250Y-96223938D01*
X164002126Y-96366632D01*
X164195000Y-96479338D01*
X164403692Y-96559030D01*
X164408760Y-96560061D01*
X164408763Y-96560062D01*
X164516017Y-96581883D01*
X164622597Y-96603567D01*
X164627772Y-96603757D01*
X164627774Y-96603757D01*
X164840673Y-96611564D01*
X164840677Y-96611564D01*
X164845837Y-96611753D01*
X164850957Y-96611097D01*
X164850959Y-96611097D01*
X165062288Y-96584025D01*
X165062289Y-96584025D01*
X165067416Y-96583368D01*
X165072366Y-96581883D01*
X165276429Y-96520661D01*
X165276434Y-96520659D01*
X165281384Y-96519174D01*
X165481994Y-96420896D01*
X165663860Y-96291173D01*
X165691234Y-96263895D01*
X165818435Y-96137137D01*
X165822096Y-96133489D01*
X165881594Y-96050689D01*
X165949435Y-95956277D01*
X165952453Y-95952077D01*
X165969887Y-95916803D01*
X166049136Y-95756453D01*
X166049137Y-95756451D01*
X166051430Y-95751811D01*
X166112214Y-95551749D01*
X166114865Y-95543023D01*
X166114865Y-95543021D01*
X166116370Y-95538069D01*
X166145529Y-95316590D01*
X166145611Y-95313240D01*
X166147074Y-95253365D01*
X166147074Y-95253361D01*
X166147156Y-95250000D01*
X166128852Y-95027361D01*
X166074431Y-94810702D01*
X165985354Y-94605840D01*
X165945906Y-94544862D01*
X165866822Y-94422617D01*
X165866820Y-94422614D01*
X165864014Y-94418277D01*
X165713670Y-94253051D01*
X165709619Y-94249852D01*
X165709615Y-94249848D01*
X165542414Y-94117800D01*
X165542410Y-94117798D01*
X165538359Y-94114598D01*
X165497053Y-94091796D01*
X165447084Y-94041364D01*
X165432312Y-93971921D01*
X165457428Y-93905516D01*
X165484780Y-93878909D01*
X165548441Y-93833500D01*
X165663860Y-93751173D01*
X165822096Y-93593489D01*
X165881594Y-93510689D01*
X165949435Y-93416277D01*
X165952453Y-93412077D01*
X165973320Y-93369857D01*
X166049136Y-93216453D01*
X166049137Y-93216451D01*
X166051430Y-93211811D01*
X166116370Y-92998069D01*
X166145529Y-92776590D01*
X166147156Y-92710000D01*
X166128852Y-92487361D01*
X166074431Y-92270702D01*
X165985354Y-92065840D01*
X165864014Y-91878277D01*
X165713670Y-91713051D01*
X165709619Y-91709852D01*
X165709615Y-91709848D01*
X165542414Y-91577800D01*
X165542410Y-91577798D01*
X165538359Y-91574598D01*
X165497053Y-91551796D01*
X165447084Y-91501364D01*
X165432312Y-91431921D01*
X165457428Y-91365516D01*
X165484780Y-91338909D01*
X165543810Y-91296803D01*
X165663860Y-91211173D01*
X165822096Y-91053489D01*
X165881594Y-90970689D01*
X165949435Y-90876277D01*
X165952453Y-90872077D01*
X165973320Y-90829857D01*
X166049136Y-90676453D01*
X166049137Y-90676451D01*
X166051430Y-90671811D01*
X166116370Y-90458069D01*
X166145529Y-90236590D01*
X166146269Y-90206310D01*
X166147074Y-90173365D01*
X166147074Y-90173361D01*
X166147156Y-90170000D01*
X166128852Y-89947361D01*
X166074431Y-89730702D01*
X165985354Y-89525840D01*
X165945906Y-89464862D01*
X165866822Y-89342617D01*
X165866820Y-89342614D01*
X165864014Y-89338277D01*
X165713670Y-89173051D01*
X165709619Y-89169852D01*
X165709615Y-89169848D01*
X165542414Y-89037800D01*
X165542410Y-89037798D01*
X165538359Y-89034598D01*
X165497053Y-89011796D01*
X165447084Y-88961364D01*
X165432312Y-88891921D01*
X165457428Y-88825516D01*
X165484780Y-88798909D01*
X165528603Y-88767650D01*
X165663860Y-88671173D01*
X165712429Y-88622774D01*
X165818435Y-88517137D01*
X165822096Y-88513489D01*
X165881594Y-88430689D01*
X165949435Y-88336277D01*
X165952453Y-88332077D01*
X165973320Y-88289857D01*
X166049136Y-88136453D01*
X166049137Y-88136451D01*
X166051430Y-88131811D01*
X166116370Y-87918069D01*
X166145529Y-87696590D01*
X166145611Y-87693240D01*
X166147074Y-87633365D01*
X166147074Y-87633361D01*
X166147156Y-87630000D01*
X166128852Y-87407361D01*
X166074431Y-87190702D01*
X165985354Y-86985840D01*
X165930511Y-86901065D01*
X165866822Y-86802617D01*
X165866820Y-86802614D01*
X165864014Y-86798277D01*
X165713670Y-86633051D01*
X165709619Y-86629852D01*
X165709615Y-86629848D01*
X165542414Y-86497800D01*
X165542410Y-86497798D01*
X165538359Y-86494598D01*
X165496569Y-86471529D01*
X165446598Y-86421097D01*
X165431826Y-86351654D01*
X165456942Y-86285248D01*
X165484294Y-86258641D01*
X165659328Y-86133792D01*
X165667200Y-86127139D01*
X165818052Y-85976812D01*
X165824730Y-85968965D01*
X165949003Y-85796020D01*
X165954313Y-85787183D01*
X166048670Y-85596267D01*
X166052469Y-85586672D01*
X166114377Y-85382910D01*
X166116555Y-85372837D01*
X166117986Y-85361962D01*
X166115775Y-85347778D01*
X166102617Y-85344000D01*
X160927225Y-85344000D01*
X160913694Y-85347973D01*
X160912257Y-85357966D01*
X160942565Y-85492446D01*
X160945645Y-85502275D01*
X161025770Y-85699603D01*
X161030413Y-85708794D01*
X161141694Y-85890388D01*
X161147777Y-85898699D01*
X161287213Y-86059667D01*
X161294580Y-86066883D01*
X161458434Y-86202916D01*
X161466881Y-86208831D01*
X161535969Y-86249203D01*
X161584693Y-86300842D01*
X161597764Y-86370625D01*
X161571033Y-86436396D01*
X161530584Y-86469752D01*
X161517607Y-86476507D01*
X161513474Y-86479610D01*
X161513471Y-86479612D01*
X161343100Y-86607530D01*
X161338965Y-86610635D01*
X161184629Y-86772138D01*
X161058743Y-86956680D01*
X160964688Y-87159305D01*
X160904989Y-87374570D01*
X160881251Y-87596695D01*
X160881548Y-87601848D01*
X160881548Y-87601851D01*
X160887011Y-87696590D01*
X160894110Y-87819715D01*
X160895247Y-87824761D01*
X160895248Y-87824767D01*
X160915119Y-87912939D01*
X160943222Y-88037639D01*
X161027266Y-88244616D01*
X161078019Y-88327438D01*
X161141291Y-88430688D01*
X161143987Y-88435088D01*
X161290250Y-88603938D01*
X161462126Y-88746632D01*
X161523411Y-88782444D01*
X161535445Y-88789476D01*
X161584169Y-88841114D01*
X161597240Y-88910897D01*
X161570509Y-88976669D01*
X161530055Y-89010027D01*
X161517607Y-89016507D01*
X161513474Y-89019610D01*
X161513471Y-89019612D01*
X161489247Y-89037800D01*
X161338965Y-89150635D01*
X161184629Y-89312138D01*
X161058743Y-89496680D01*
X160964688Y-89699305D01*
X160904989Y-89914570D01*
X160881251Y-90136695D01*
X160881548Y-90141848D01*
X160881548Y-90141851D01*
X160887011Y-90236590D01*
X160894110Y-90359715D01*
X160895247Y-90364761D01*
X160895248Y-90364767D01*
X160910105Y-90430689D01*
X160943222Y-90577639D01*
X161027266Y-90784616D01*
X161078019Y-90867438D01*
X161141291Y-90970688D01*
X161143987Y-90975088D01*
X161290250Y-91143938D01*
X161462126Y-91286632D01*
X161532595Y-91327811D01*
X161535445Y-91329476D01*
X161584169Y-91381114D01*
X161597240Y-91450897D01*
X161570509Y-91516669D01*
X161530055Y-91550027D01*
X161517607Y-91556507D01*
X161513474Y-91559610D01*
X161513471Y-91559612D01*
X161392577Y-91650382D01*
X161338965Y-91690635D01*
X161184629Y-91852138D01*
X161058743Y-92036680D01*
X160964688Y-92239305D01*
X160904989Y-92454570D01*
X160881251Y-92676695D01*
X160881548Y-92681848D01*
X160881548Y-92681851D01*
X160887011Y-92776590D01*
X160894110Y-92899715D01*
X160895247Y-92904761D01*
X160895248Y-92904767D01*
X160915119Y-92992939D01*
X160943222Y-93117639D01*
X161027266Y-93324616D01*
X161078019Y-93407438D01*
X161141291Y-93510688D01*
X161143987Y-93515088D01*
X161290250Y-93683938D01*
X161462126Y-93826632D01*
X161532595Y-93867811D01*
X161535445Y-93869476D01*
X161584169Y-93921114D01*
X161597240Y-93990897D01*
X161570509Y-94056669D01*
X161530055Y-94090027D01*
X161517607Y-94096507D01*
X161513474Y-94099610D01*
X161513471Y-94099612D01*
X161343100Y-94227530D01*
X161338965Y-94230635D01*
X161184629Y-94392138D01*
X161181720Y-94396403D01*
X161181714Y-94396411D01*
X161149160Y-94444134D01*
X161058743Y-94576680D01*
X161043003Y-94610590D01*
X160977621Y-94751444D01*
X160964688Y-94779305D01*
X160904989Y-94994570D01*
X160881251Y-95216695D01*
X155036636Y-95216695D01*
X155007689Y-95127606D01*
X155002882Y-95119279D01*
X154964613Y-95052996D01*
X154912202Y-94962218D01*
X154879020Y-94925365D01*
X154788837Y-94825207D01*
X154788836Y-94825206D01*
X154784415Y-94820296D01*
X154629914Y-94708044D01*
X154623886Y-94705360D01*
X154623884Y-94705359D01*
X154461481Y-94633053D01*
X154461480Y-94633053D01*
X154455450Y-94630368D01*
X154362050Y-94610515D01*
X154275106Y-94592034D01*
X154275101Y-94592034D01*
X154268649Y-94590662D01*
X154077675Y-94590662D01*
X154071223Y-94592034D01*
X154071218Y-94592034D01*
X153984275Y-94610515D01*
X153890874Y-94630368D01*
X153884844Y-94633053D01*
X153884843Y-94633053D01*
X153722440Y-94705359D01*
X153722438Y-94705360D01*
X153716410Y-94708044D01*
X153561909Y-94820296D01*
X153557488Y-94825206D01*
X153557487Y-94825207D01*
X153467305Y-94925365D01*
X153434122Y-94962218D01*
X153381711Y-95052996D01*
X153343443Y-95119279D01*
X153338635Y-95127606D01*
X153279620Y-95309234D01*
X153278930Y-95315795D01*
X153278930Y-95315797D01*
X153263293Y-95464578D01*
X153259658Y-95499162D01*
X152922963Y-95499162D01*
X152919328Y-95464578D01*
X152913232Y-95406575D01*
X152913232Y-95406573D01*
X152912542Y-95400012D01*
X152853527Y-95218384D01*
X152758040Y-95052996D01*
X152710059Y-94999707D01*
X152634675Y-94915985D01*
X152634674Y-94915984D01*
X152630253Y-94911074D01*
X152499010Y-94815720D01*
X152481094Y-94802703D01*
X152481093Y-94802702D01*
X152475752Y-94798822D01*
X152469724Y-94796138D01*
X152469722Y-94796137D01*
X152307319Y-94723831D01*
X152307318Y-94723831D01*
X152301288Y-94721146D01*
X152207888Y-94701293D01*
X152120944Y-94682812D01*
X152120939Y-94682812D01*
X152114487Y-94681440D01*
X151923513Y-94681440D01*
X151917061Y-94682812D01*
X151917056Y-94682812D01*
X151830112Y-94701293D01*
X151736712Y-94721146D01*
X151730682Y-94723831D01*
X151730681Y-94723831D01*
X151568278Y-94796137D01*
X151568276Y-94796138D01*
X151562248Y-94798822D01*
X151556907Y-94802702D01*
X151556906Y-94802703D01*
X151538990Y-94815720D01*
X151407747Y-94911074D01*
X151403326Y-94915984D01*
X151403325Y-94915985D01*
X151327942Y-94999707D01*
X151279960Y-95052996D01*
X151184473Y-95218384D01*
X151125458Y-95400012D01*
X151124768Y-95406573D01*
X151124768Y-95406575D01*
X151118672Y-95464578D01*
X151105496Y-95589940D01*
X147806779Y-95589940D01*
X147804253Y-95587134D01*
X147684708Y-95500279D01*
X147655094Y-95478763D01*
X147655093Y-95478762D01*
X147649752Y-95474882D01*
X147643724Y-95472198D01*
X147643722Y-95472197D01*
X147481319Y-95399891D01*
X147481318Y-95399891D01*
X147475288Y-95397206D01*
X147348617Y-95370281D01*
X147294944Y-95358872D01*
X147294939Y-95358872D01*
X147288487Y-95357500D01*
X147097513Y-95357500D01*
X147091061Y-95358872D01*
X147091056Y-95358872D01*
X147037383Y-95370281D01*
X146910712Y-95397206D01*
X146904682Y-95399891D01*
X146904681Y-95399891D01*
X146742278Y-95472197D01*
X146742276Y-95472198D01*
X146736248Y-95474882D01*
X146730907Y-95478762D01*
X146730906Y-95478763D01*
X146701292Y-95500279D01*
X146581747Y-95587134D01*
X146546621Y-95626146D01*
X146486176Y-95663384D01*
X146415192Y-95662032D01*
X146356208Y-95622518D01*
X146343870Y-95604838D01*
X146268940Y-95475056D01*
X146262617Y-95468033D01*
X146261901Y-95466542D01*
X146260641Y-95464808D01*
X146260958Y-95464578D01*
X146231897Y-95404030D01*
X146240657Y-95333576D01*
X146262613Y-95299409D01*
X146276621Y-95283852D01*
X146276625Y-95283847D01*
X146281040Y-95278944D01*
X146368415Y-95127606D01*
X146373223Y-95119279D01*
X146373224Y-95119278D01*
X146376527Y-95113556D01*
X146435542Y-94931928D01*
X146451059Y-94784297D01*
X146454814Y-94748565D01*
X146455504Y-94742000D01*
X146443627Y-94628996D01*
X146436232Y-94558635D01*
X146436232Y-94558633D01*
X146435542Y-94552072D01*
X146376527Y-94370444D01*
X146281040Y-94205056D01*
X146202475Y-94117800D01*
X146157675Y-94068045D01*
X146157674Y-94068044D01*
X146153253Y-94063134D01*
X146041303Y-93981797D01*
X146004094Y-93954763D01*
X146004093Y-93954762D01*
X145998752Y-93950882D01*
X145992724Y-93948198D01*
X145992722Y-93948197D01*
X145830319Y-93875891D01*
X145830318Y-93875891D01*
X145824288Y-93873206D01*
X145730888Y-93853353D01*
X145643944Y-93834872D01*
X145643939Y-93834872D01*
X145637487Y-93833500D01*
X145446513Y-93833500D01*
X145440061Y-93834872D01*
X145440056Y-93834872D01*
X145353112Y-93853353D01*
X145259712Y-93873206D01*
X145253682Y-93875891D01*
X145253681Y-93875891D01*
X145091278Y-93948197D01*
X145091276Y-93948198D01*
X145085248Y-93950882D01*
X145079907Y-93954762D01*
X145079906Y-93954763D01*
X145042697Y-93981797D01*
X144930747Y-94063134D01*
X144926326Y-94068044D01*
X144926325Y-94068045D01*
X144881526Y-94117800D01*
X144802960Y-94205056D01*
X144707473Y-94370444D01*
X144648458Y-94552072D01*
X144647768Y-94558633D01*
X144647768Y-94558635D01*
X144640373Y-94628996D01*
X144628496Y-94742000D01*
X144629186Y-94748565D01*
X144632942Y-94784297D01*
X144648458Y-94931928D01*
X144707473Y-95113556D01*
X144710776Y-95119278D01*
X144710777Y-95119279D01*
X144715585Y-95127606D01*
X144802960Y-95278944D01*
X144809283Y-95285967D01*
X144809999Y-95287458D01*
X144811259Y-95289192D01*
X144810942Y-95289422D01*
X144840003Y-95349970D01*
X144831243Y-95420424D01*
X144809287Y-95454590D01*
X144790860Y-95475056D01*
X144787559Y-95480774D01*
X144787557Y-95480777D01*
X144703629Y-95626145D01*
X144695373Y-95640444D01*
X144636358Y-95822072D01*
X144635668Y-95828633D01*
X144635668Y-95828635D01*
X144617086Y-96005435D01*
X144616396Y-96012000D01*
X143310607Y-96012000D01*
X143341492Y-96005435D01*
X143405668Y-95991794D01*
X143473719Y-95961496D01*
X143574102Y-95916803D01*
X143574104Y-95916802D01*
X143580132Y-95914118D01*
X143598561Y-95900729D01*
X143654854Y-95859829D01*
X143734633Y-95801866D01*
X143757808Y-95776128D01*
X143858001Y-95664852D01*
X143858002Y-95664851D01*
X143862420Y-95659944D01*
X143935747Y-95532939D01*
X143954603Y-95500279D01*
X143954604Y-95500278D01*
X143957907Y-95494556D01*
X144016922Y-95312928D01*
X144019979Y-95283847D01*
X144036194Y-95129565D01*
X144036884Y-95123000D01*
X144029011Y-95048088D01*
X144017612Y-94939635D01*
X144017612Y-94939633D01*
X144016922Y-94933072D01*
X143957907Y-94751444D01*
X143952455Y-94742000D01*
X143889554Y-94633053D01*
X143862420Y-94586056D01*
X143827303Y-94547054D01*
X143739055Y-94449045D01*
X143739054Y-94449044D01*
X143734633Y-94444134D01*
X143580132Y-94331882D01*
X143574104Y-94329198D01*
X143574102Y-94329197D01*
X143411699Y-94256891D01*
X143411698Y-94256891D01*
X143405668Y-94254206D01*
X143294776Y-94230635D01*
X143225324Y-94215872D01*
X143225319Y-94215872D01*
X143218867Y-94214500D01*
X143027893Y-94214500D01*
X143021441Y-94215872D01*
X143021436Y-94215872D01*
X142951984Y-94230635D01*
X142841092Y-94254206D01*
X142835062Y-94256891D01*
X142835061Y-94256891D01*
X142672658Y-94329197D01*
X142672656Y-94329198D01*
X142666628Y-94331882D01*
X142512127Y-94444134D01*
X142507706Y-94449044D01*
X142507705Y-94449045D01*
X142419458Y-94547054D01*
X142384340Y-94586056D01*
X142357206Y-94633053D01*
X142294306Y-94742000D01*
X142288853Y-94751444D01*
X142229838Y-94933072D01*
X142229148Y-94939633D01*
X142229148Y-94939635D01*
X142217749Y-95048088D01*
X142209876Y-95123000D01*
X133841724Y-95123000D01*
X133862542Y-95058928D01*
X133863682Y-95048088D01*
X133881814Y-94875565D01*
X133882504Y-94869000D01*
X133874846Y-94796137D01*
X133863232Y-94685635D01*
X133863232Y-94685633D01*
X133862542Y-94679072D01*
X133803527Y-94497444D01*
X133708040Y-94332056D01*
X133613925Y-94227530D01*
X133584675Y-94195045D01*
X133584674Y-94195044D01*
X133580253Y-94190134D01*
X133425752Y-94077882D01*
X133419724Y-94075198D01*
X133419722Y-94075197D01*
X133257319Y-94002891D01*
X133257318Y-94002891D01*
X133251288Y-94000206D01*
X133152200Y-93979144D01*
X133070944Y-93961872D01*
X133070939Y-93961872D01*
X133064487Y-93960500D01*
X132873513Y-93960500D01*
X132867061Y-93961872D01*
X132867056Y-93961872D01*
X132785800Y-93979144D01*
X132686712Y-94000206D01*
X132680682Y-94002891D01*
X132680681Y-94002891D01*
X132518278Y-94075197D01*
X132518276Y-94075198D01*
X132512248Y-94077882D01*
X132357747Y-94190134D01*
X132353326Y-94195044D01*
X132353325Y-94195045D01*
X132324076Y-94227530D01*
X132229960Y-94332056D01*
X132134473Y-94497444D01*
X132075458Y-94679072D01*
X132074768Y-94685633D01*
X132074768Y-94685635D01*
X132063154Y-94796137D01*
X132055496Y-94869000D01*
X114554000Y-94869000D01*
X114554000Y-91113438D01*
X153337058Y-91113438D01*
X153337748Y-91120003D01*
X153355536Y-91289242D01*
X153357020Y-91303366D01*
X153416035Y-91484994D01*
X153511522Y-91650382D01*
X153515940Y-91655289D01*
X153515941Y-91655290D01*
X153565065Y-91709848D01*
X153639309Y-91792304D01*
X153793810Y-91904556D01*
X153799838Y-91907240D01*
X153799840Y-91907241D01*
X153962243Y-91979547D01*
X153968274Y-91982232D01*
X154061674Y-92002085D01*
X154148618Y-92020566D01*
X154148623Y-92020566D01*
X154155075Y-92021938D01*
X154346049Y-92021938D01*
X154352501Y-92020566D01*
X154352506Y-92020566D01*
X154439450Y-92002085D01*
X154532850Y-91982232D01*
X154538881Y-91979547D01*
X154701284Y-91907241D01*
X154701286Y-91907240D01*
X154707314Y-91904556D01*
X154861815Y-91792304D01*
X154936059Y-91709848D01*
X154985183Y-91655290D01*
X154985184Y-91655289D01*
X154989602Y-91650382D01*
X155085089Y-91484994D01*
X155144104Y-91303366D01*
X155145589Y-91289242D01*
X155163376Y-91120003D01*
X155164066Y-91113438D01*
X155144104Y-90923510D01*
X155085089Y-90741882D01*
X154989602Y-90576494D01*
X154861815Y-90434572D01*
X154758784Y-90359715D01*
X154712656Y-90326201D01*
X154712655Y-90326200D01*
X154707314Y-90322320D01*
X154701286Y-90319636D01*
X154701284Y-90319635D01*
X154538881Y-90247329D01*
X154538880Y-90247329D01*
X154532850Y-90244644D01*
X154439450Y-90224791D01*
X154352506Y-90206310D01*
X154352501Y-90206310D01*
X154346049Y-90204938D01*
X154155075Y-90204938D01*
X154148623Y-90206310D01*
X154148618Y-90206310D01*
X154061675Y-90224791D01*
X153968274Y-90244644D01*
X153962244Y-90247329D01*
X153962243Y-90247329D01*
X153799840Y-90319635D01*
X153799838Y-90319636D01*
X153793810Y-90322320D01*
X153788469Y-90326200D01*
X153788468Y-90326201D01*
X153742340Y-90359715D01*
X153639309Y-90434572D01*
X153511522Y-90576494D01*
X153416035Y-90741882D01*
X153357020Y-90923510D01*
X153337058Y-91113438D01*
X114554000Y-91113438D01*
X114554000Y-89154000D01*
X149073496Y-89154000D01*
X149074186Y-89160565D01*
X149092463Y-89334457D01*
X149093458Y-89343928D01*
X149152473Y-89525556D01*
X149247960Y-89690944D01*
X149375747Y-89832866D01*
X149530248Y-89945118D01*
X149536276Y-89947802D01*
X149536278Y-89947803D01*
X149698681Y-90020109D01*
X149704712Y-90022794D01*
X149798113Y-90042647D01*
X149885056Y-90061128D01*
X149885061Y-90061128D01*
X149891513Y-90062500D01*
X150082487Y-90062500D01*
X150088939Y-90061128D01*
X150088944Y-90061128D01*
X150175887Y-90042647D01*
X150269288Y-90022794D01*
X150275319Y-90020109D01*
X150437722Y-89947803D01*
X150437724Y-89947802D01*
X150443752Y-89945118D01*
X150598253Y-89832866D01*
X150726040Y-89690944D01*
X150821527Y-89525556D01*
X150880542Y-89343928D01*
X150881538Y-89334457D01*
X150899814Y-89160565D01*
X150900504Y-89154000D01*
X150888291Y-89037800D01*
X150881232Y-88970635D01*
X150881232Y-88970633D01*
X150880542Y-88964072D01*
X150821527Y-88782444D01*
X150726040Y-88617056D01*
X150598253Y-88475134D01*
X150443752Y-88362882D01*
X150437724Y-88360198D01*
X150437722Y-88360197D01*
X150275319Y-88287891D01*
X150275318Y-88287891D01*
X150269288Y-88285206D01*
X150175887Y-88265353D01*
X150088944Y-88246872D01*
X150088939Y-88246872D01*
X150082487Y-88245500D01*
X149891513Y-88245500D01*
X149885061Y-88246872D01*
X149885056Y-88246872D01*
X149798112Y-88265353D01*
X149704712Y-88285206D01*
X149698682Y-88287891D01*
X149698681Y-88287891D01*
X149536278Y-88360197D01*
X149536276Y-88360198D01*
X149530248Y-88362882D01*
X149375747Y-88475134D01*
X149247960Y-88617056D01*
X149152473Y-88782444D01*
X149093458Y-88964072D01*
X149092768Y-88970633D01*
X149092768Y-88970635D01*
X149085709Y-89037800D01*
X149073496Y-89154000D01*
X114554000Y-89154000D01*
X114554000Y-86894500D01*
X137235996Y-86894500D01*
X137236686Y-86901065D01*
X137239418Y-86927054D01*
X137255958Y-87084428D01*
X137314973Y-87266056D01*
X137410460Y-87431444D01*
X137538247Y-87573366D01*
X137692748Y-87685618D01*
X137698776Y-87688302D01*
X137698778Y-87688303D01*
X137861181Y-87760609D01*
X137867212Y-87763294D01*
X137960613Y-87783147D01*
X138047556Y-87801628D01*
X138047561Y-87801628D01*
X138054013Y-87803000D01*
X138244987Y-87803000D01*
X138251439Y-87801628D01*
X138251444Y-87801628D01*
X138338387Y-87783147D01*
X138431788Y-87763294D01*
X138437819Y-87760609D01*
X138600222Y-87688303D01*
X138600224Y-87688302D01*
X138606252Y-87685618D01*
X138760753Y-87573366D01*
X138888540Y-87431444D01*
X138984027Y-87266056D01*
X139043042Y-87084428D01*
X139059583Y-86927054D01*
X139062314Y-86901065D01*
X139063004Y-86894500D01*
X139052489Y-86794457D01*
X139043732Y-86711135D01*
X139043732Y-86711133D01*
X139043042Y-86704572D01*
X138984027Y-86522944D01*
X138967662Y-86494598D01*
X138925225Y-86421097D01*
X138888540Y-86357556D01*
X138847584Y-86312069D01*
X138765175Y-86220545D01*
X138765174Y-86220544D01*
X138760753Y-86215634D01*
X138606252Y-86103382D01*
X138600224Y-86100698D01*
X138600222Y-86100697D01*
X138437819Y-86028391D01*
X138437818Y-86028391D01*
X138431788Y-86025706D01*
X138338387Y-86005853D01*
X138251444Y-85987372D01*
X138251439Y-85987372D01*
X138244987Y-85986000D01*
X138054013Y-85986000D01*
X138047561Y-85987372D01*
X138047556Y-85987372D01*
X137960612Y-86005853D01*
X137867212Y-86025706D01*
X137861182Y-86028391D01*
X137861181Y-86028391D01*
X137698778Y-86100697D01*
X137698776Y-86100698D01*
X137692748Y-86103382D01*
X137538247Y-86215634D01*
X137533826Y-86220544D01*
X137533825Y-86220545D01*
X137451417Y-86312069D01*
X137410460Y-86357556D01*
X137373775Y-86421097D01*
X137331339Y-86494598D01*
X137314973Y-86522944D01*
X137255958Y-86704572D01*
X137255268Y-86711133D01*
X137255268Y-86711135D01*
X137246511Y-86794457D01*
X137235996Y-86894500D01*
X114554000Y-86894500D01*
X114554000Y-85598000D01*
X148692496Y-85598000D01*
X148693186Y-85604565D01*
X148708354Y-85748876D01*
X148712458Y-85787928D01*
X148771473Y-85969556D01*
X148866960Y-86134944D01*
X148871378Y-86139851D01*
X148871379Y-86139852D01*
X148944035Y-86220545D01*
X148994747Y-86276866D01*
X149149248Y-86389118D01*
X149155276Y-86391802D01*
X149155278Y-86391803D01*
X149317681Y-86464109D01*
X149323712Y-86466794D01*
X149384016Y-86479612D01*
X149504056Y-86505128D01*
X149504061Y-86505128D01*
X149510513Y-86506500D01*
X149701487Y-86506500D01*
X149707939Y-86505128D01*
X149707944Y-86505128D01*
X149827984Y-86479612D01*
X149888288Y-86466794D01*
X149894319Y-86464109D01*
X150056722Y-86391803D01*
X150056724Y-86391802D01*
X150062752Y-86389118D01*
X150217253Y-86276866D01*
X150267965Y-86220545D01*
X150340621Y-86139852D01*
X150340622Y-86139851D01*
X150345040Y-86134944D01*
X150440527Y-85969556D01*
X150499542Y-85787928D01*
X150503647Y-85748876D01*
X150518814Y-85604565D01*
X150519504Y-85598000D01*
X152629496Y-85598000D01*
X152630186Y-85604565D01*
X152645354Y-85748876D01*
X152649458Y-85787928D01*
X152708473Y-85969556D01*
X152803960Y-86134944D01*
X152808378Y-86139851D01*
X152808379Y-86139852D01*
X152881035Y-86220545D01*
X152931747Y-86276866D01*
X153086248Y-86389118D01*
X153092276Y-86391802D01*
X153092278Y-86391803D01*
X153254681Y-86464109D01*
X153260712Y-86466794D01*
X153321016Y-86479612D01*
X153441056Y-86505128D01*
X153441061Y-86505128D01*
X153447513Y-86506500D01*
X153638487Y-86506500D01*
X153644939Y-86505128D01*
X153644944Y-86505128D01*
X153764984Y-86479612D01*
X153825288Y-86466794D01*
X153831319Y-86464109D01*
X153993722Y-86391803D01*
X153993724Y-86391802D01*
X153999752Y-86389118D01*
X154154253Y-86276866D01*
X154204965Y-86220545D01*
X154277621Y-86139852D01*
X154277622Y-86139851D01*
X154282040Y-86134944D01*
X154377527Y-85969556D01*
X154436542Y-85787928D01*
X154440647Y-85748876D01*
X154455814Y-85604565D01*
X154456504Y-85598000D01*
X154436542Y-85408072D01*
X154377527Y-85226444D01*
X154282040Y-85061056D01*
X154266506Y-85043803D01*
X154158675Y-84924045D01*
X154158674Y-84924044D01*
X154154253Y-84919134D01*
X154023565Y-84824183D01*
X154005094Y-84810763D01*
X154005093Y-84810762D01*
X153999752Y-84806882D01*
X153993724Y-84804198D01*
X153993722Y-84804197D01*
X153831319Y-84731891D01*
X153831318Y-84731891D01*
X153825288Y-84729206D01*
X153731888Y-84709353D01*
X153644944Y-84690872D01*
X153644939Y-84690872D01*
X153638487Y-84689500D01*
X153447513Y-84689500D01*
X153441061Y-84690872D01*
X153441056Y-84690872D01*
X153354113Y-84709353D01*
X153260712Y-84729206D01*
X153254682Y-84731891D01*
X153254681Y-84731891D01*
X153092278Y-84804197D01*
X153092276Y-84804198D01*
X153086248Y-84806882D01*
X153080907Y-84810762D01*
X153080906Y-84810763D01*
X153062435Y-84824183D01*
X152931747Y-84919134D01*
X152927326Y-84924044D01*
X152927325Y-84924045D01*
X152819495Y-85043803D01*
X152803960Y-85061056D01*
X152708473Y-85226444D01*
X152649458Y-85408072D01*
X152629496Y-85598000D01*
X150519504Y-85598000D01*
X150499542Y-85408072D01*
X150440527Y-85226444D01*
X150398124Y-85153000D01*
X150381386Y-85084005D01*
X150398124Y-85027000D01*
X150437223Y-84959279D01*
X150437224Y-84959278D01*
X150440527Y-84953556D01*
X150499542Y-84771928D01*
X150504177Y-84727834D01*
X150518814Y-84588565D01*
X150519504Y-84582000D01*
X150503882Y-84433365D01*
X150500232Y-84398635D01*
X150500232Y-84398633D01*
X150499542Y-84392072D01*
X150440527Y-84210444D01*
X150345040Y-84045056D01*
X150266855Y-83958222D01*
X150221675Y-83908045D01*
X150221674Y-83908044D01*
X150217253Y-83903134D01*
X150103054Y-83820163D01*
X150068094Y-83794763D01*
X150068093Y-83794762D01*
X150062752Y-83790882D01*
X150056724Y-83788198D01*
X150056722Y-83788197D01*
X149894319Y-83715891D01*
X149894318Y-83715891D01*
X149888288Y-83713206D01*
X149794888Y-83693353D01*
X149707944Y-83674872D01*
X149707939Y-83674872D01*
X149701487Y-83673500D01*
X149510513Y-83673500D01*
X149504061Y-83674872D01*
X149504056Y-83674872D01*
X149417113Y-83693353D01*
X149323712Y-83713206D01*
X149317682Y-83715891D01*
X149317681Y-83715891D01*
X149155278Y-83788197D01*
X149155276Y-83788198D01*
X149149248Y-83790882D01*
X149143907Y-83794762D01*
X149143906Y-83794763D01*
X149108946Y-83820163D01*
X148994747Y-83903134D01*
X148990326Y-83908044D01*
X148990325Y-83908045D01*
X148945146Y-83958222D01*
X148866960Y-84045056D01*
X148771473Y-84210444D01*
X148712458Y-84392072D01*
X148711768Y-84398633D01*
X148711768Y-84398635D01*
X148708118Y-84433365D01*
X148692496Y-84582000D01*
X148693186Y-84588565D01*
X148707824Y-84727834D01*
X148712458Y-84771928D01*
X148771473Y-84953556D01*
X148774776Y-84959278D01*
X148774777Y-84959279D01*
X148813876Y-85027000D01*
X148830614Y-85095995D01*
X148813876Y-85153000D01*
X148771473Y-85226444D01*
X148712458Y-85408072D01*
X148692496Y-85598000D01*
X114554000Y-85598000D01*
X114554000Y-84250000D01*
X129586496Y-84250000D01*
X129587186Y-84256565D01*
X129604788Y-84424035D01*
X129606458Y-84439928D01*
X129665473Y-84621556D01*
X129760960Y-84786944D01*
X129765378Y-84791851D01*
X129765379Y-84791852D01*
X129778912Y-84806882D01*
X129888747Y-84928866D01*
X130043248Y-85041118D01*
X130049276Y-85043802D01*
X130049278Y-85043803D01*
X130139574Y-85084005D01*
X130217712Y-85118794D01*
X130311014Y-85138626D01*
X130398056Y-85157128D01*
X130398061Y-85157128D01*
X130404513Y-85158500D01*
X130595487Y-85158500D01*
X130601939Y-85157128D01*
X130601944Y-85157128D01*
X130688986Y-85138626D01*
X130782288Y-85118794D01*
X130860426Y-85084005D01*
X130950722Y-85043803D01*
X130950724Y-85043802D01*
X130956752Y-85041118D01*
X131111253Y-84928866D01*
X131221088Y-84806882D01*
X131234621Y-84791852D01*
X131234622Y-84791851D01*
X131239040Y-84786944D01*
X131334527Y-84621556D01*
X131339127Y-84607400D01*
X134366896Y-84607400D01*
X134367586Y-84613965D01*
X134385767Y-84786944D01*
X134386858Y-84797328D01*
X134445873Y-84978956D01*
X134541360Y-85144344D01*
X134669147Y-85286266D01*
X134748611Y-85344000D01*
X134802166Y-85382910D01*
X134823648Y-85398518D01*
X134829676Y-85401202D01*
X134829678Y-85401203D01*
X134992081Y-85473509D01*
X134998112Y-85476194D01*
X135091513Y-85496047D01*
X135178456Y-85514528D01*
X135178461Y-85514528D01*
X135184913Y-85515900D01*
X135375887Y-85515900D01*
X135382339Y-85514528D01*
X135382344Y-85514528D01*
X135469287Y-85496047D01*
X135562688Y-85476194D01*
X135568719Y-85473509D01*
X135731122Y-85401203D01*
X135731124Y-85401202D01*
X135737152Y-85398518D01*
X135758635Y-85382910D01*
X135812189Y-85344000D01*
X135891653Y-85286266D01*
X136019440Y-85144344D01*
X136114927Y-84978956D01*
X136173942Y-84797328D01*
X136175034Y-84786944D01*
X136193214Y-84613965D01*
X136193904Y-84607400D01*
X136190544Y-84575435D01*
X136174632Y-84424035D01*
X136174632Y-84424033D01*
X136173942Y-84417472D01*
X136114927Y-84235844D01*
X136019440Y-84070456D01*
X136004438Y-84053794D01*
X135896075Y-83933445D01*
X135896074Y-83933444D01*
X135891653Y-83928534D01*
X135737152Y-83816282D01*
X135731124Y-83813598D01*
X135731122Y-83813597D01*
X135568719Y-83741291D01*
X135568718Y-83741291D01*
X135562688Y-83738606D01*
X135455823Y-83715891D01*
X135382344Y-83700272D01*
X135382339Y-83700272D01*
X135375887Y-83698900D01*
X135184913Y-83698900D01*
X135178461Y-83700272D01*
X135178456Y-83700272D01*
X135104977Y-83715891D01*
X134998112Y-83738606D01*
X134992082Y-83741291D01*
X134992081Y-83741291D01*
X134829678Y-83813597D01*
X134829676Y-83813598D01*
X134823648Y-83816282D01*
X134669147Y-83928534D01*
X134664726Y-83933444D01*
X134664725Y-83933445D01*
X134556363Y-84053794D01*
X134541360Y-84070456D01*
X134445873Y-84235844D01*
X134386858Y-84417472D01*
X134386168Y-84424033D01*
X134386168Y-84424035D01*
X134370256Y-84575435D01*
X134366896Y-84607400D01*
X131339127Y-84607400D01*
X131393542Y-84439928D01*
X131395213Y-84424035D01*
X131412814Y-84256565D01*
X131413504Y-84250000D01*
X131397713Y-84099759D01*
X131394232Y-84066635D01*
X131394232Y-84066633D01*
X131393542Y-84060072D01*
X131334527Y-83878444D01*
X131239040Y-83713056D01*
X131179298Y-83646705D01*
X131115675Y-83576045D01*
X131115674Y-83576044D01*
X131111253Y-83571134D01*
X130975658Y-83472618D01*
X130962094Y-83462763D01*
X130962093Y-83462762D01*
X130956752Y-83458882D01*
X130950724Y-83456198D01*
X130950722Y-83456197D01*
X130940412Y-83451607D01*
X130886316Y-83405627D01*
X130865667Y-83337700D01*
X130885019Y-83269392D01*
X130940412Y-83221393D01*
X130950722Y-83216803D01*
X130950724Y-83216802D01*
X130956752Y-83214118D01*
X131111253Y-83101866D01*
X131239040Y-82959944D01*
X131334527Y-82794556D01*
X131393542Y-82612928D01*
X131400156Y-82550000D01*
X146660496Y-82550000D01*
X146661186Y-82556565D01*
X146667844Y-82619908D01*
X146680458Y-82739928D01*
X146739473Y-82921556D01*
X146834960Y-83086944D01*
X146839378Y-83091851D01*
X146839379Y-83091852D01*
X146958325Y-83223955D01*
X146962747Y-83228866D01*
X147117248Y-83341118D01*
X147123276Y-83343802D01*
X147123278Y-83343803D01*
X147262138Y-83405627D01*
X147291712Y-83418794D01*
X147378009Y-83437137D01*
X147472056Y-83457128D01*
X147472061Y-83457128D01*
X147478513Y-83458500D01*
X147669487Y-83458500D01*
X147675939Y-83457128D01*
X147675944Y-83457128D01*
X147718256Y-83448134D01*
X160885500Y-83448134D01*
X160892255Y-83510316D01*
X160943385Y-83646705D01*
X161030739Y-83763261D01*
X161147295Y-83850615D01*
X161155704Y-83853767D01*
X161155705Y-83853768D01*
X161264960Y-83894726D01*
X161321725Y-83937367D01*
X161346425Y-84003929D01*
X161331218Y-84073278D01*
X161311825Y-84099759D01*
X161188590Y-84228717D01*
X161182104Y-84236727D01*
X161062098Y-84412649D01*
X161057000Y-84421623D01*
X160967338Y-84614783D01*
X160963775Y-84624470D01*
X160908389Y-84824183D01*
X160909912Y-84832607D01*
X160922292Y-84836000D01*
X166102344Y-84836000D01*
X166115875Y-84832027D01*
X166117180Y-84822947D01*
X166075214Y-84655875D01*
X166071894Y-84646124D01*
X165986972Y-84450814D01*
X165982105Y-84441739D01*
X165866426Y-84262926D01*
X165860136Y-84254757D01*
X165716806Y-84097240D01*
X165709273Y-84090215D01*
X165542139Y-83958222D01*
X165533556Y-83952520D01*
X165496602Y-83932120D01*
X165446631Y-83881687D01*
X165431859Y-83812245D01*
X165456975Y-83745839D01*
X165484327Y-83719232D01*
X165512831Y-83698900D01*
X165663860Y-83591173D01*
X165822096Y-83433489D01*
X165831670Y-83420166D01*
X165949435Y-83256277D01*
X165952453Y-83252077D01*
X165962006Y-83232749D01*
X166049136Y-83056453D01*
X166049137Y-83056451D01*
X166051430Y-83051811D01*
X166116370Y-82838069D01*
X166145529Y-82616590D01*
X166145611Y-82613240D01*
X166147074Y-82553365D01*
X166147074Y-82553361D01*
X166147156Y-82550000D01*
X166128852Y-82327361D01*
X166074431Y-82110702D01*
X165985354Y-81905840D01*
X165945906Y-81844862D01*
X165866822Y-81722617D01*
X165866820Y-81722614D01*
X165864014Y-81718277D01*
X165713670Y-81553051D01*
X165709619Y-81549852D01*
X165709615Y-81549848D01*
X165542414Y-81417800D01*
X165542410Y-81417798D01*
X165538359Y-81414598D01*
X165527313Y-81408500D01*
X165450521Y-81366109D01*
X165342789Y-81306638D01*
X165337920Y-81304914D01*
X165337916Y-81304912D01*
X165137087Y-81233795D01*
X165137083Y-81233794D01*
X165132212Y-81232069D01*
X165127119Y-81231162D01*
X165127116Y-81231161D01*
X164917373Y-81193800D01*
X164917367Y-81193799D01*
X164912284Y-81192894D01*
X164838452Y-81191992D01*
X164694081Y-81190228D01*
X164694079Y-81190228D01*
X164688911Y-81190165D01*
X164468091Y-81223955D01*
X164255756Y-81293357D01*
X164225443Y-81309137D01*
X164108208Y-81370166D01*
X164057607Y-81396507D01*
X164053474Y-81399610D01*
X164053471Y-81399612D01*
X163883100Y-81527530D01*
X163878965Y-81530635D01*
X163822537Y-81589684D01*
X163798283Y-81615064D01*
X163736759Y-81650494D01*
X163665846Y-81647037D01*
X163608060Y-81605791D01*
X163589207Y-81572243D01*
X163547767Y-81461703D01*
X163544615Y-81453295D01*
X163457261Y-81336739D01*
X163340705Y-81249385D01*
X163204316Y-81198255D01*
X163142134Y-81191500D01*
X161345866Y-81191500D01*
X161283684Y-81198255D01*
X161147295Y-81249385D01*
X161030739Y-81336739D01*
X160943385Y-81453295D01*
X160892255Y-81589684D01*
X160885500Y-81651866D01*
X160885500Y-83448134D01*
X147718256Y-83448134D01*
X147769991Y-83437137D01*
X147856288Y-83418794D01*
X147885862Y-83405627D01*
X148024722Y-83343803D01*
X148024724Y-83343802D01*
X148030752Y-83341118D01*
X148185253Y-83228866D01*
X148189675Y-83223955D01*
X148308621Y-83091852D01*
X148308622Y-83091851D01*
X148313040Y-83086944D01*
X148408527Y-82921556D01*
X148467542Y-82739928D01*
X148480157Y-82619908D01*
X148486814Y-82556565D01*
X148487504Y-82550000D01*
X148467542Y-82360072D01*
X148408527Y-82178444D01*
X148313040Y-82013056D01*
X148216503Y-81905840D01*
X148189675Y-81876045D01*
X148189674Y-81876044D01*
X148185253Y-81871134D01*
X148030752Y-81758882D01*
X148024724Y-81756198D01*
X148024722Y-81756197D01*
X147862319Y-81683891D01*
X147862318Y-81683891D01*
X147856288Y-81681206D01*
X147734331Y-81655283D01*
X147675944Y-81642872D01*
X147675939Y-81642872D01*
X147669487Y-81641500D01*
X147478513Y-81641500D01*
X147472061Y-81642872D01*
X147472056Y-81642872D01*
X147413669Y-81655283D01*
X147291712Y-81681206D01*
X147285682Y-81683891D01*
X147285681Y-81683891D01*
X147123278Y-81756197D01*
X147123276Y-81756198D01*
X147117248Y-81758882D01*
X146962747Y-81871134D01*
X146958326Y-81876044D01*
X146958325Y-81876045D01*
X146931498Y-81905840D01*
X146834960Y-82013056D01*
X146739473Y-82178444D01*
X146680458Y-82360072D01*
X146660496Y-82550000D01*
X131400156Y-82550000D01*
X131400509Y-82546646D01*
X131412814Y-82429565D01*
X131413504Y-82423000D01*
X131406230Y-82353794D01*
X131394232Y-82239635D01*
X131394232Y-82239633D01*
X131393542Y-82233072D01*
X131334527Y-82051444D01*
X131239040Y-81886056D01*
X131225639Y-81871172D01*
X131115675Y-81749045D01*
X131115674Y-81749044D01*
X131111253Y-81744134D01*
X130977611Y-81647037D01*
X130962094Y-81635763D01*
X130962093Y-81635762D01*
X130956752Y-81631882D01*
X130950724Y-81629198D01*
X130950722Y-81629197D01*
X130788319Y-81556891D01*
X130788318Y-81556891D01*
X130782288Y-81554206D01*
X130671396Y-81530635D01*
X130601944Y-81515872D01*
X130601939Y-81515872D01*
X130595487Y-81514500D01*
X130404513Y-81514500D01*
X130398061Y-81515872D01*
X130398056Y-81515872D01*
X130328604Y-81530635D01*
X130217712Y-81554206D01*
X130211682Y-81556891D01*
X130211681Y-81556891D01*
X130049278Y-81629197D01*
X130049276Y-81629198D01*
X130043248Y-81631882D01*
X130037907Y-81635762D01*
X130037906Y-81635763D01*
X130022389Y-81647037D01*
X129888747Y-81744134D01*
X129884326Y-81749044D01*
X129884325Y-81749045D01*
X129774362Y-81871172D01*
X129760960Y-81886056D01*
X129665473Y-82051444D01*
X129606458Y-82233072D01*
X129605768Y-82239633D01*
X129605768Y-82239635D01*
X129593770Y-82353794D01*
X129586496Y-82423000D01*
X129587186Y-82429565D01*
X129599492Y-82546646D01*
X129606458Y-82612928D01*
X129665473Y-82794556D01*
X129760960Y-82959944D01*
X129888747Y-83101866D01*
X130043248Y-83214118D01*
X130049276Y-83216802D01*
X130049278Y-83216803D01*
X130059588Y-83221393D01*
X130113684Y-83267373D01*
X130134333Y-83335300D01*
X130114981Y-83403608D01*
X130059588Y-83451607D01*
X130049278Y-83456197D01*
X130049276Y-83456198D01*
X130043248Y-83458882D01*
X130037907Y-83462762D01*
X130037906Y-83462763D01*
X130024342Y-83472618D01*
X129888747Y-83571134D01*
X129884326Y-83576044D01*
X129884325Y-83576045D01*
X129820703Y-83646705D01*
X129760960Y-83713056D01*
X129665473Y-83878444D01*
X129606458Y-84060072D01*
X129605768Y-84066633D01*
X129605768Y-84066635D01*
X129602287Y-84099759D01*
X129586496Y-84250000D01*
X114554000Y-84250000D01*
X114554000Y-80500000D01*
X124086496Y-80500000D01*
X124106458Y-80689928D01*
X124165473Y-80871556D01*
X124260960Y-81036944D01*
X124388747Y-81178866D01*
X124543248Y-81291118D01*
X124549276Y-81293802D01*
X124549278Y-81293803D01*
X124711681Y-81366109D01*
X124717712Y-81368794D01*
X124811113Y-81388647D01*
X124898056Y-81407128D01*
X124898061Y-81407128D01*
X124904513Y-81408500D01*
X125095487Y-81408500D01*
X125101939Y-81407128D01*
X125101944Y-81407128D01*
X125188887Y-81388647D01*
X125282288Y-81368794D01*
X125288319Y-81366109D01*
X125450722Y-81293803D01*
X125450724Y-81293802D01*
X125456752Y-81291118D01*
X125611253Y-81178866D01*
X125739040Y-81036944D01*
X125834527Y-80871556D01*
X125893542Y-80689928D01*
X125913504Y-80500000D01*
X125899432Y-80366109D01*
X125894232Y-80316635D01*
X125894232Y-80316633D01*
X125893542Y-80310072D01*
X125834527Y-80128444D01*
X125739040Y-79963056D01*
X125721299Y-79943352D01*
X125615675Y-79826045D01*
X125615674Y-79826044D01*
X125611253Y-79821134D01*
X125456752Y-79708882D01*
X125450724Y-79706198D01*
X125450722Y-79706197D01*
X125288319Y-79633891D01*
X125288318Y-79633891D01*
X125282288Y-79631206D01*
X125188888Y-79611353D01*
X125101944Y-79592872D01*
X125101939Y-79592872D01*
X125095487Y-79591500D01*
X124904513Y-79591500D01*
X124898061Y-79592872D01*
X124898056Y-79592872D01*
X124811112Y-79611353D01*
X124717712Y-79631206D01*
X124711682Y-79633891D01*
X124711681Y-79633891D01*
X124549278Y-79706197D01*
X124549276Y-79706198D01*
X124543248Y-79708882D01*
X124388747Y-79821134D01*
X124384326Y-79826044D01*
X124384325Y-79826045D01*
X124278702Y-79943352D01*
X124260960Y-79963056D01*
X124165473Y-80128444D01*
X124106458Y-80310072D01*
X124105768Y-80316633D01*
X124105768Y-80316635D01*
X124100568Y-80366109D01*
X124086496Y-80500000D01*
X114554000Y-80500000D01*
X114554000Y-79500000D01*
X129336496Y-79500000D01*
X129337186Y-79506565D01*
X129345416Y-79584865D01*
X129356458Y-79689928D01*
X129415473Y-79871556D01*
X129510960Y-80036944D01*
X129515378Y-80041851D01*
X129515379Y-80041852D01*
X129588194Y-80122721D01*
X129638747Y-80178866D01*
X129793248Y-80291118D01*
X129799276Y-80293802D01*
X129799278Y-80293803D01*
X129956805Y-80363938D01*
X129967712Y-80368794D01*
X130061113Y-80388647D01*
X130148056Y-80407128D01*
X130148061Y-80407128D01*
X130154513Y-80408500D01*
X130345487Y-80408500D01*
X130351939Y-80407128D01*
X130351944Y-80407128D01*
X130438887Y-80388647D01*
X130532288Y-80368794D01*
X130543195Y-80363938D01*
X130700722Y-80293803D01*
X130700724Y-80293802D01*
X130706752Y-80291118D01*
X130861253Y-80178866D01*
X130911806Y-80122721D01*
X130984621Y-80041852D01*
X130984622Y-80041851D01*
X130989040Y-80036944D01*
X131084527Y-79871556D01*
X131143542Y-79689928D01*
X131154585Y-79584865D01*
X131162814Y-79506565D01*
X131163504Y-79500000D01*
X131161665Y-79482500D01*
X131153152Y-79401500D01*
X138632996Y-79401500D01*
X138652958Y-79591428D01*
X138711973Y-79773056D01*
X138715276Y-79778778D01*
X138715277Y-79778779D01*
X138742566Y-79826045D01*
X138807460Y-79938444D01*
X138811878Y-79943351D01*
X138811879Y-79943352D01*
X138900569Y-80041852D01*
X138935247Y-80080366D01*
X139010071Y-80134729D01*
X139076165Y-80182749D01*
X139089748Y-80192618D01*
X139095776Y-80195302D01*
X139095778Y-80195303D01*
X139258181Y-80267609D01*
X139264212Y-80270294D01*
X139343922Y-80287237D01*
X139444556Y-80308628D01*
X139444561Y-80308628D01*
X139451013Y-80310000D01*
X139641987Y-80310000D01*
X139648439Y-80308628D01*
X139648444Y-80308628D01*
X139749078Y-80287237D01*
X139828788Y-80270294D01*
X139834819Y-80267609D01*
X139997222Y-80195303D01*
X139997224Y-80195302D01*
X140003252Y-80192618D01*
X140016836Y-80182749D01*
X140082929Y-80134729D01*
X140157753Y-80080366D01*
X140192431Y-80041852D01*
X140281121Y-79943352D01*
X140281122Y-79943351D01*
X140285540Y-79938444D01*
X140350434Y-79826045D01*
X140377723Y-79778779D01*
X140377724Y-79778778D01*
X140381027Y-79773056D01*
X140440042Y-79591428D01*
X140449441Y-79502000D01*
X143485496Y-79502000D01*
X143505458Y-79691928D01*
X143564473Y-79873556D01*
X143659960Y-80038944D01*
X143664378Y-80043851D01*
X143664379Y-80043852D01*
X143697256Y-80080366D01*
X143787747Y-80180866D01*
X143805332Y-80193642D01*
X143934154Y-80287237D01*
X143942248Y-80293118D01*
X143948276Y-80295802D01*
X143948278Y-80295803D01*
X144090289Y-80359030D01*
X144116712Y-80370794D01*
X144210112Y-80390647D01*
X144297056Y-80409128D01*
X144297061Y-80409128D01*
X144303513Y-80410500D01*
X144494487Y-80410500D01*
X144500939Y-80409128D01*
X144500944Y-80409128D01*
X144587888Y-80390647D01*
X144681288Y-80370794D01*
X144707711Y-80359030D01*
X144849722Y-80295803D01*
X144849724Y-80295802D01*
X144855752Y-80293118D01*
X144863847Y-80287237D01*
X144992668Y-80193642D01*
X145010253Y-80180866D01*
X145100744Y-80080366D01*
X145133621Y-80043852D01*
X145133622Y-80043851D01*
X145138040Y-80038944D01*
X145233527Y-79873556D01*
X145250251Y-79822086D01*
X145608896Y-79822086D01*
X145609586Y-79828651D01*
X145623197Y-79958148D01*
X145628858Y-80012014D01*
X145687873Y-80193642D01*
X145783360Y-80359030D01*
X145787778Y-80363937D01*
X145787779Y-80363938D01*
X145827903Y-80408500D01*
X145911147Y-80500952D01*
X146065648Y-80613204D01*
X146071676Y-80615888D01*
X146071678Y-80615889D01*
X146223233Y-80683365D01*
X146240112Y-80690880D01*
X146333513Y-80710733D01*
X146420456Y-80729214D01*
X146420461Y-80729214D01*
X146426913Y-80730586D01*
X146617887Y-80730586D01*
X146624339Y-80729214D01*
X146624344Y-80729214D01*
X146711287Y-80710733D01*
X146804688Y-80690880D01*
X146821567Y-80683365D01*
X146973122Y-80615889D01*
X146973124Y-80615888D01*
X146979152Y-80613204D01*
X147133653Y-80500952D01*
X147216897Y-80408500D01*
X147257021Y-80363938D01*
X147257022Y-80363937D01*
X147261440Y-80359030D01*
X147356927Y-80193642D01*
X147415942Y-80012014D01*
X147421604Y-79958148D01*
X147435214Y-79828651D01*
X147435904Y-79822086D01*
X147415942Y-79632158D01*
X147356927Y-79450530D01*
X147350911Y-79440109D01*
X147307614Y-79365118D01*
X147261440Y-79285142D01*
X147249368Y-79271734D01*
X147138075Y-79148131D01*
X147138074Y-79148130D01*
X147133653Y-79143220D01*
X147004709Y-79049536D01*
X146984494Y-79034849D01*
X146984493Y-79034848D01*
X146979152Y-79030968D01*
X146973124Y-79028284D01*
X146973122Y-79028283D01*
X146810719Y-78955977D01*
X146810718Y-78955977D01*
X146804688Y-78953292D01*
X146711288Y-78933439D01*
X146624344Y-78914958D01*
X146624339Y-78914958D01*
X146617887Y-78913586D01*
X146426913Y-78913586D01*
X146420461Y-78914958D01*
X146420456Y-78914958D01*
X146333512Y-78933439D01*
X146240112Y-78953292D01*
X146234082Y-78955977D01*
X146234081Y-78955977D01*
X146071678Y-79028283D01*
X146071676Y-79028284D01*
X146065648Y-79030968D01*
X146060307Y-79034848D01*
X146060306Y-79034849D01*
X146040091Y-79049536D01*
X145911147Y-79143220D01*
X145906726Y-79148130D01*
X145906725Y-79148131D01*
X145795433Y-79271734D01*
X145783360Y-79285142D01*
X145737186Y-79365118D01*
X145693890Y-79440109D01*
X145687873Y-79450530D01*
X145628858Y-79632158D01*
X145608896Y-79822086D01*
X145250251Y-79822086D01*
X145292542Y-79691928D01*
X145312504Y-79502000D01*
X145311604Y-79493435D01*
X145293232Y-79318635D01*
X145293232Y-79318633D01*
X145292542Y-79312072D01*
X145233527Y-79130444D01*
X145138040Y-78965056D01*
X145116529Y-78941165D01*
X145014675Y-78828045D01*
X145014674Y-78828044D01*
X145010253Y-78823134D01*
X144855752Y-78710882D01*
X144849724Y-78708198D01*
X144849722Y-78708197D01*
X144687319Y-78635891D01*
X144687318Y-78635891D01*
X144681288Y-78633206D01*
X144573910Y-78610382D01*
X144500944Y-78594872D01*
X144500939Y-78594872D01*
X144494487Y-78593500D01*
X144303513Y-78593500D01*
X144297061Y-78594872D01*
X144297056Y-78594872D01*
X144224090Y-78610382D01*
X144116712Y-78633206D01*
X144110682Y-78635891D01*
X144110681Y-78635891D01*
X143948278Y-78708197D01*
X143948276Y-78708198D01*
X143942248Y-78710882D01*
X143787747Y-78823134D01*
X143783326Y-78828044D01*
X143783325Y-78828045D01*
X143681472Y-78941165D01*
X143659960Y-78965056D01*
X143564473Y-79130444D01*
X143505458Y-79312072D01*
X143504768Y-79318633D01*
X143504768Y-79318635D01*
X143486396Y-79493435D01*
X143485496Y-79502000D01*
X140449441Y-79502000D01*
X140460004Y-79401500D01*
X140459314Y-79394935D01*
X140459314Y-79394930D01*
X140459155Y-79393417D01*
X140459314Y-79392548D01*
X140459314Y-79388330D01*
X140460085Y-79388330D01*
X140471929Y-79323579D01*
X140520432Y-79271734D01*
X140584465Y-79254250D01*
X140671237Y-79254250D01*
X140677689Y-79252878D01*
X140677694Y-79252878D01*
X140764638Y-79234397D01*
X140858038Y-79214544D01*
X140864069Y-79211859D01*
X141026472Y-79139553D01*
X141026474Y-79139552D01*
X141032502Y-79136868D01*
X141187003Y-79024616D01*
X141263848Y-78939271D01*
X141310371Y-78887602D01*
X141310372Y-78887601D01*
X141314790Y-78882694D01*
X141387149Y-78757365D01*
X141406973Y-78723029D01*
X141406974Y-78723028D01*
X141410277Y-78717306D01*
X141456840Y-78574000D01*
X157240496Y-78574000D01*
X157241186Y-78580565D01*
X157255291Y-78714763D01*
X157260458Y-78763928D01*
X157319473Y-78945556D01*
X157322776Y-78951278D01*
X157322777Y-78951279D01*
X157326743Y-78958148D01*
X157414960Y-79110944D01*
X157419378Y-79115851D01*
X157419379Y-79115852D01*
X157471695Y-79173955D01*
X157542747Y-79252866D01*
X157697248Y-79365118D01*
X157703276Y-79367802D01*
X157703278Y-79367803D01*
X157791604Y-79407128D01*
X157871712Y-79442794D01*
X157965112Y-79462647D01*
X158052056Y-79481128D01*
X158052061Y-79481128D01*
X158058513Y-79482500D01*
X158249487Y-79482500D01*
X158255939Y-79481128D01*
X158255944Y-79481128D01*
X158342888Y-79462647D01*
X158436288Y-79442794D01*
X158516396Y-79407128D01*
X158604722Y-79367803D01*
X158604724Y-79367802D01*
X158610752Y-79365118D01*
X158765253Y-79252866D01*
X158836305Y-79173955D01*
X158888621Y-79115852D01*
X158888622Y-79115851D01*
X158893040Y-79110944D01*
X158981257Y-78958148D01*
X158985223Y-78951279D01*
X158985224Y-78951278D01*
X158988527Y-78945556D01*
X159047542Y-78763928D01*
X159052710Y-78714763D01*
X159066814Y-78580565D01*
X159067504Y-78574000D01*
X159047542Y-78384072D01*
X158988527Y-78202444D01*
X158893040Y-78037056D01*
X158765253Y-77895134D01*
X158610752Y-77782882D01*
X158604724Y-77780198D01*
X158604722Y-77780197D01*
X158442319Y-77707891D01*
X158442318Y-77707891D01*
X158436288Y-77705206D01*
X158342887Y-77685353D01*
X158255944Y-77666872D01*
X158255939Y-77666872D01*
X158249487Y-77665500D01*
X158058513Y-77665500D01*
X158052061Y-77666872D01*
X158052056Y-77666872D01*
X157965113Y-77685353D01*
X157871712Y-77705206D01*
X157865682Y-77707891D01*
X157865681Y-77707891D01*
X157703278Y-77780197D01*
X157703276Y-77780198D01*
X157697248Y-77782882D01*
X157542747Y-77895134D01*
X157414960Y-78037056D01*
X157319473Y-78202444D01*
X157260458Y-78384072D01*
X157240496Y-78574000D01*
X141456840Y-78574000D01*
X141469292Y-78535678D01*
X141473634Y-78494372D01*
X141488564Y-78352315D01*
X141489254Y-78345750D01*
X141469292Y-78155822D01*
X141410277Y-77974194D01*
X141403847Y-77963056D01*
X141324743Y-77826045D01*
X141314790Y-77808806D01*
X141294943Y-77786763D01*
X141191425Y-77671795D01*
X141191424Y-77671794D01*
X141187003Y-77666884D01*
X141032502Y-77554632D01*
X141026474Y-77551948D01*
X141026472Y-77551947D01*
X141013564Y-77546200D01*
X145636731Y-77546200D01*
X145637421Y-77552765D01*
X145645948Y-77633891D01*
X145656693Y-77736128D01*
X145715708Y-77917756D01*
X145811195Y-78083144D01*
X145938982Y-78225066D01*
X146093483Y-78337318D01*
X146099511Y-78340002D01*
X146099513Y-78340003D01*
X146261916Y-78412309D01*
X146267947Y-78414994D01*
X146361347Y-78434847D01*
X146448291Y-78453328D01*
X146448296Y-78453328D01*
X146454748Y-78454700D01*
X146645722Y-78454700D01*
X146652174Y-78453328D01*
X146652179Y-78453328D01*
X146739123Y-78434847D01*
X146832523Y-78414994D01*
X146838554Y-78412309D01*
X147000957Y-78340003D01*
X147000959Y-78340002D01*
X147006987Y-78337318D01*
X147161488Y-78225066D01*
X147289275Y-78083144D01*
X147384762Y-77917756D01*
X147443777Y-77736128D01*
X147454523Y-77633891D01*
X147463049Y-77552765D01*
X147463739Y-77546200D01*
X147463049Y-77539635D01*
X147444467Y-77362835D01*
X147444467Y-77362833D01*
X147443777Y-77356272D01*
X147384762Y-77174644D01*
X147289275Y-77009256D01*
X147161488Y-76867334D01*
X147006987Y-76755082D01*
X147000959Y-76752398D01*
X147000957Y-76752397D01*
X146838554Y-76680091D01*
X146838553Y-76680091D01*
X146832523Y-76677406D01*
X146739123Y-76657553D01*
X146652179Y-76639072D01*
X146652174Y-76639072D01*
X146645722Y-76637700D01*
X146454748Y-76637700D01*
X146448296Y-76639072D01*
X146448291Y-76639072D01*
X146361347Y-76657553D01*
X146267947Y-76677406D01*
X146261917Y-76680091D01*
X146261916Y-76680091D01*
X146099513Y-76752397D01*
X146099511Y-76752398D01*
X146093483Y-76755082D01*
X145938982Y-76867334D01*
X145811195Y-77009256D01*
X145715708Y-77174644D01*
X145656693Y-77356272D01*
X145656003Y-77362833D01*
X145656003Y-77362835D01*
X145637421Y-77539635D01*
X145636731Y-77546200D01*
X141013564Y-77546200D01*
X140864069Y-77479641D01*
X140864068Y-77479641D01*
X140858038Y-77476956D01*
X140751314Y-77454271D01*
X140677694Y-77438622D01*
X140677689Y-77438622D01*
X140671237Y-77437250D01*
X140480263Y-77437250D01*
X140473811Y-77438622D01*
X140473806Y-77438622D01*
X140400186Y-77454271D01*
X140293462Y-77476956D01*
X140287432Y-77479641D01*
X140287431Y-77479641D01*
X140125028Y-77551947D01*
X140125026Y-77551948D01*
X140118998Y-77554632D01*
X139964497Y-77666884D01*
X139960076Y-77671794D01*
X139960075Y-77671795D01*
X139856558Y-77786763D01*
X139836710Y-77808806D01*
X139826757Y-77826045D01*
X139747654Y-77963056D01*
X139741223Y-77974194D01*
X139682208Y-78155822D01*
X139662246Y-78345750D01*
X139662936Y-78352315D01*
X139662936Y-78352320D01*
X139663095Y-78353833D01*
X139662936Y-78354702D01*
X139662936Y-78358920D01*
X139662165Y-78358920D01*
X139650321Y-78423671D01*
X139601818Y-78475516D01*
X139537785Y-78493000D01*
X139451013Y-78493000D01*
X139444561Y-78494372D01*
X139444556Y-78494372D01*
X139357612Y-78512853D01*
X139264212Y-78532706D01*
X139258182Y-78535391D01*
X139258181Y-78535391D01*
X139095778Y-78607697D01*
X139095776Y-78607698D01*
X139089748Y-78610382D01*
X139084407Y-78614262D01*
X139084406Y-78614263D01*
X139057440Y-78633855D01*
X138935247Y-78722634D01*
X138930826Y-78727544D01*
X138930825Y-78727545D01*
X138840335Y-78828045D01*
X138807460Y-78864556D01*
X138778360Y-78914958D01*
X138717885Y-79019705D01*
X138711973Y-79029944D01*
X138652958Y-79211572D01*
X138652268Y-79218133D01*
X138652268Y-79218135D01*
X138641705Y-79318635D01*
X138632996Y-79401500D01*
X131153152Y-79401500D01*
X131144232Y-79316635D01*
X131144232Y-79316633D01*
X131143542Y-79310072D01*
X131084527Y-79128444D01*
X130989040Y-78963056D01*
X130980249Y-78953292D01*
X130865675Y-78826045D01*
X130865674Y-78826044D01*
X130861253Y-78821134D01*
X130725680Y-78722634D01*
X130712094Y-78712763D01*
X130712093Y-78712762D01*
X130706752Y-78708882D01*
X130700724Y-78706198D01*
X130700722Y-78706197D01*
X130538319Y-78633891D01*
X130538318Y-78633891D01*
X130532288Y-78631206D01*
X130434319Y-78610382D01*
X130351944Y-78592872D01*
X130351939Y-78592872D01*
X130345487Y-78591500D01*
X130154513Y-78591500D01*
X130148061Y-78592872D01*
X130148056Y-78592872D01*
X130065681Y-78610382D01*
X129967712Y-78631206D01*
X129961682Y-78633891D01*
X129961681Y-78633891D01*
X129799278Y-78706197D01*
X129799276Y-78706198D01*
X129793248Y-78708882D01*
X129787907Y-78712762D01*
X129787906Y-78712763D01*
X129774320Y-78722634D01*
X129638747Y-78821134D01*
X129634326Y-78826044D01*
X129634325Y-78826045D01*
X129519752Y-78953292D01*
X129510960Y-78963056D01*
X129415473Y-79128444D01*
X129356458Y-79310072D01*
X129355768Y-79316633D01*
X129355768Y-79316635D01*
X129338335Y-79482500D01*
X129336496Y-79500000D01*
X114554000Y-79500000D01*
X114554000Y-78262299D01*
X116348795Y-78262299D01*
X116349485Y-78268864D01*
X116365756Y-78423671D01*
X116368757Y-78452227D01*
X116427772Y-78633855D01*
X116523259Y-78799243D01*
X116527677Y-78804150D01*
X116527678Y-78804151D01*
X116602818Y-78887602D01*
X116651046Y-78941165D01*
X116805547Y-79053417D01*
X116811575Y-79056101D01*
X116811577Y-79056102D01*
X116921912Y-79105226D01*
X116980011Y-79131093D01*
X117060168Y-79148131D01*
X117160355Y-79169427D01*
X117160360Y-79169427D01*
X117166812Y-79170799D01*
X117357786Y-79170799D01*
X117364238Y-79169427D01*
X117364243Y-79169427D01*
X117464430Y-79148131D01*
X117544587Y-79131093D01*
X117602686Y-79105226D01*
X117713021Y-79056102D01*
X117713023Y-79056101D01*
X117719051Y-79053417D01*
X117873552Y-78941165D01*
X117921780Y-78887602D01*
X117996920Y-78804151D01*
X117996921Y-78804150D01*
X118001339Y-78799243D01*
X118096826Y-78633855D01*
X118140318Y-78500000D01*
X120086496Y-78500000D01*
X120087186Y-78506565D01*
X120100779Y-78635891D01*
X120106458Y-78689928D01*
X120165473Y-78871556D01*
X120168776Y-78877278D01*
X120168777Y-78877279D01*
X120174737Y-78887602D01*
X120260960Y-79036944D01*
X120388747Y-79178866D01*
X120439742Y-79215916D01*
X120528268Y-79280234D01*
X120543248Y-79291118D01*
X120549276Y-79293802D01*
X120549278Y-79293803D01*
X120711681Y-79366109D01*
X120717712Y-79368794D01*
X120809621Y-79388330D01*
X120898056Y-79407128D01*
X120898061Y-79407128D01*
X120904513Y-79408500D01*
X121095487Y-79408500D01*
X121101939Y-79407128D01*
X121101944Y-79407128D01*
X121190379Y-79388330D01*
X121282288Y-79368794D01*
X121288319Y-79366109D01*
X121450722Y-79293803D01*
X121450724Y-79293802D01*
X121456752Y-79291118D01*
X121471733Y-79280234D01*
X121560258Y-79215916D01*
X121611253Y-79178866D01*
X121739040Y-79036944D01*
X121825263Y-78887602D01*
X121831223Y-78877279D01*
X121831224Y-78877278D01*
X121834527Y-78871556D01*
X121893542Y-78689928D01*
X121899222Y-78635891D01*
X121912814Y-78506565D01*
X121913504Y-78500000D01*
X121904570Y-78414994D01*
X121894232Y-78316635D01*
X121894232Y-78316633D01*
X121893542Y-78310072D01*
X121834527Y-78128444D01*
X121739040Y-77963056D01*
X121731885Y-77955109D01*
X121615675Y-77826045D01*
X121615674Y-77826044D01*
X121611253Y-77821134D01*
X121456752Y-77708882D01*
X121450724Y-77706198D01*
X121450722Y-77706197D01*
X121288319Y-77633891D01*
X121288318Y-77633891D01*
X121282288Y-77631206D01*
X121188888Y-77611353D01*
X121101944Y-77592872D01*
X121101939Y-77592872D01*
X121095487Y-77591500D01*
X120904513Y-77591500D01*
X120898061Y-77592872D01*
X120898056Y-77592872D01*
X120811112Y-77611353D01*
X120717712Y-77631206D01*
X120711682Y-77633891D01*
X120711681Y-77633891D01*
X120549278Y-77706197D01*
X120549276Y-77706198D01*
X120543248Y-77708882D01*
X120388747Y-77821134D01*
X120384326Y-77826044D01*
X120384325Y-77826045D01*
X120268116Y-77955109D01*
X120260960Y-77963056D01*
X120165473Y-78128444D01*
X120106458Y-78310072D01*
X120105768Y-78316633D01*
X120105768Y-78316635D01*
X120095430Y-78414994D01*
X120086496Y-78500000D01*
X118140318Y-78500000D01*
X118155841Y-78452227D01*
X118158843Y-78423671D01*
X118175113Y-78268864D01*
X118175803Y-78262299D01*
X118162395Y-78134729D01*
X118156531Y-78078934D01*
X118156531Y-78078932D01*
X118155841Y-78072371D01*
X118096826Y-77890743D01*
X118001339Y-77725355D01*
X117985615Y-77707891D01*
X117877974Y-77588344D01*
X117877973Y-77588343D01*
X117873552Y-77583433D01*
X117719051Y-77471181D01*
X117713023Y-77468497D01*
X117713021Y-77468496D01*
X117550618Y-77396190D01*
X117550617Y-77396190D01*
X117544587Y-77393505D01*
X117451186Y-77373652D01*
X117364243Y-77355171D01*
X117364238Y-77355171D01*
X117357786Y-77353799D01*
X117166812Y-77353799D01*
X117160360Y-77355171D01*
X117160355Y-77355171D01*
X117073412Y-77373652D01*
X116980011Y-77393505D01*
X116973981Y-77396190D01*
X116973980Y-77396190D01*
X116811577Y-77468496D01*
X116811575Y-77468497D01*
X116805547Y-77471181D01*
X116651046Y-77583433D01*
X116646625Y-77588343D01*
X116646624Y-77588344D01*
X116538984Y-77707891D01*
X116523259Y-77725355D01*
X116427772Y-77890743D01*
X116368757Y-78072371D01*
X116368067Y-78078932D01*
X116368067Y-78078934D01*
X116362203Y-78134729D01*
X116348795Y-78262299D01*
X114554000Y-78262299D01*
X114554000Y-77089000D01*
X134341496Y-77089000D01*
X134361458Y-77278928D01*
X134420473Y-77460556D01*
X134423776Y-77466278D01*
X134423777Y-77466279D01*
X134431492Y-77479641D01*
X134515960Y-77625944D01*
X134520378Y-77630851D01*
X134520379Y-77630852D01*
X134594132Y-77712763D01*
X134643747Y-77767866D01*
X134798248Y-77880118D01*
X134804276Y-77882802D01*
X134804278Y-77882803D01*
X134966681Y-77955109D01*
X134972712Y-77957794D01*
X135049868Y-77974194D01*
X135153056Y-77996128D01*
X135153061Y-77996128D01*
X135159513Y-77997500D01*
X135350487Y-77997500D01*
X135356939Y-77996128D01*
X135356944Y-77996128D01*
X135460132Y-77974194D01*
X135537288Y-77957794D01*
X135543319Y-77955109D01*
X135705722Y-77882803D01*
X135705724Y-77882802D01*
X135711752Y-77880118D01*
X135866253Y-77767866D01*
X135915868Y-77712763D01*
X135989621Y-77630852D01*
X135989622Y-77630851D01*
X135994040Y-77625944D01*
X136078508Y-77479641D01*
X136086223Y-77466279D01*
X136086224Y-77466278D01*
X136089527Y-77460556D01*
X136148542Y-77278928D01*
X136168504Y-77089000D01*
X136148542Y-76899072D01*
X136089527Y-76717444D01*
X135994040Y-76552056D01*
X135948744Y-76501749D01*
X135870675Y-76415045D01*
X135870674Y-76415044D01*
X135866253Y-76410134D01*
X135711752Y-76297882D01*
X135705724Y-76295198D01*
X135705722Y-76295197D01*
X135543319Y-76222891D01*
X135543318Y-76222891D01*
X135537288Y-76220206D01*
X135424721Y-76196279D01*
X135356944Y-76181872D01*
X135356939Y-76181872D01*
X135350487Y-76180500D01*
X135159513Y-76180500D01*
X135153061Y-76181872D01*
X135153056Y-76181872D01*
X135085279Y-76196279D01*
X134972712Y-76220206D01*
X134966682Y-76222891D01*
X134966681Y-76222891D01*
X134804278Y-76295197D01*
X134804276Y-76295198D01*
X134798248Y-76297882D01*
X134643747Y-76410134D01*
X134639326Y-76415044D01*
X134639325Y-76415045D01*
X134561257Y-76501749D01*
X134515960Y-76552056D01*
X134420473Y-76717444D01*
X134361458Y-76899072D01*
X134341496Y-77089000D01*
X114554000Y-77089000D01*
X114554000Y-75500000D01*
X118086496Y-75500000D01*
X118087186Y-75506565D01*
X118100752Y-75635635D01*
X118106458Y-75689928D01*
X118165473Y-75871556D01*
X118260960Y-76036944D01*
X118388747Y-76178866D01*
X118543248Y-76291118D01*
X118549276Y-76293802D01*
X118549278Y-76293803D01*
X118558440Y-76297882D01*
X118717712Y-76368794D01*
X118811113Y-76388647D01*
X118898056Y-76407128D01*
X118898061Y-76407128D01*
X118904513Y-76408500D01*
X119095487Y-76408500D01*
X119101939Y-76407128D01*
X119101944Y-76407128D01*
X119188887Y-76388647D01*
X119282288Y-76368794D01*
X119441560Y-76297882D01*
X119450722Y-76293803D01*
X119450724Y-76293802D01*
X119456752Y-76291118D01*
X119611253Y-76178866D01*
X119739040Y-76036944D01*
X119834527Y-75871556D01*
X119851604Y-75819000D01*
X149620196Y-75819000D01*
X149620886Y-75825565D01*
X149634610Y-75956138D01*
X149640158Y-76008928D01*
X149699173Y-76190556D01*
X149794660Y-76355944D01*
X149799078Y-76360851D01*
X149799079Y-76360852D01*
X149843453Y-76410134D01*
X149922447Y-76497866D01*
X150076948Y-76610118D01*
X150082976Y-76612802D01*
X150082978Y-76612803D01*
X150245381Y-76685109D01*
X150251412Y-76687794D01*
X150344813Y-76707647D01*
X150431756Y-76726128D01*
X150431761Y-76726128D01*
X150438213Y-76727500D01*
X150629187Y-76727500D01*
X150635639Y-76726128D01*
X150635644Y-76726128D01*
X150722587Y-76707647D01*
X150815988Y-76687794D01*
X150822019Y-76685109D01*
X150984422Y-76612803D01*
X150984424Y-76612802D01*
X150990452Y-76610118D01*
X151144953Y-76497866D01*
X151223947Y-76410134D01*
X151268321Y-76360852D01*
X151268322Y-76360851D01*
X151272740Y-76355944D01*
X151368227Y-76190556D01*
X151427242Y-76008928D01*
X151432791Y-75956138D01*
X151446514Y-75825565D01*
X151447204Y-75819000D01*
X151440996Y-75759932D01*
X159268937Y-75759932D01*
X159269627Y-75766497D01*
X159281271Y-75877279D01*
X159288899Y-75949860D01*
X159347914Y-76131488D01*
X159443401Y-76296876D01*
X159447819Y-76301783D01*
X159447820Y-76301784D01*
X159545379Y-76410134D01*
X159571188Y-76438798D01*
X159725689Y-76551050D01*
X159731717Y-76553734D01*
X159731719Y-76553735D01*
X159864389Y-76612803D01*
X159900153Y-76628726D01*
X159993554Y-76648579D01*
X160080497Y-76667060D01*
X160080502Y-76667060D01*
X160086954Y-76668432D01*
X160277928Y-76668432D01*
X160284380Y-76667060D01*
X160284385Y-76667060D01*
X160371328Y-76648579D01*
X160464729Y-76628726D01*
X160500493Y-76612803D01*
X160633163Y-76553735D01*
X160633165Y-76553734D01*
X160639193Y-76551050D01*
X160793694Y-76438798D01*
X160819503Y-76410134D01*
X160917062Y-76301784D01*
X160917063Y-76301783D01*
X160921481Y-76296876D01*
X161016968Y-76131488D01*
X161075983Y-75949860D01*
X161083612Y-75877279D01*
X161095255Y-75766497D01*
X161095945Y-75759932D01*
X161082191Y-75629072D01*
X161076673Y-75576567D01*
X161076673Y-75576565D01*
X161075983Y-75570004D01*
X161016968Y-75388376D01*
X160921481Y-75222988D01*
X160793694Y-75081066D01*
X160639193Y-74968814D01*
X160633165Y-74966130D01*
X160633163Y-74966129D01*
X160470760Y-74893823D01*
X160470759Y-74893823D01*
X160464729Y-74891138D01*
X160371329Y-74871285D01*
X160284385Y-74852804D01*
X160284380Y-74852804D01*
X160277928Y-74851432D01*
X160086954Y-74851432D01*
X160080502Y-74852804D01*
X160080497Y-74852804D01*
X159993553Y-74871285D01*
X159900153Y-74891138D01*
X159894123Y-74893823D01*
X159894122Y-74893823D01*
X159731719Y-74966129D01*
X159731717Y-74966130D01*
X159725689Y-74968814D01*
X159571188Y-75081066D01*
X159443401Y-75222988D01*
X159347914Y-75388376D01*
X159288899Y-75570004D01*
X159288209Y-75576565D01*
X159288209Y-75576567D01*
X159282691Y-75629072D01*
X159268937Y-75759932D01*
X151440996Y-75759932D01*
X151433638Y-75689928D01*
X151427932Y-75635635D01*
X151427932Y-75635633D01*
X151427242Y-75629072D01*
X151368227Y-75447444D01*
X151272740Y-75282056D01*
X151224704Y-75228706D01*
X151149375Y-75145045D01*
X151149374Y-75145044D01*
X151144953Y-75140134D01*
X150990452Y-75027882D01*
X150984424Y-75025198D01*
X150984422Y-75025197D01*
X150822019Y-74952891D01*
X150822018Y-74952891D01*
X150815988Y-74950206D01*
X150722588Y-74930353D01*
X150635644Y-74911872D01*
X150635639Y-74911872D01*
X150629187Y-74910500D01*
X150438213Y-74910500D01*
X150431761Y-74911872D01*
X150431756Y-74911872D01*
X150344812Y-74930353D01*
X150251412Y-74950206D01*
X150245382Y-74952891D01*
X150245381Y-74952891D01*
X150082978Y-75025197D01*
X150082976Y-75025198D01*
X150076948Y-75027882D01*
X149922447Y-75140134D01*
X149918026Y-75145044D01*
X149918025Y-75145045D01*
X149842697Y-75228706D01*
X149794660Y-75282056D01*
X149699173Y-75447444D01*
X149640158Y-75629072D01*
X149639468Y-75635633D01*
X149639468Y-75635635D01*
X149633762Y-75689928D01*
X149620196Y-75819000D01*
X119851604Y-75819000D01*
X119893542Y-75689928D01*
X119899249Y-75635635D01*
X119912814Y-75506565D01*
X119913504Y-75500000D01*
X119901772Y-75388376D01*
X119894232Y-75316635D01*
X119894232Y-75316633D01*
X119893542Y-75310072D01*
X119834527Y-75128444D01*
X119739040Y-74963056D01*
X119729888Y-74952891D01*
X119615675Y-74826045D01*
X119615674Y-74826044D01*
X119611253Y-74821134D01*
X119456752Y-74708882D01*
X119450724Y-74706198D01*
X119450722Y-74706197D01*
X119288319Y-74633891D01*
X119288318Y-74633891D01*
X119282288Y-74631206D01*
X119188887Y-74611353D01*
X119101944Y-74592872D01*
X119101939Y-74592872D01*
X119095487Y-74591500D01*
X118904513Y-74591500D01*
X118898061Y-74592872D01*
X118898056Y-74592872D01*
X118811113Y-74611353D01*
X118717712Y-74631206D01*
X118711682Y-74633891D01*
X118711681Y-74633891D01*
X118549278Y-74706197D01*
X118549276Y-74706198D01*
X118543248Y-74708882D01*
X118388747Y-74821134D01*
X118384326Y-74826044D01*
X118384325Y-74826045D01*
X118270113Y-74952891D01*
X118260960Y-74963056D01*
X118165473Y-75128444D01*
X118106458Y-75310072D01*
X118105768Y-75316633D01*
X118105768Y-75316635D01*
X118098228Y-75388376D01*
X118086496Y-75500000D01*
X114554000Y-75500000D01*
X114554000Y-72356695D01*
X160881251Y-72356695D01*
X160881548Y-72361848D01*
X160881548Y-72361851D01*
X160887011Y-72456590D01*
X160894110Y-72579715D01*
X160895247Y-72584761D01*
X160895248Y-72584767D01*
X160915119Y-72672939D01*
X160943222Y-72797639D01*
X161027266Y-73004616D01*
X161078019Y-73087438D01*
X161141291Y-73190688D01*
X161143987Y-73195088D01*
X161290250Y-73363938D01*
X161462126Y-73506632D01*
X161655000Y-73619338D01*
X161863692Y-73699030D01*
X161868760Y-73700061D01*
X161868763Y-73700062D01*
X161976017Y-73721883D01*
X162082597Y-73743567D01*
X162087772Y-73743757D01*
X162087774Y-73743757D01*
X162300673Y-73751564D01*
X162300677Y-73751564D01*
X162305837Y-73751753D01*
X162310957Y-73751097D01*
X162310959Y-73751097D01*
X162522288Y-73724025D01*
X162522289Y-73724025D01*
X162527416Y-73723368D01*
X162532366Y-73721883D01*
X162736429Y-73660661D01*
X162736434Y-73660659D01*
X162741384Y-73659174D01*
X162941994Y-73560896D01*
X163123860Y-73431173D01*
X163282096Y-73273489D01*
X163341594Y-73190689D01*
X163412453Y-73092077D01*
X163413776Y-73093028D01*
X163460645Y-73049857D01*
X163530580Y-73037625D01*
X163596026Y-73065144D01*
X163623875Y-73096994D01*
X163683987Y-73195088D01*
X163830250Y-73363938D01*
X164002126Y-73506632D01*
X164195000Y-73619338D01*
X164403692Y-73699030D01*
X164408760Y-73700061D01*
X164408763Y-73700062D01*
X164516017Y-73721883D01*
X164622597Y-73743567D01*
X164627772Y-73743757D01*
X164627774Y-73743757D01*
X164840673Y-73751564D01*
X164840677Y-73751564D01*
X164845837Y-73751753D01*
X164850957Y-73751097D01*
X164850959Y-73751097D01*
X165062288Y-73724025D01*
X165062289Y-73724025D01*
X165067416Y-73723368D01*
X165072366Y-73721883D01*
X165276429Y-73660661D01*
X165276434Y-73660659D01*
X165281384Y-73659174D01*
X165481994Y-73560896D01*
X165663860Y-73431173D01*
X165822096Y-73273489D01*
X165881594Y-73190689D01*
X165949435Y-73096277D01*
X165952453Y-73092077D01*
X165973320Y-73049857D01*
X166049136Y-72896453D01*
X166049137Y-72896451D01*
X166051430Y-72891811D01*
X166116370Y-72678069D01*
X166145529Y-72456590D01*
X166147156Y-72390000D01*
X166128852Y-72167361D01*
X166074431Y-71950702D01*
X165985354Y-71745840D01*
X165864014Y-71558277D01*
X165713670Y-71393051D01*
X165709619Y-71389852D01*
X165709615Y-71389848D01*
X165542414Y-71257800D01*
X165542410Y-71257798D01*
X165538359Y-71254598D01*
X165497053Y-71231796D01*
X165447084Y-71181364D01*
X165432312Y-71111921D01*
X165457428Y-71045516D01*
X165484780Y-71018909D01*
X165528603Y-70987650D01*
X165663860Y-70891173D01*
X165822096Y-70733489D01*
X165881594Y-70650689D01*
X165949435Y-70556277D01*
X165952453Y-70552077D01*
X165973320Y-70509857D01*
X166049136Y-70356453D01*
X166049137Y-70356451D01*
X166051430Y-70351811D01*
X166116370Y-70138069D01*
X166145529Y-69916590D01*
X166147156Y-69850000D01*
X166128852Y-69627361D01*
X166074431Y-69410702D01*
X165985354Y-69205840D01*
X165864014Y-69018277D01*
X165713670Y-68853051D01*
X165709619Y-68849852D01*
X165709615Y-68849848D01*
X165542414Y-68717800D01*
X165542410Y-68717798D01*
X165538359Y-68714598D01*
X165497053Y-68691796D01*
X165447084Y-68641364D01*
X165432312Y-68571921D01*
X165457428Y-68505516D01*
X165484780Y-68478909D01*
X165528603Y-68447650D01*
X165663860Y-68351173D01*
X165822096Y-68193489D01*
X165881594Y-68110689D01*
X165949435Y-68016277D01*
X165952453Y-68012077D01*
X165969887Y-67976803D01*
X166049136Y-67816453D01*
X166049137Y-67816451D01*
X166051430Y-67811811D01*
X166116370Y-67598069D01*
X166145529Y-67376590D01*
X166145611Y-67373240D01*
X166147074Y-67313365D01*
X166147074Y-67313361D01*
X166147156Y-67310000D01*
X166128852Y-67087361D01*
X166074431Y-66870702D01*
X165985354Y-66665840D01*
X165864014Y-66478277D01*
X165713670Y-66313051D01*
X165709619Y-66309852D01*
X165709615Y-66309848D01*
X165542414Y-66177800D01*
X165542410Y-66177798D01*
X165538359Y-66174598D01*
X165497053Y-66151796D01*
X165447084Y-66101364D01*
X165432312Y-66031921D01*
X165457428Y-65965516D01*
X165484780Y-65938909D01*
X165528603Y-65907650D01*
X165663860Y-65811173D01*
X165822096Y-65653489D01*
X165881594Y-65570689D01*
X165949435Y-65476277D01*
X165952453Y-65472077D01*
X165959052Y-65458726D01*
X166049136Y-65276453D01*
X166049137Y-65276451D01*
X166051430Y-65271811D01*
X166116370Y-65058069D01*
X166145529Y-64836590D01*
X166147156Y-64770000D01*
X166128852Y-64547361D01*
X166074431Y-64330702D01*
X165985354Y-64125840D01*
X165864014Y-63938277D01*
X165713670Y-63773051D01*
X165709619Y-63769852D01*
X165709615Y-63769848D01*
X165542414Y-63637800D01*
X165542410Y-63637798D01*
X165538359Y-63634598D01*
X165496569Y-63611529D01*
X165446598Y-63561097D01*
X165431826Y-63491654D01*
X165456942Y-63425248D01*
X165484294Y-63398641D01*
X165659328Y-63273792D01*
X165667200Y-63267139D01*
X165818052Y-63116812D01*
X165824730Y-63108965D01*
X165949003Y-62936020D01*
X165954313Y-62927183D01*
X166048670Y-62736267D01*
X166052469Y-62726672D01*
X166114377Y-62522910D01*
X166116555Y-62512837D01*
X166117986Y-62501962D01*
X166115775Y-62487778D01*
X166102617Y-62484000D01*
X160927225Y-62484000D01*
X160913694Y-62487973D01*
X160912257Y-62497966D01*
X160942565Y-62632446D01*
X160945645Y-62642275D01*
X161025770Y-62839603D01*
X161030413Y-62848794D01*
X161141694Y-63030388D01*
X161147777Y-63038699D01*
X161287213Y-63199667D01*
X161294580Y-63206883D01*
X161458434Y-63342916D01*
X161466881Y-63348831D01*
X161535969Y-63389203D01*
X161584693Y-63440842D01*
X161597764Y-63510625D01*
X161571033Y-63576396D01*
X161530584Y-63609752D01*
X161517607Y-63616507D01*
X161513474Y-63619610D01*
X161513471Y-63619612D01*
X161343100Y-63747530D01*
X161338965Y-63750635D01*
X161184629Y-63912138D01*
X161058743Y-64096680D01*
X161043003Y-64130590D01*
X160987575Y-64250000D01*
X160964688Y-64299305D01*
X160904989Y-64514570D01*
X160881251Y-64736695D01*
X160881548Y-64741848D01*
X160881548Y-64741851D01*
X160891491Y-64914285D01*
X160894110Y-64959715D01*
X160895247Y-64964761D01*
X160895248Y-64964767D01*
X160912455Y-65041118D01*
X160943222Y-65177639D01*
X161027266Y-65384616D01*
X161067584Y-65450409D01*
X161141291Y-65570688D01*
X161143987Y-65575088D01*
X161290250Y-65743938D01*
X161462126Y-65886632D01*
X161532595Y-65927811D01*
X161535445Y-65929476D01*
X161584169Y-65981114D01*
X161597240Y-66050897D01*
X161570509Y-66116669D01*
X161530055Y-66150027D01*
X161517607Y-66156507D01*
X161513474Y-66159610D01*
X161513471Y-66159612D01*
X161343100Y-66287530D01*
X161338965Y-66290635D01*
X161301150Y-66330206D01*
X161191141Y-66445324D01*
X161184629Y-66452138D01*
X161058743Y-66636680D01*
X161032081Y-66694118D01*
X160977621Y-66811444D01*
X160964688Y-66839305D01*
X160904989Y-67054570D01*
X160881251Y-67276695D01*
X160881548Y-67281848D01*
X160881548Y-67281851D01*
X160887202Y-67379908D01*
X160894110Y-67499715D01*
X160895247Y-67504761D01*
X160895248Y-67504767D01*
X160905378Y-67549715D01*
X160943222Y-67717639D01*
X160981461Y-67811811D01*
X161023328Y-67914917D01*
X161027266Y-67924616D01*
X161078019Y-68007438D01*
X161141291Y-68110688D01*
X161143987Y-68115088D01*
X161290250Y-68283938D01*
X161462126Y-68426632D01*
X161532595Y-68467811D01*
X161535445Y-68469476D01*
X161584169Y-68521114D01*
X161597240Y-68590897D01*
X161570509Y-68656669D01*
X161530055Y-68690027D01*
X161517607Y-68696507D01*
X161513474Y-68699610D01*
X161513471Y-68699612D01*
X161489247Y-68717800D01*
X161338965Y-68830635D01*
X161184629Y-68992138D01*
X161058743Y-69176680D01*
X160964688Y-69379305D01*
X160904989Y-69594570D01*
X160881251Y-69816695D01*
X160881548Y-69821848D01*
X160881548Y-69821851D01*
X160887011Y-69916590D01*
X160894110Y-70039715D01*
X160895247Y-70044761D01*
X160895248Y-70044767D01*
X160915119Y-70132939D01*
X160943222Y-70257639D01*
X161027266Y-70464616D01*
X161078019Y-70547438D01*
X161141291Y-70650688D01*
X161143987Y-70655088D01*
X161290250Y-70823938D01*
X161462126Y-70966632D01*
X161532595Y-71007811D01*
X161535445Y-71009476D01*
X161584169Y-71061114D01*
X161597240Y-71130897D01*
X161570509Y-71196669D01*
X161530055Y-71230027D01*
X161517607Y-71236507D01*
X161513474Y-71239610D01*
X161513471Y-71239612D01*
X161489247Y-71257800D01*
X161338965Y-71370635D01*
X161184629Y-71532138D01*
X161058743Y-71716680D01*
X160964688Y-71919305D01*
X160904989Y-72134570D01*
X160881251Y-72356695D01*
X114554000Y-72356695D01*
X114554000Y-67605359D01*
X141767386Y-67605359D01*
X141776099Y-67616879D01*
X141864586Y-67681760D01*
X141872505Y-67686708D01*
X142088877Y-67800547D01*
X142097451Y-67804275D01*
X142328282Y-67884885D01*
X142337291Y-67887299D01*
X142577518Y-67932908D01*
X142586775Y-67933962D01*
X142831107Y-67943563D01*
X142840420Y-67943237D01*
X143083478Y-67916618D01*
X143092655Y-67914917D01*
X143329107Y-67852665D01*
X143337926Y-67849628D01*
X143562584Y-67753107D01*
X143570856Y-67748800D01*
X143778777Y-67620135D01*
X143780620Y-67618796D01*
X143788038Y-67607541D01*
X143781974Y-67597184D01*
X142788812Y-66604022D01*
X142774868Y-66596408D01*
X142773035Y-66596539D01*
X142766420Y-66600790D01*
X141774044Y-67593166D01*
X141767386Y-67605359D01*
X114554000Y-67605359D01*
X114554000Y-66191835D01*
X141064022Y-66191835D01*
X141075754Y-66436064D01*
X141076891Y-66445324D01*
X141124593Y-66685143D01*
X141127082Y-66694118D01*
X141209708Y-66924250D01*
X141213505Y-66932778D01*
X141329234Y-67148160D01*
X141334245Y-67156027D01*
X141391173Y-67232263D01*
X141402431Y-67240712D01*
X141414850Y-67233940D01*
X142403978Y-66244812D01*
X142410356Y-66233132D01*
X143140408Y-66233132D01*
X143140539Y-66234965D01*
X143144790Y-66241580D01*
X144139732Y-67236522D01*
X144152112Y-67243282D01*
X144160453Y-67237038D01*
X144278700Y-67053202D01*
X144283147Y-67045011D01*
X144326618Y-66948510D01*
X144372834Y-66894616D01*
X144440850Y-66874263D01*
X144509073Y-66893913D01*
X144555842Y-66947328D01*
X144567500Y-67000261D01*
X144567500Y-67480134D01*
X144574255Y-67542316D01*
X144625385Y-67678705D01*
X144712739Y-67795261D01*
X144829295Y-67882615D01*
X144965684Y-67933745D01*
X145027866Y-67940500D01*
X147524134Y-67940500D01*
X147586316Y-67933745D01*
X147722705Y-67882615D01*
X147839261Y-67795261D01*
X147926615Y-67678705D01*
X147977745Y-67542316D01*
X147984500Y-67480134D01*
X147984500Y-67183000D01*
X148946496Y-67183000D01*
X148947186Y-67189565D01*
X148959492Y-67306646D01*
X148966458Y-67372928D01*
X149025473Y-67554556D01*
X149028776Y-67560278D01*
X149028777Y-67560279D01*
X149050084Y-67597184D01*
X149120960Y-67719944D01*
X149248747Y-67861866D01*
X149403248Y-67974118D01*
X149409276Y-67976802D01*
X149409278Y-67976803D01*
X149571681Y-68049109D01*
X149577712Y-68051794D01*
X149671112Y-68071647D01*
X149758056Y-68090128D01*
X149758061Y-68090128D01*
X149764513Y-68091500D01*
X149955487Y-68091500D01*
X149961939Y-68090128D01*
X149961944Y-68090128D01*
X150048888Y-68071647D01*
X150142288Y-68051794D01*
X150148319Y-68049109D01*
X150310722Y-67976803D01*
X150310724Y-67976802D01*
X150316752Y-67974118D01*
X150471253Y-67861866D01*
X150599040Y-67719944D01*
X150669916Y-67597184D01*
X150691223Y-67560279D01*
X150691224Y-67560278D01*
X150694527Y-67554556D01*
X150753542Y-67372928D01*
X150760509Y-67306646D01*
X150772814Y-67189565D01*
X150773504Y-67183000D01*
X150769842Y-67148160D01*
X150754232Y-66999635D01*
X150754232Y-66999633D01*
X150753542Y-66993072D01*
X150694527Y-66811444D01*
X150642598Y-66721500D01*
X150625860Y-66652504D01*
X150642598Y-66595500D01*
X150691223Y-66511279D01*
X150691224Y-66511278D01*
X150694527Y-66505556D01*
X150753542Y-66323928D01*
X150756649Y-66294373D01*
X150772814Y-66140565D01*
X150773504Y-66134000D01*
X150753542Y-65944072D01*
X150694527Y-65762444D01*
X150599040Y-65597056D01*
X150514337Y-65502983D01*
X150475675Y-65460045D01*
X150475674Y-65460044D01*
X150471253Y-65455134D01*
X150316752Y-65342882D01*
X150310724Y-65340198D01*
X150310722Y-65340197D01*
X150148319Y-65267891D01*
X150148318Y-65267891D01*
X150142288Y-65265206D01*
X150048888Y-65245353D01*
X149961944Y-65226872D01*
X149961939Y-65226872D01*
X149955487Y-65225500D01*
X149764513Y-65225500D01*
X149758061Y-65226872D01*
X149758056Y-65226872D01*
X149671112Y-65245353D01*
X149577712Y-65265206D01*
X149571682Y-65267891D01*
X149571681Y-65267891D01*
X149409278Y-65340197D01*
X149409276Y-65340198D01*
X149403248Y-65342882D01*
X149248747Y-65455134D01*
X149244326Y-65460044D01*
X149244325Y-65460045D01*
X149205664Y-65502983D01*
X149120960Y-65597056D01*
X149025473Y-65762444D01*
X148966458Y-65944072D01*
X148946496Y-66134000D01*
X148947186Y-66140565D01*
X148963352Y-66294373D01*
X148966458Y-66323928D01*
X149025473Y-66505556D01*
X149028776Y-66511278D01*
X149028777Y-66511279D01*
X149077402Y-66595500D01*
X149094140Y-66664496D01*
X149077402Y-66721500D01*
X149025473Y-66811444D01*
X148966458Y-66993072D01*
X148965768Y-66999633D01*
X148965768Y-66999635D01*
X148950158Y-67148160D01*
X148946496Y-67183000D01*
X147984500Y-67183000D01*
X147984500Y-64983866D01*
X147977745Y-64921684D01*
X147926615Y-64785295D01*
X147839261Y-64668739D01*
X147722705Y-64581385D01*
X147586316Y-64530255D01*
X147524134Y-64523500D01*
X145027866Y-64523500D01*
X144965684Y-64530255D01*
X144829295Y-64581385D01*
X144712739Y-64668739D01*
X144625385Y-64785295D01*
X144574255Y-64921684D01*
X144567500Y-64983866D01*
X144567500Y-65454433D01*
X144547498Y-65522554D01*
X144493842Y-65569047D01*
X144423568Y-65579151D01*
X144358988Y-65549657D01*
X144326099Y-65502983D01*
X144325644Y-65503200D01*
X144324371Y-65500531D01*
X144324066Y-65500098D01*
X144323631Y-65498980D01*
X144319619Y-65490567D01*
X144198284Y-65278276D01*
X144193074Y-65270553D01*
X144161787Y-65230865D01*
X144149863Y-65222395D01*
X144138328Y-65228882D01*
X143148022Y-66219188D01*
X143140408Y-66233132D01*
X142410356Y-66233132D01*
X142411592Y-66230868D01*
X142411461Y-66229035D01*
X142407210Y-66222420D01*
X141412828Y-65228038D01*
X141399520Y-65220771D01*
X141389481Y-65227893D01*
X141384581Y-65233784D01*
X141379168Y-65241373D01*
X141252322Y-65450409D01*
X141248084Y-65458726D01*
X141153529Y-65684214D01*
X141150572Y-65693052D01*
X141090384Y-65930042D01*
X141088763Y-65939232D01*
X141064267Y-66182510D01*
X141064022Y-66191835D01*
X114554000Y-66191835D01*
X114554000Y-64250000D01*
X127336496Y-64250000D01*
X127356458Y-64439928D01*
X127415473Y-64621556D01*
X127510960Y-64786944D01*
X127638747Y-64928866D01*
X127709772Y-64980469D01*
X127750000Y-65009696D01*
X127793248Y-65041118D01*
X127799276Y-65043802D01*
X127799278Y-65043803D01*
X127961681Y-65116109D01*
X127967712Y-65118794D01*
X128061112Y-65138647D01*
X128148056Y-65157128D01*
X128148061Y-65157128D01*
X128154513Y-65158500D01*
X128345487Y-65158500D01*
X128351939Y-65157128D01*
X128351944Y-65157128D01*
X128438888Y-65138647D01*
X128532288Y-65118794D01*
X128698752Y-65044680D01*
X128769118Y-65035246D01*
X128801247Y-65044680D01*
X128967712Y-65118794D01*
X129061112Y-65138647D01*
X129148056Y-65157128D01*
X129148061Y-65157128D01*
X129154513Y-65158500D01*
X129345487Y-65158500D01*
X129351939Y-65157128D01*
X129351944Y-65157128D01*
X129438888Y-65138647D01*
X129532288Y-65118794D01*
X129538319Y-65116109D01*
X129700722Y-65043803D01*
X129700724Y-65043802D01*
X129706752Y-65041118D01*
X129750001Y-65009696D01*
X129790228Y-64980469D01*
X129861253Y-64928866D01*
X129926036Y-64856917D01*
X141765330Y-64856917D01*
X141769903Y-64866693D01*
X142763188Y-65859978D01*
X142777132Y-65867592D01*
X142778965Y-65867461D01*
X142785580Y-65863210D01*
X143778488Y-64870302D01*
X143784872Y-64858612D01*
X143775460Y-64846502D01*
X143649144Y-64758873D01*
X143641116Y-64754145D01*
X143421810Y-64645995D01*
X143413177Y-64642507D01*
X143180288Y-64567958D01*
X143171238Y-64565785D01*
X142929891Y-64526480D01*
X142920602Y-64525668D01*
X142676114Y-64522467D01*
X142666803Y-64523037D01*
X142424522Y-64556010D01*
X142415403Y-64557948D01*
X142180668Y-64626367D01*
X142171915Y-64629639D01*
X141949869Y-64732004D01*
X141941714Y-64736524D01*
X141774468Y-64846175D01*
X141765330Y-64856917D01*
X129926036Y-64856917D01*
X129989040Y-64786944D01*
X130084527Y-64621556D01*
X130143542Y-64439928D01*
X130163504Y-64250000D01*
X130150954Y-64130590D01*
X130144232Y-64066635D01*
X130144232Y-64066633D01*
X130143542Y-64060072D01*
X130084527Y-63878444D01*
X129989040Y-63713056D01*
X129861253Y-63571134D01*
X129751859Y-63491654D01*
X129712094Y-63462763D01*
X129712093Y-63462762D01*
X129706752Y-63458882D01*
X129700724Y-63456198D01*
X129700722Y-63456197D01*
X129538319Y-63383891D01*
X129538318Y-63383891D01*
X129532288Y-63381206D01*
X129438888Y-63361353D01*
X129351944Y-63342872D01*
X129351939Y-63342872D01*
X129345487Y-63341500D01*
X129154513Y-63341500D01*
X129148061Y-63342872D01*
X129148056Y-63342872D01*
X129061112Y-63361353D01*
X128967712Y-63381206D01*
X128801248Y-63455320D01*
X128730882Y-63464754D01*
X128698753Y-63455320D01*
X128532288Y-63381206D01*
X128438888Y-63361353D01*
X128351944Y-63342872D01*
X128351939Y-63342872D01*
X128345487Y-63341500D01*
X128154513Y-63341500D01*
X128148061Y-63342872D01*
X128148056Y-63342872D01*
X128061112Y-63361353D01*
X127967712Y-63381206D01*
X127961682Y-63383891D01*
X127961681Y-63383891D01*
X127799278Y-63456197D01*
X127799276Y-63456198D01*
X127793248Y-63458882D01*
X127787907Y-63462762D01*
X127787906Y-63462763D01*
X127748141Y-63491654D01*
X127638747Y-63571134D01*
X127510960Y-63713056D01*
X127415473Y-63878444D01*
X127356458Y-64060072D01*
X127355768Y-64066633D01*
X127355768Y-64066635D01*
X127349046Y-64130590D01*
X127336496Y-64250000D01*
X114554000Y-64250000D01*
X114554000Y-60588134D01*
X160885500Y-60588134D01*
X160892255Y-60650316D01*
X160943385Y-60786705D01*
X161030739Y-60903261D01*
X161147295Y-60990615D01*
X161155704Y-60993767D01*
X161155705Y-60993768D01*
X161264960Y-61034726D01*
X161321725Y-61077367D01*
X161346425Y-61143929D01*
X161331218Y-61213278D01*
X161311825Y-61239759D01*
X161188590Y-61368717D01*
X161182104Y-61376727D01*
X161062098Y-61552649D01*
X161057000Y-61561623D01*
X160967338Y-61754783D01*
X160963775Y-61764470D01*
X160908389Y-61964183D01*
X160909912Y-61972607D01*
X160922292Y-61976000D01*
X166102344Y-61976000D01*
X166115875Y-61972027D01*
X166117180Y-61962947D01*
X166075214Y-61795875D01*
X166071894Y-61786124D01*
X165986972Y-61590814D01*
X165982105Y-61581739D01*
X165866426Y-61402926D01*
X165860136Y-61394757D01*
X165716806Y-61237240D01*
X165709273Y-61230215D01*
X165542139Y-61098222D01*
X165533556Y-61092520D01*
X165496602Y-61072120D01*
X165446631Y-61021687D01*
X165431859Y-60952245D01*
X165456975Y-60885839D01*
X165484327Y-60859232D01*
X165507797Y-60842491D01*
X165663860Y-60731173D01*
X165822096Y-60573489D01*
X165952453Y-60392077D01*
X166051430Y-60191811D01*
X166116370Y-59978069D01*
X166145529Y-59756590D01*
X166147156Y-59690000D01*
X166128852Y-59467361D01*
X166074431Y-59250702D01*
X165985354Y-59045840D01*
X165864014Y-58858277D01*
X165713670Y-58693051D01*
X165709619Y-58689852D01*
X165709615Y-58689848D01*
X165542414Y-58557800D01*
X165542410Y-58557798D01*
X165538359Y-58554598D01*
X165342789Y-58446638D01*
X165337920Y-58444914D01*
X165337916Y-58444912D01*
X165137087Y-58373795D01*
X165137083Y-58373794D01*
X165132212Y-58372069D01*
X165127119Y-58371162D01*
X165127116Y-58371161D01*
X164917373Y-58333800D01*
X164917367Y-58333799D01*
X164912284Y-58332894D01*
X164838452Y-58331992D01*
X164694081Y-58330228D01*
X164694079Y-58330228D01*
X164688911Y-58330165D01*
X164468091Y-58363955D01*
X164255756Y-58433357D01*
X164057607Y-58536507D01*
X164053474Y-58539610D01*
X164053471Y-58539612D01*
X163883100Y-58667530D01*
X163878965Y-58670635D01*
X163822537Y-58729684D01*
X163798283Y-58755064D01*
X163736759Y-58790494D01*
X163665846Y-58787037D01*
X163608060Y-58745791D01*
X163589207Y-58712243D01*
X163547767Y-58601703D01*
X163544615Y-58593295D01*
X163457261Y-58476739D01*
X163340705Y-58389385D01*
X163204316Y-58338255D01*
X163142134Y-58331500D01*
X161345866Y-58331500D01*
X161283684Y-58338255D01*
X161147295Y-58389385D01*
X161030739Y-58476739D01*
X160943385Y-58593295D01*
X160892255Y-58729684D01*
X160885500Y-58791866D01*
X160885500Y-60588134D01*
X114554000Y-60588134D01*
X114554000Y-57530000D01*
X114574002Y-57461879D01*
X114627658Y-57415386D01*
X114680000Y-57404000D01*
X168403000Y-57404000D01*
X168471121Y-57424002D01*
G37*
%TD.AperFunction*%
%TD*%
M02*
